<?xml version="1.0" encoding="UTF-8"?>
<svg xmlns="http://www.w3.org/2000/svg" width="1501" height="972" viewBox="0 0 1501 972" role="img" aria-label="grammar-coverage">
  <title>grammar-coverage</title>
  <desc>Kvísl layouter prototype preview</desc>
  <rect width="100%" height="100%" fill="#ffffff"/>
  <g id="boundaries"><rect x="52" y="419.875" width="808" height="132.25" rx="14" fill="#f8fafc" stroke="#7b8794" stroke-width="2"/><rect x="944" y="52" width="176.25" height="868" rx="14" fill="#f8fafc" stroke="#7b8794" stroke-width="2"/><rect x="966" y="74" width="132.25" height="808" rx="14" fill="#f8fafc" stroke="#7b8794" stroke-width="2"/></g>
  <g id="routing-regions"><rect data-routing-region="mesh:padding:$root:top" data-region-kind="padding" data-materialized="false" data-authored="false" x="52.5" y="24.5" width="1395.25" height="27" fill="#ef4444" fill-opacity="0.1"/><rect data-routing-region="mesh:padding:$root:right" data-region-kind="padding" data-materialized="false" data-authored="false" x="1448.75" y="52.5" width="27" height="867" fill="#ef4444" fill-opacity="0.1"/><rect data-routing-region="mesh:padding:$root:bottom" data-region-kind="padding" data-materialized="false" data-authored="false" x="52.5" y="920.5" width="1395.25" height="27" fill="#ef4444" fill-opacity="0.1"/><rect data-routing-region="mesh:padding:$root:left" data-region-kind="padding" data-materialized="false" data-authored="false" x="24.5" y="52.5" width="27" height="867" fill="#ef4444" fill-opacity="0.1"/><rect data-routing-region="mesh:corner:$root:top-left" data-region-kind="corner" data-materialized="true" data-authored="false" x="24.5" y="24.5" width="27" height="27" fill="#ef4444" fill-opacity="0.1"/><rect data-routing-region="mesh:corner:$root:top-right" data-region-kind="corner" data-materialized="true" data-authored="false" x="1448.75" y="24.5" width="27" height="27" fill="#ef4444" fill-opacity="0.1"/><rect data-routing-region="mesh:corner:$root:bottom-right" data-region-kind="corner" data-materialized="true" data-authored="false" x="1448.75" y="920.5" width="27" height="27" fill="#ef4444" fill-opacity="0.1"/><rect data-routing-region="mesh:corner:$root:bottom-left" data-region-kind="corner" data-materialized="true" data-authored="false" x="24.5" y="920.5" width="27" height="27" fill="#ef4444" fill-opacity="0.1"/><rect data-routing-region="mesh:gap:system:0" data-region-kind="gap" data-materialized="true" data-authored="false" x="860.5" y="52.5" width="83" height="867" fill="#ef4444" fill-opacity="0.1"/><rect data-routing-region="mesh:gap:system:1" data-region-kind="gap" data-materialized="true" data-authored="false" x="1120.75" y="52.5" width="107" height="867" fill="#ef4444" fill-opacity="0.1"/><rect data-routing-region="mesh:padding:system/upright:top" data-region-kind="padding" data-materialized="false" data-authored="false" x="74.5" y="448.625" width="747" height="21" fill="#ef4444" fill-opacity="0.1"/><rect data-routing-region="mesh:padding:system/upright:right" data-region-kind="padding" data-materialized="true" data-authored="false" x="822.5" y="470.625" width="15" height="59" fill="#ef4444" fill-opacity="0.1"/><rect data-routing-region="mesh:padding:system/upright:bottom" data-region-kind="padding" data-materialized="false" data-authored="false" x="74.5" y="530.625" width="747" height="21" fill="#ef4444" fill-opacity="0.1"/><rect data-routing-region="mesh:padding:system/upright:left" data-region-kind="padding" data-materialized="false" data-authored="false" x="52.5" y="470.625" width="21" height="59" fill="#ef4444" fill-opacity="0.1"/><rect data-routing-region="mesh:corner:system/upright:top-left" data-region-kind="corner" data-materialized="true" data-authored="false" x="52.5" y="448.625" width="21" height="21" fill="#ef4444" fill-opacity="0.1"/><rect data-routing-region="mesh:corner:system/upright:top-right" data-region-kind="corner" data-materialized="true" data-authored="false" x="822.5" y="448.625" width="37" height="21" fill="#ef4444" fill-opacity="0.1"/><rect data-routing-region="mesh:corner:system/upright:bottom-right" data-region-kind="corner" data-materialized="true" data-authored="false" x="822.5" y="530.625" width="37" height="21" fill="#ef4444" fill-opacity="0.1"/><rect data-routing-region="mesh:corner:system/upright:bottom-left" data-region-kind="corner" data-materialized="true" data-authored="false" x="52.5" y="530.625" width="21" height="21" fill="#ef4444" fill-opacity="0.1"/><rect data-routing-region="mesh:gap:system/upright:0" data-region-kind="gap" data-materialized="true" data-authored="false" x="294.5" y="470.625" width="43" height="59" fill="#ef4444" fill-opacity="0.1"/><rect data-routing-region="mesh:gap:system/upright:1" data-region-kind="gap" data-materialized="true" data-authored="false" x="558.5" y="470.625" width="43" height="59" fill="#ef4444" fill-opacity="0.1"/><rect data-routing-region="mesh:padding:system/rotated:top" data-region-kind="padding" data-materialized="false" data-authored="false" x="966.5" y="52.5" width="115.25" height="21" fill="#ef4444" fill-opacity="0.1"/><rect data-routing-region="mesh:padding:system/rotated:right" data-region-kind="padding" data-materialized="true" data-authored="false" x="1082.75" y="74.5" width="15" height="823" fill="#ef4444" fill-opacity="0.1"/><rect data-routing-region="mesh:padding:system/rotated:bottom" data-region-kind="padding" data-materialized="false" data-authored="false" x="966.5" y="898.5" width="115.25" height="21" fill="#ef4444" fill-opacity="0.1"/><rect data-routing-region="mesh:padding:system/rotated:left" data-region-kind="padding" data-materialized="false" data-authored="false" x="944.5" y="74.5" width="21" height="823" fill="#ef4444" fill-opacity="0.1"/><rect data-routing-region="mesh:corner:system/rotated:top-left" data-region-kind="corner" data-materialized="true" data-authored="false" x="944.5" y="52.5" width="21" height="21" fill="#ef4444" fill-opacity="0.1"/><rect data-routing-region="mesh:corner:system/rotated:top-right" data-region-kind="corner" data-materialized="true" data-authored="false" x="1082.75" y="52.5" width="37" height="21" fill="#ef4444" fill-opacity="0.1"/><rect data-routing-region="mesh:corner:system/rotated:bottom-right" data-region-kind="corner" data-materialized="true" data-authored="false" x="1082.75" y="898.5" width="37" height="21" fill="#ef4444" fill-opacity="0.1"/><rect data-routing-region="mesh:corner:system/rotated:bottom-left" data-region-kind="corner" data-materialized="true" data-authored="false" x="944.5" y="898.5" width="21" height="21" fill="#ef4444" fill-opacity="0.1"/><rect data-routing-region="mesh:padding:system/rotated/pipeline:top" data-region-kind="padding" data-materialized="false" data-authored="false" x="988.5" y="102.75" width="71.25" height="21" fill="#ef4444" fill-opacity="0.1"/><rect data-routing-region="mesh:padding:system/rotated/pipeline:right" data-region-kind="padding" data-materialized="true" data-authored="false" x="1060.75" y="124.75" width="15" height="734.75" fill="#ef4444" fill-opacity="0.1"/><rect data-routing-region="mesh:padding:system/rotated/pipeline:bottom" data-region-kind="padding" data-materialized="false" data-authored="false" x="988.5" y="860.5" width="71.25" height="21" fill="#ef4444" fill-opacity="0.1"/><rect data-routing-region="mesh:padding:system/rotated/pipeline:left" data-region-kind="padding" data-materialized="false" data-authored="false" x="966.5" y="124.75" width="21" height="734.75" fill="#ef4444" fill-opacity="0.1"/><rect data-routing-region="mesh:corner:system/rotated/pipeline:top-left" data-region-kind="corner" data-materialized="true" data-authored="false" x="966.5" y="102.75" width="21" height="21" fill="#ef4444" fill-opacity="0.1"/><rect data-routing-region="mesh:corner:system/rotated/pipeline:top-right" data-region-kind="corner" data-materialized="true" data-authored="false" x="1060.75" y="102.75" width="37" height="21" fill="#ef4444" fill-opacity="0.1"/><rect data-routing-region="mesh:corner:system/rotated/pipeline:bottom-right" data-region-kind="corner" data-materialized="true" data-authored="false" x="1060.75" y="860.5" width="37" height="21" fill="#ef4444" fill-opacity="0.1"/><rect data-routing-region="mesh:corner:system/rotated/pipeline:bottom-left" data-region-kind="corner" data-materialized="true" data-authored="false" x="966.5" y="860.5" width="21" height="21" fill="#ef4444" fill-opacity="0.1"/><rect data-routing-region="mesh:gap:system/rotated/pipeline:0" data-region-kind="gap" data-materialized="true" data-authored="false" x="988.5" y="316.5" width="59" height="43" fill="#ef4444" fill-opacity="0.1"/><rect data-routing-region="mesh:gap:system/rotated/pipeline:1" data-region-kind="gap" data-materialized="true" data-authored="false" x="988.5" y="580.5" width="59" height="43" fill="#ef4444" fill-opacity="0.1"/></g>
  <g id="corridor-dividers"></g>
  <g id="lines"><g data-line="$line-1"><polyline points="294,500.125 316,500.125 314,500.125 338,500.125" fill="none" stroke="#2563eb" stroke-width="2" stroke-linejoin="round" stroke-linecap="round"/><path d="M 326 506.125 L 338 500.125 L 326 494.125" fill="none" stroke="#2563eb" stroke-width="2" stroke-linejoin="round"/></g><g data-line="$line-2"><polyline points="558,505.125 580,505.125 578,505.125 602,505.125" fill="none" stroke="#2563eb" stroke-width="2" stroke-linejoin="round" stroke-linecap="round"/><path d="M 590 511.125 L 602 505.125 L 590 499.125" fill="none" stroke="#2563eb" stroke-width="2" stroke-linejoin="round"/></g><g data-line="$line-3"><polyline points="1018,316 1018,338 1018,336 1018,360" fill="none" stroke="#2563eb" stroke-width="2" stroke-linejoin="round" stroke-linecap="round"/><path d="M 1012 348 L 1018 360 L 1024 348" fill="none" stroke="#2563eb" stroke-width="2" stroke-linejoin="round"/></g><g data-line="$line-4"><polyline points="1018,580 1018,602 1018,600 1018,624" fill="none" stroke="#2563eb" stroke-width="2" stroke-linejoin="round" stroke-linecap="round"/><path d="M 1012 612 L 1018 624 L 1024 612" fill="none" stroke="#2563eb" stroke-width="2" stroke-linejoin="round"/></g><g data-line="probe-upright"><polyline points="1228.25,484.125 1162.25,484.125 1162.25,336 896,336 896,484.125 830,484.125 830,446.125 582,446.125 582,484.125 558,484.125" fill="none" stroke="#6b7280" stroke-width="2" stroke-linejoin="round" stroke-linecap="round" stroke-dasharray="10 7"/><path d="M 570 478.125 L 558 484.125 L 570 490.125" fill="none" stroke="#6b7280" stroke-width="2" stroke-linejoin="round"/></g><g data-line="probe-rotated"><polyline points="1228.25,458.1625 1048,458.1625" fill="none" stroke="#6b7280" stroke-width="2" stroke-linejoin="round" stroke-linecap="round" stroke-dasharray="10 7"/><path d="M 1060 452.1625 L 1048 458.1625 L 1060 464.1625" fill="none" stroke="#6b7280" stroke-width="2" stroke-linejoin="round"/></g><g data-line="audit-upright"><polyline points="822,499.675 908,499.675 908,868 1174.25,868 1174.25,499.675 1228.25,499.675" fill="none" stroke="#2563eb" stroke-width="2" stroke-linejoin="round" stroke-linecap="round"/><path d="M 1216.25 505.675 L 1228.25 499.675 L 1216.25 493.675" fill="none" stroke="#2563eb" stroke-width="2" stroke-linejoin="round"/></g><g data-line="audit-rotated"><polyline points="1018,844 1018,858 1186.25,858 1186.25,525.675 1228.25,525.675" fill="none" stroke="#2563eb" stroke-width="2" stroke-linejoin="round" stroke-linecap="round"/><path d="M 1216.25 531.675 L 1228.25 525.675 L 1216.25 519.675" fill="none" stroke="#2563eb" stroke-width="2" stroke-linejoin="round"/></g></g>
  <g id="objects"><rect x="74" y="470.125" width="220" height="60" rx="14" fill="#ffffff" stroke="#172033" stroke-width="2"/><rect x="338" y="470.125" width="220" height="60" rx="14" fill="#ffffff" stroke="#172033" stroke-width="2"/><rect x="602" y="470.125" width="220" height="60" rx="14" fill="#ffffff" stroke="#172033" stroke-width="2"/><rect x="988" y="96" width="60" height="220" rx="14" fill="#ffffff" stroke="#172033" stroke-width="2"/><rect x="988" y="360" width="60" height="220" rx="14" fill="#ffffff" stroke="#172033" stroke-width="2"/><rect x="988" y="624" width="60" height="220" rx="14" fill="#ffffff" stroke="#172033" stroke-width="2"/><rect x="1228.25" y="419.875" width="220" height="132.25" rx="14" fill="#ffffff" stroke="#172033" stroke-width="2"/></g>
  <g id="ports"></g>
  <g id="text"><text x="65" y="441.875" text-anchor="start" fill="#172033" font-family="ui-rounded, 'Comic Sans MS', sans-serif" font-size="15" font-weight="700">Pipeline</text><text x="184" y="505" text-anchor="middle" fill="#172033" font-family="ui-rounded, 'Comic Sans MS', sans-serif" font-size="15" font-weight="700">Ingest</text><text x="448" y="505" text-anchor="middle" fill="#172033" font-family="ui-rounded, 'Comic Sans MS', sans-serif" font-size="15" font-weight="700">Transform</text><text x="712" y="505" text-anchor="middle" fill="#172033" font-family="ui-rounded, 'Comic Sans MS', sans-serif" font-size="15" font-weight="700">Publish</text><text x="979" y="96" text-anchor="start" fill="#172033" font-family="ui-rounded, 'Comic Sans MS', sans-serif" font-size="15" font-weight="700">Pipeline</text><text x="1018" y="210.875" text-anchor="middle" fill="#172033" font-family="ui-rounded, 'Comic Sans MS', sans-serif" font-size="15" font-weight="700">Ingest</text><text x="1018" y="474.875" text-anchor="middle" fill="#172033" font-family="ui-rounded, 'Comic Sans MS', sans-serif" font-size="15" font-weight="700">Transform</text><text x="1018" y="738.875" text-anchor="middle" fill="#172033" font-family="ui-rounded, 'Comic Sans MS', sans-serif" font-size="15" font-weight="700">Publish</text><text x="1338.25" y="490.875" text-anchor="middle" fill="#172033" font-family="ui-rounded, 'Comic Sans MS', sans-serif" font-size="15" font-weight="700">Monitor</text></g>
</svg>