<?xml version="1.0" encoding="UTF-8"?>
<svg xmlns="http://www.w3.org/2000/svg" width="1501" height="972" viewBox="0 0 1501 972" role="img" aria-label="grammar-coverage">
  <title>grammar-coverage</title>
  <desc>Kvísl layouter prototype preview</desc>
  <rect width="100%" height="100%" fill="#ffffff"/>
  <g id="boundaries"><rect x="52" y="419.875" width="808" height="132.25" rx="14" fill="#f8fafc" stroke="#7b8794" stroke-width="2"/><rect x="944" y="52" width="176.25" height="868" rx="14" fill="#f8fafc" stroke="#7b8794" stroke-width="2"/><rect x="966" y="74" width="132.25" height="808" rx="14" fill="#f8fafc" stroke="#7b8794" stroke-width="2"/></g>
  <g id="corridor-dividers"></g>
  <g id="lines"><g data-line="$line-1"><polyline points="294,500.125 338,500.125" fill="none" stroke="#2563eb" stroke-width="2" stroke-linejoin="round" stroke-linecap="round"/><path d="M 326 506.125 L 338 500.125 L 326 494.125" fill="none" stroke="#2563eb" stroke-width="2" stroke-linejoin="round"/></g><g data-line="$line-2"><polyline points="558,505.125 602,505.125" fill="none" stroke="#2563eb" stroke-width="2" stroke-linejoin="round" stroke-linecap="round"/><path d="M 590 511.125 L 602 505.125 L 590 499.125" fill="none" stroke="#2563eb" stroke-width="2" stroke-linejoin="round"/></g><g data-line="$line-3"><polyline points="1018,316 1018,360" fill="none" stroke="#2563eb" stroke-width="2" stroke-linejoin="round" stroke-linecap="round"/><path d="M 1012 348 L 1018 360 L 1024 348" fill="none" stroke="#2563eb" stroke-width="2" stroke-linejoin="round"/></g><g data-line="$line-4"><polyline points="1018,580 1018,624" fill="none" stroke="#2563eb" stroke-width="2" stroke-linejoin="round" stroke-linecap="round"/><path d="M 1012 612 L 1018 624 L 1024 612" fill="none" stroke="#2563eb" stroke-width="2" stroke-linejoin="round"/></g><g data-line="probe-upright"><polyline points="1228.25,484.125 1162.25,484.125 1162.25,336 896,336 896,484.125 830,484.125 830,446.125 572,446.125 572,484.125 558,484.125" fill="none" stroke="#6b7280" stroke-width="2" stroke-linejoin="round" stroke-linecap="round" stroke-dasharray="10 7"/><path d="M 570 478.125 L 558 484.125 L 570 490.125" fill="none" stroke="#6b7280" stroke-width="2" stroke-linejoin="round"/></g><g data-line="probe-rotated"><polyline points="1228.25,458.1625 1048,458.1625" fill="none" stroke="#6b7280" stroke-width="2" stroke-linejoin="round" stroke-linecap="round" stroke-dasharray="10 7"/><path d="M 1060 452.1625 L 1048 458.1625 L 1060 464.1625" fill="none" stroke="#6b7280" stroke-width="2" stroke-linejoin="round"/></g><g data-line="audit-upright"><polyline points="822,499.675 908,499.675 908,868 1174.25,868 1174.25,499.675 1228.25,499.675" fill="none" stroke="#2563eb" stroke-width="2" stroke-linejoin="round" stroke-linecap="round"/><path d="M 1216.25 505.675 L 1228.25 499.675 L 1216.25 493.675" fill="none" stroke="#2563eb" stroke-width="2" stroke-linejoin="round"/></g><g data-line="audit-rotated"><polyline points="1018,844 1018,858 1186.25,858 1186.25,525.675 1228.25,525.675" fill="none" stroke="#2563eb" stroke-width="2" stroke-linejoin="round" stroke-linecap="round"/><path d="M 1216.25 531.675 L 1228.25 525.675 L 1216.25 519.675" fill="none" stroke="#2563eb" stroke-width="2" stroke-linejoin="round"/></g></g>
  <g id="objects"><rect x="74" y="470.125" width="220" height="60" rx="14" fill="#ffffff" stroke="#172033" stroke-width="2"/><rect x="338" y="470.125" width="220" height="60" rx="14" fill="#ffffff" stroke="#172033" stroke-width="2"/><rect x="602" y="470.125" width="220" height="60" rx="14" fill="#ffffff" stroke="#172033" stroke-width="2"/><rect x="988" y="96" width="60" height="220" rx="14" fill="#ffffff" stroke="#172033" stroke-width="2"/><rect x="988" y="360" width="60" height="220" rx="14" fill="#ffffff" stroke="#172033" stroke-width="2"/><rect x="988" y="624" width="60" height="220" rx="14" fill="#ffffff" stroke="#172033" stroke-width="2"/><rect x="1228.25" y="419.875" width="220" height="132.25" rx="14" fill="#ffffff" stroke="#172033" stroke-width="2"/></g>
  <g id="ports"></g>
  <g id="text"><text x="65" y="441.875" text-anchor="start" fill="#172033" font-family="ui-rounded, 'Comic Sans MS', sans-serif" font-size="15" font-weight="700">Pipeline</text><text x="184" y="505" text-anchor="middle" fill="#172033" font-family="ui-rounded, 'Comic Sans MS', sans-serif" font-size="15" font-weight="700">Ingest</text><text x="448" y="505" text-anchor="middle" fill="#172033" font-family="ui-rounded, 'Comic Sans MS', sans-serif" font-size="15" font-weight="700">Transform</text><text x="712" y="505" text-anchor="middle" fill="#172033" font-family="ui-rounded, 'Comic Sans MS', sans-serif" font-size="15" font-weight="700">Publish</text><text x="979" y="96" text-anchor="start" fill="#172033" font-family="ui-rounded, 'Comic Sans MS', sans-serif" font-size="15" font-weight="700">Pipeline</text><text x="1018" y="210.875" text-anchor="middle" fill="#172033" font-family="ui-rounded, 'Comic Sans MS', sans-serif" font-size="15" font-weight="700">Ingest</text><text x="1018" y="474.875" text-anchor="middle" fill="#172033" font-family="ui-rounded, 'Comic Sans MS', sans-serif" font-size="15" font-weight="700">Transform</text><text x="1018" y="738.875" text-anchor="middle" fill="#172033" font-family="ui-rounded, 'Comic Sans MS', sans-serif" font-size="15" font-weight="700">Publish</text><text x="1338.25" y="490.875" text-anchor="middle" fill="#172033" font-family="ui-rounded, 'Comic Sans MS', sans-serif" font-size="15" font-weight="700">Monitor</text></g>
</svg>