<?xml version="1.0" encoding="UTF-8"?>
<svg xmlns="http://www.w3.org/2000/svg" width="1521" height="1012" viewBox="0 0 1521 1012" role="img" aria-label="grammar-coverage">
  <title>grammar-coverage</title>
  <desc>Kvísl layouter prototype preview</desc>
  <rect width="100%" height="100%" fill="#ffffff"/>
  <g id="boundaries"><rect x="52" y="439.875" width="828" height="132.25" rx="14" fill="#f8fafc" stroke="#7b8794" stroke-width="2"/><rect x="964" y="52" width="176.25" height="908" rx="14" fill="#f8fafc" stroke="#7b8794" stroke-width="2"/><rect x="986" y="74" width="132.25" height="828" rx="14" fill="#f8fafc" stroke="#7b8794" stroke-width="2"/></g>
  <g id="corridor-dividers"></g>
  <g id="lines"><g data-line="$line-1"><polyline points="294,520.125 338,520.125" fill="none" stroke="#2563eb" stroke-width="2" stroke-linejoin="round" stroke-linecap="round"/><path d="M 326 526.125 L 338 520.125 L 326 514.125" fill="none" stroke="#2563eb" stroke-width="2" stroke-linejoin="round"/></g><g data-line="$line-2"><polyline points="558,515.125 602,515.125" fill="none" stroke="#2563eb" stroke-width="2" stroke-linejoin="round" stroke-linecap="round"/><path d="M 590 521.125 L 602 515.125 L 590 509.125" fill="none" stroke="#2563eb" stroke-width="2" stroke-linejoin="round"/></g><g data-line="$line-3"><polyline points="1038,316 1038,360" fill="none" stroke="#2563eb" stroke-width="2" stroke-linejoin="round" stroke-linecap="round"/><path d="M 1032 348 L 1038 360 L 1044 348" fill="none" stroke="#2563eb" stroke-width="2" stroke-linejoin="round"/></g><g data-line="$line-4"><polyline points="1038,580 1038,624" fill="none" stroke="#2563eb" stroke-width="2" stroke-linejoin="round" stroke-linecap="round"/><path d="M 1032 612 L 1038 624 L 1044 612" fill="none" stroke="#2563eb" stroke-width="2" stroke-linejoin="round"/></g><g data-line="probe-upright"><polyline points="1248.25,466.325 1212.25,466.325 1212.25,336 928,336 928,530.125 846,530.125 846,574.125 578,574.125 578,530.125 558,530.125" fill="none" stroke="#6b7280" stroke-width="2" stroke-linejoin="round" stroke-linecap="round" stroke-dasharray="10 7"/><path d="M 570 524.125 L 558 530.125 L 570 536.125" fill="none" stroke="#6b7280" stroke-width="2" stroke-linejoin="round"/></g><g data-line="probe-rotated"><polyline points="1248.25,481.3875 1068,481.3875" fill="none" stroke="#6b7280" stroke-width="2" stroke-linejoin="round" stroke-linecap="round" stroke-dasharray="10 7"/><path d="M 1080 475.3875 L 1068 481.3875 L 1080 487.3875" fill="none" stroke="#6b7280" stroke-width="2" stroke-linejoin="round"/></g><g data-line="audit-upright"><polyline points="822,519.675 916,519.675 916,868 1188.25,868 1188.25,519.675 1248.25,519.675" fill="none" stroke="#2563eb" stroke-width="2" stroke-linejoin="round" stroke-linecap="round"/><path d="M 1236.25 525.675 L 1248.25 519.675 L 1236.25 513.675" fill="none" stroke="#2563eb" stroke-width="2" stroke-linejoin="round"/></g><g data-line="audit-rotated"><polyline points="1038,844 1038,858 1176.25,858 1176.25,545.675 1248.25,545.675" fill="none" stroke="#2563eb" stroke-width="2" stroke-linejoin="round" stroke-linecap="round"/><path d="M 1236.25 551.675 L 1248.25 545.675 L 1236.25 539.675" fill="none" stroke="#2563eb" stroke-width="2" stroke-linejoin="round"/></g></g>
  <g id="objects"><rect x="74" y="490.125" width="220" height="60" rx="14" fill="#ffffff" stroke="#172033" stroke-width="2"/><rect x="338" y="490.125" width="220" height="60" rx="14" fill="#ffffff" stroke="#172033" stroke-width="2"/><rect x="602" y="490.125" width="220" height="60" rx="14" fill="#ffffff" stroke="#172033" stroke-width="2"/><rect x="1008" y="96" width="60" height="220" rx="14" fill="#ffffff" stroke="#172033" stroke-width="2"/><rect x="1008" y="360" width="60" height="220" rx="14" fill="#ffffff" stroke="#172033" stroke-width="2"/><rect x="1008" y="624" width="60" height="220" rx="14" fill="#ffffff" stroke="#172033" stroke-width="2"/><rect x="1248.25" y="439.875" width="220" height="132.25" rx="14" fill="#ffffff" stroke="#172033" stroke-width="2"/></g>
  <g id="ports"></g>
  <g id="text"><text x="65" y="461.875" text-anchor="start" fill="#172033" font-family="ui-rounded, 'Comic Sans MS', sans-serif" font-size="15" font-weight="700">Pipeline</text><text x="184" y="525" text-anchor="middle" fill="#172033" font-family="ui-rounded, 'Comic Sans MS', sans-serif" font-size="15" font-weight="700">Ingest</text><text x="448" y="525" text-anchor="middle" fill="#172033" font-family="ui-rounded, 'Comic Sans MS', sans-serif" font-size="15" font-weight="700">Transform</text><text x="712" y="525" text-anchor="middle" fill="#172033" font-family="ui-rounded, 'Comic Sans MS', sans-serif" font-size="15" font-weight="700">Publish</text><text x="999" y="96" text-anchor="start" fill="#172033" font-family="ui-rounded, 'Comic Sans MS', sans-serif" font-size="15" font-weight="700">Pipeline</text><text x="1038" y="210.875" text-anchor="middle" fill="#172033" font-family="ui-rounded, 'Comic Sans MS', sans-serif" font-size="15" font-weight="700">Ingest</text><text x="1038" y="474.875" text-anchor="middle" fill="#172033" font-family="ui-rounded, 'Comic Sans MS', sans-serif" font-size="15" font-weight="700">Transform</text><text x="1038" y="738.875" text-anchor="middle" fill="#172033" font-family="ui-rounded, 'Comic Sans MS', sans-serif" font-size="15" font-weight="700">Publish</text><text x="1358.25" y="510.875" text-anchor="middle" fill="#172033" font-family="ui-rounded, 'Comic Sans MS', sans-serif" font-size="15" font-weight="700">Monitor</text></g>
</svg>