<?xml version="1.0" encoding="UTF-8"?>
<svg xmlns="http://www.w3.org/2000/svg" width="1525" height="972" viewBox="0 0 1525 972" role="img" aria-label="grammar-coverage">
  <title>grammar-coverage</title>
  <desc>Kvísl layouter prototype preview</desc>
  <rect width="100%" height="100%" fill="#ffffff"/>
  <g id="boundaries"><rect x="52" y="407.875" width="808" height="156.25" rx="14" fill="#f8fafc" stroke="#7b8794" stroke-width="2"/><rect x="944" y="52" width="200.25" height="868" rx="14" fill="#f8fafc" stroke="#7b8794" stroke-width="2"/><rect x="966" y="74" width="156.25" height="808" rx="14" fill="#f8fafc" stroke="#7b8794" stroke-width="2"/></g>
  <g id="corridor-dividers"></g>
  <g id="lines"><g data-line="$line-1"><polyline points="294,500.125 316,500.125 314,500.125 338,500.125" fill="none" stroke="#2563eb" stroke-width="2" stroke-linejoin="round" stroke-linecap="round"/><path d="M 326 506.125 L 338 500.125 L 326 494.125" fill="none" stroke="#2563eb" stroke-width="2" stroke-linejoin="round"/></g><g data-line="$line-2"><polyline points="558,507.125 580,507.125 578,507.125 602,507.125" fill="none" stroke="#2563eb" stroke-width="2" stroke-linejoin="round" stroke-linecap="round"/><path d="M 590 513.125 L 602 507.125 L 590 501.125" fill="none" stroke="#2563eb" stroke-width="2" stroke-linejoin="round"/></g><g data-line="$line-3"><polyline points="1030,316 1030,338 1030,336 1030,360" fill="none" stroke="#2563eb" stroke-width="2" stroke-linejoin="round" stroke-linecap="round"/><path d="M 1024 348 L 1030 360 L 1036 348" fill="none" stroke="#2563eb" stroke-width="2" stroke-linejoin="round"/></g><g data-line="$line-4"><polyline points="1030,580 1030,602 1030,600 1030,624" fill="none" stroke="#2563eb" stroke-width="2" stroke-linejoin="round" stroke-linecap="round"/><path d="M 1024 612 L 1030 624 L 1036 612" fill="none" stroke="#2563eb" stroke-width="2" stroke-linejoin="round"/></g><g data-line="probe-upright"><polyline points="1252.25,478.25 1186.25,478.25 1186.25,336 896,336 896,478.25 841,478.25 841,434.125 582,434.125 582,478.25 558,478.25" fill="none" stroke="#6b7280" stroke-width="2" stroke-linejoin="round" stroke-linecap="round" stroke-dasharray="10 7"/><path d="M 570 472.25 L 558 478.25 L 570 484.25" fill="none" stroke="#6b7280" stroke-width="2" stroke-linejoin="round"/></g><g data-line="probe-rotated"><polyline points="1252.25,454.5625 1072,454.5625" fill="none" stroke="#6b7280" stroke-width="2" stroke-linejoin="round" stroke-linecap="round" stroke-dasharray="10 7"/><path d="M 1084 448.5625 L 1072 454.5625 L 1084 460.5625" fill="none" stroke="#6b7280" stroke-width="2" stroke-linejoin="round"/></g><g data-line="audit-upright"><polyline points="822,500.875 908,500.875 908,868 1198.25,868 1198.25,500.875 1252.25,500.875" fill="none" stroke="#2563eb" stroke-width="2" stroke-linejoin="round" stroke-linecap="round"/><path d="M 1240.25 506.875 L 1252.25 500.875 L 1240.25 494.875" fill="none" stroke="#2563eb" stroke-width="2" stroke-linejoin="round"/></g><g data-line="audit-rotated"><polyline points="1030,844 1030,858 1210.25,858 1210.25,532.875 1252.25,532.875" fill="none" stroke="#2563eb" stroke-width="2" stroke-linejoin="round" stroke-linecap="round"/><path d="M 1240.25 538.875 L 1252.25 532.875 L 1240.25 526.875" fill="none" stroke="#2563eb" stroke-width="2" stroke-linejoin="round"/></g></g>
  <g id="objects"><rect x="74" y="458.125" width="220" height="84" rx="14" fill="#ffffff" stroke="#172033" stroke-width="2"/><rect x="338" y="458.125" width="220" height="84" rx="14" fill="#ffffff" stroke="#172033" stroke-width="2"/><rect x="602" y="458.125" width="220" height="84" rx="14" fill="#ffffff" stroke="#172033" stroke-width="2"/><rect x="988" y="96" width="84" height="220" rx="14" fill="#ffffff" stroke="#172033" stroke-width="2"/><rect x="988" y="360" width="84" height="220" rx="14" fill="#ffffff" stroke="#172033" stroke-width="2"/><rect x="988" y="624" width="84" height="220" rx="14" fill="#ffffff" stroke="#172033" stroke-width="2"/><rect x="1252.25" y="407.875" width="220" height="156.25" rx="14" fill="#ffffff" stroke="#172033" stroke-width="2"/></g>
  <g id="ports"></g>
  <g id="text"><text x="65" y="429.875" text-anchor="start" fill="#172033" font-family="ui-rounded, 'Comic Sans MS', sans-serif" font-size="15" font-weight="700">Pipeline</text><text x="184" y="505" text-anchor="middle" fill="#172033" font-family="ui-rounded, 'Comic Sans MS', sans-serif" font-size="15" font-weight="700">Ingest</text><text x="448" y="505" text-anchor="middle" fill="#172033" font-family="ui-rounded, 'Comic Sans MS', sans-serif" font-size="15" font-weight="700">Transform</text><text x="712" y="505" text-anchor="middle" fill="#172033" font-family="ui-rounded, 'Comic Sans MS', sans-serif" font-size="15" font-weight="700">Publish</text><text x="979" y="96" text-anchor="start" fill="#172033" font-family="ui-rounded, 'Comic Sans MS', sans-serif" font-size="15" font-weight="700">Pipeline</text><text x="1030" y="210.875" text-anchor="middle" fill="#172033" font-family="ui-rounded, 'Comic Sans MS', sans-serif" font-size="15" font-weight="700">Ingest</text><text x="1030" y="474.875" text-anchor="middle" fill="#172033" font-family="ui-rounded, 'Comic Sans MS', sans-serif" font-size="15" font-weight="700">Transform</text><text x="1030" y="738.875" text-anchor="middle" fill="#172033" font-family="ui-rounded, 'Comic Sans MS', sans-serif" font-size="15" font-weight="700">Publish</text><text x="1362.25" y="490.875" text-anchor="middle" fill="#172033" font-family="ui-rounded, 'Comic Sans MS', sans-serif" font-size="15" font-weight="700">Monitor</text></g>
</svg>