<?xml version="1.0" encoding="UTF-8"?>
<svg xmlns="http://www.w3.org/2000/svg" width="1038" height="659" viewBox="0 0 1038 659" role="img" aria-label="grammar-coverage">
  <title>grammar-coverage</title>
  <desc>Kvísl layouter prototype preview</desc>
  <rect width="100%" height="100%" fill="#ffffff"/>
  <g id="boundaries"><rect x="52" y="269.125" width="474.75" height="120.5" rx="14" fill="#f8fafc" stroke="#7b8794" stroke-width="2"/><rect x="610.75" y="52" width="164.5" height="554.75" rx="14" fill="#f8fafc" stroke="#7b8794" stroke-width="2"/><rect x="632.75" y="74" width="120.5" height="474.75" rx="14" fill="#f8fafc" stroke="#7b8794" stroke-width="2"/></g>
  <g id="corridor-dividers"></g>
  <g id="lines"><g data-line="$line-1"><polyline points="176.25,343.5 220.25,343.5" fill="none" stroke="#2563eb" stroke-width="2" stroke-linejoin="round" stroke-linecap="round"/><path d="M 208.25 349.5 L 220.25 343.5 L 208.25 337.5" fill="none" stroke="#2563eb" stroke-width="2" stroke-linejoin="round"/></g><g data-line="$line-2"><polyline points="322.5,339.47916666666663 366.5,339.47916666666663" fill="none" stroke="#2563eb" stroke-width="2" stroke-linejoin="round" stroke-linecap="round"/><path d="M 354.5 345.47916666666663 L 366.5 339.47916666666663 L 354.5 333.47916666666663" fill="none" stroke="#2563eb" stroke-width="2" stroke-linejoin="round"/></g><g data-line="$line-3"><polyline points="678.875,198.25 678.875,242.25" fill="none" stroke="#2563eb" stroke-width="2" stroke-linejoin="round" stroke-linecap="round"/><path d="M 672.875 230.25 L 678.875 242.25 L 684.875 230.25" fill="none" stroke="#2563eb" stroke-width="2" stroke-linejoin="round"/></g><g data-line="$line-4"><polyline points="678.875,344.5 678.875,388.5" fill="none" stroke="#2563eb" stroke-width="2" stroke-linejoin="round" stroke-linecap="round"/><path d="M 672.875 376.5 L 678.875 388.5 L 684.875 376.5" fill="none" stroke="#2563eb" stroke-width="2" stroke-linejoin="round"/></g><g data-line="probe-upright"><polyline points="883.25,293.225 847.25,293.225 847.25,72 574.75,72 574.75,322.3833333333333 492.75,322.3833333333333 492.75,295.375 342.5,295.375 342.5,351.5416666666667 322.5,351.5416666666667" fill="none" stroke="#6b7280" stroke-width="2" stroke-linejoin="round" stroke-linecap="round" stroke-dasharray="10 7"/><path d="M 334.5 345.5416666666667 L 322.5 351.5416666666667 L 334.5 357.5416666666667" fill="none" stroke="#6b7280" stroke-width="2" stroke-linejoin="round"/></g><g data-line="probe-rotated"><polyline points="883.25,305.35 703,305.35" fill="none" stroke="#6b7280" stroke-width="2" stroke-linejoin="round" stroke-linecap="round" stroke-dasharray="10 7"/><path d="M 715 299.35 L 703 305.35 L 715 311.35" fill="none" stroke="#6b7280" stroke-width="2" stroke-linejoin="round"/></g><g data-line="audit-upright"><polyline points="468.75,342.4625 883.25,342.4625" fill="none" stroke="#2563eb" stroke-width="2" stroke-linejoin="round" stroke-linecap="round"/><path d="M 871.25 348.4625 L 883.25 342.4625 L 871.25 336.4625" fill="none" stroke="#2563eb" stroke-width="2" stroke-linejoin="round"/></g><g data-line="audit-rotated"><polyline points="678.875,490.75 678.875,504.75 811.25,504.75 811.25,365.525 883.25,365.525" fill="none" stroke="#2563eb" stroke-width="2" stroke-linejoin="round" stroke-linecap="round"/><path d="M 871.25 371.525 L 883.25 365.525 L 871.25 359.525" fill="none" stroke="#2563eb" stroke-width="2" stroke-linejoin="round"/></g></g>
  <g id="objects"><rect x="74" y="319.375" width="102.25" height="48.25" rx="14" fill="#ffffff" stroke="#172033" stroke-width="2"/><rect x="220.25" y="319.375" width="102.25" height="48.25" rx="14" fill="#ffffff" stroke="#172033" stroke-width="2"/><rect x="366.5" y="319.375" width="102.25" height="48.25" rx="14" fill="#ffffff" stroke="#172033" stroke-width="2"/><rect x="654.75" y="96" width="48.25" height="102.25" rx="14" fill="#ffffff" stroke="#172033" stroke-width="2"/><rect x="654.75" y="242.25" width="48.25" height="102.25" rx="14" fill="#ffffff" stroke="#172033" stroke-width="2"/><rect x="654.75" y="388.5" width="48.25" height="102.25" rx="14" fill="#ffffff" stroke="#172033" stroke-width="2"/><rect x="883.25" y="269.125" width="102.25" height="120.5" rx="14" fill="#ffffff" stroke="#172033" stroke-width="2"/></g>
  <g id="ports"></g>
  <g id="text"><text x="65" y="291.125" text-anchor="start" fill="#172033" font-family="ui-rounded, 'Comic Sans MS', sans-serif" font-size="15" font-weight="700">Pipeline</text><text x="125.125" y="348.375" text-anchor="middle" fill="#172033" font-family="ui-rounded, 'Comic Sans MS', sans-serif" font-size="15" font-weight="700">Ingest</text><text x="271.375" y="348.375" text-anchor="middle" fill="#172033" font-family="ui-rounded, 'Comic Sans MS', sans-serif" font-size="15" font-weight="700">Transform</text><text x="417.625" y="348.375" text-anchor="middle" fill="#172033" font-family="ui-rounded, 'Comic Sans MS', sans-serif" font-size="15" font-weight="700">Publish</text><text x="645.75" y="96" text-anchor="start" fill="#172033" font-family="ui-rounded, 'Comic Sans MS', sans-serif" font-size="15" font-weight="700">Pipeline</text><text x="678.875" y="152" text-anchor="middle" fill="#172033" font-family="ui-rounded, 'Comic Sans MS', sans-serif" font-size="15" font-weight="700">Ingest</text><text x="678.875" y="298.25" text-anchor="middle" fill="#172033" font-family="ui-rounded, 'Comic Sans MS', sans-serif" font-size="15" font-weight="700">Transform</text><text x="678.875" y="444.5" text-anchor="middle" fill="#172033" font-family="ui-rounded, 'Comic Sans MS', sans-serif" font-size="15" font-weight="700">Publish</text><text x="934.375" y="334.25" text-anchor="middle" fill="#172033" font-family="ui-rounded, 'Comic Sans MS', sans-serif" font-size="15" font-weight="700">Monitor</text></g>
</svg>