<?xml version="1.0" encoding="UTF-8"?>
<svg xmlns="http://www.w3.org/2000/svg" width="1223" height="1036" viewBox="0 0 1223 1036" role="img" aria-label="machine-thought-os">
  <title>machine-thought-os</title>
  <desc>Kvísl layouter prototype preview</desc>
  <rect width="100%" height="100%" fill="#ffffff"/>
  <g id="boundaries"><rect x="52" y="171.5" width="772" height="156.75" rx="14" fill="#e5f2ff" stroke="#cae5fb" stroke-width="2"/><rect x="52" y="386.25" width="1118.5" height="597.25" rx="14" fill="#f8fafc" stroke="#4b5563" stroke-width="2"/><rect x="600.5" y="452.5" width="296" height="229.25" rx="14" fill="#f8fafc" stroke="#2a9d45" stroke-width="2" stroke-dasharray="10 7"/></g>
  <g id="corridor-dividers"><path d="M 52 357.25 L 1170.5 357.25" fill="none" stroke="#ea580c" stroke-width="2" stroke-dasharray="10 7"/><text x="1162.5" y="349.25" text-anchor="end" font-family="ui-rounded, sans-serif" font-size="13" fill="#ea580c">SYSTEM-CALL BOUNDARY</text></g>
  <g id="lines"><g data-line="$line-1"><polyline points="294,256 340,256" fill="none" stroke="#1674c8" stroke-width="2" stroke-linejoin="round" stroke-linecap="round"/><path d="M 328 262 L 340 256 L 328 250" fill="none" stroke="#1674c8" stroke-width="2" stroke-linejoin="round"/></g><g data-line="$line-2"><polyline points="305.25,496.875 348.5,496.875" fill="none" stroke="#172033" stroke-width="2" stroke-linejoin="round" stroke-linecap="round"/><path d="M 336.5 502.875 L 348.5 496.875 L 336.5 490.875" fill="none" stroke="#172033" stroke-width="2" stroke-linejoin="round"/></g><g data-line="schedule-child-a"><polyline points="568.5,496.875 618.5,496.875 624.5,496.875 624.5,525.5833333333334 638.5,525.5833333333334" fill="none" stroke="#2a9d45" stroke-width="2" stroke-linejoin="round" stroke-linecap="round"/><path d="M 626.5 531.5833333333334 L 638.5 525.5833333333334 L 626.5 519.5833333333334" fill="none" stroke="#2a9d45" stroke-width="2" stroke-linejoin="round"/></g><g data-line="schedule-child-b"><polyline points="568.5,496.875 618.5,496.875 624.5,496.875 624.5,614.0833333333334 638.5,614.0833333333334" fill="none" stroke="#2a9d45" stroke-width="2" stroke-linejoin="round" stroke-linecap="round"/><path d="M 626.5 620.0833333333334 L 638.5 614.0833333333334 L 626.5 608.0833333333334" fill="none" stroke="#2a9d45" stroke-width="2" stroke-linejoin="round"/></g><g data-line="schedule-child-c"><polyline points="568.5,496.875 618.5,496.875 624.5,496.875 624.5,731.3333333333334 638.5,731.3333333333334" fill="none" stroke="#2a9d45" stroke-width="2" stroke-linejoin="round" stroke-linecap="round" stroke-dasharray="10 7"/><path d="M 626.5 737.3333333333334 L 638.5 731.3333333333334 L 626.5 725.3333333333334" fill="none" stroke="#2a9d45" stroke-width="2" stroke-linejoin="round"/></g><g data-line="state-child-a"><polyline points="316.5,595.5 316.5,587.5 624.5,587.5 638.5,587.5 638.5,548.4166666666666" fill="none" stroke="#1674c8" stroke-width="2" stroke-linejoin="round" stroke-linecap="round" stroke-dasharray="10 7"/><path d="M 644.5 560.4166666666666 L 638.5 548.4166666666666 L 632.5 560.4166666666666" fill="none" stroke="#1674c8" stroke-width="2" stroke-linejoin="round"/></g><g data-line="state-child-b"><polyline points="316.5,595.5 624.5,595.5 638.5,595.5 638.5,636.9166666666666" fill="none" stroke="#1674c8" stroke-width="2" stroke-linejoin="round" stroke-linecap="round" stroke-dasharray="10 7"/><path d="M 632.5 624.9166666666666 L 638.5 636.9166666666666 L 644.5 624.9166666666666" fill="none" stroke="#1674c8" stroke-width="2" stroke-linejoin="round"/></g><g data-line="state-child-c"><polyline points="316.5,595.5 316.5,603.5 330.5,603.5 330.5,760.9166666666666 638.5,760.9166666666666" fill="none" stroke="#ea580c" stroke-width="2" stroke-linejoin="round" stroke-linecap="round" stroke-dasharray="10 7"/><path d="M 626.5 766.9166666666666 L 638.5 760.9166666666666 L 626.5 754.9166666666666" fill="none" stroke="#ea580c" stroke-width="2" stroke-linejoin="round"/></g><g data-line="join-child-a"><polyline points="858.5,537 878.5,537 878.5,486.75 928.5,486.75" fill="none" stroke="#7048e8" stroke-width="2" stroke-linejoin="round" stroke-linecap="round"/><path d="M 916.5 492.75 L 928.5 486.75 L 916.5 480.75" fill="none" stroke="#7048e8" stroke-width="2" stroke-linejoin="round"/></g><g data-line="join-child-b"><polyline points="858.5,625.5 878.5,625.5 878.5,486.75 928.5,486.75" fill="none" stroke="#7048e8" stroke-width="2" stroke-linejoin="round" stroke-linecap="round"/><path d="M 916.5 492.75 L 928.5 486.75 L 916.5 480.75" fill="none" stroke="#7048e8" stroke-width="2" stroke-linejoin="round"/></g><g data-line="join-child-c"><polyline points="858.5,746.125 878.5,746.125 878.5,486.75 928.5,486.75" fill="none" stroke="#7048e8" stroke-width="2" stroke-linejoin="round" stroke-linecap="round" stroke-dasharray="10 7"/><path d="M 916.5 492.75 L 928.5 486.75 L 916.5 480.75" fill="none" stroke="#7048e8" stroke-width="2" stroke-linejoin="round"/></g><g data-line="fork-system-call"><polyline points="450,290.25 450,351.25 450,438.5 195.25,438.5 195.25,452.5" fill="none" stroke="#ea580c" stroke-width="2" stroke-linejoin="round" stroke-linecap="round"/><path d="M 189.25 440.5 L 195.25 452.5 L 201.25 440.5" fill="none" stroke="#ea580c" stroke-width="2" stroke-linejoin="round"/></g><g data-line="resume-parent"><polyline points="1038.5,452.5 1038.5,363.25 692,363.25 692,290.25" fill="none" stroke="#7048e8" stroke-width="2" stroke-linejoin="round" stroke-linecap="round"/><path d="M 698 302.25 L 692 290.25 L 686 302.25" fill="none" stroke="#7048e8" stroke-width="2" stroke-linejoin="round"/></g></g>
  <g id="objects"><rect x="74" y="221.75" width="220" height="68.5" rx="14" fill="#cae5fb" stroke="#1674c8" stroke-width="2"/><rect x="340" y="221.75" width="220" height="68.5" rx="14" fill="#fff4c7" stroke="#ea580c" stroke-width="2"/><rect x="582" y="221.75" width="220" height="68.5" rx="14" fill="#e3f8e7" stroke="#2a9d45" stroke-width="2"/><rect x="85.25" y="452.5" width="220" height="88.75" rx="14" fill="#cae5fb" stroke="#1674c8" stroke-width="2"/><rect x="348.5" y="452.5" width="220" height="88.75" rx="14" fill="#fff0df" stroke="#ea580c" stroke-width="2"/><rect x="638.5" y="502.75" width="220" height="68.5" rx="14" fill="#e3f8e7" stroke="#2a9d45" stroke-width="2"/><rect x="638.5" y="591.25" width="220" height="68.5" rx="14" fill="#e3f8e7" stroke="#2a9d45" stroke-width="2"/><rect x="638.5" y="701.75" width="220" height="88.75" rx="14" fill="#fff4c7" stroke="#ea580c" stroke-width="2" stroke-dasharray="10 7"/><rect x="928.5" y="452.5" width="220" height="68.5" rx="14" fill="#e2d7ff" stroke="#7048e8" stroke-width="2"/><rect x="74" y="561.25" width="242.5" height="68.5" rx="14" fill="#cae5fb" stroke="#1674c8" stroke-width="2"/></g>
  <g id="ports"></g>
  <g id="text"><text x="52" y="84" text-anchor="start" fill="#172033" font-family="ui-rounded, 'Comic Sans MS', sans-serif" font-size="32" font-weight="700">An operating system for machine thought</text><text x="52" y="139.2" text-anchor="start" fill="#172033" font-family="ui-rounded, 'Comic Sans MS', sans-serif" font-size="18" font-weight="450">The thinking model requests parallelism. The inference engine decides when it runs.</text><text x="65" y="193.5" text-anchor="start" fill="#cae5fb" font-family="ui-rounded, 'Comic Sans MS', sans-serif" font-size="15" font-weight="700">THINKING MODEL · USER MODE</text><text x="184" y="250.75" text-anchor="middle" fill="#1674c8" font-family="ui-rounded, 'Comic Sans MS', sans-serif" font-size="15" font-weight="450">Parent completion</text><text x="184" y="271" text-anchor="middle" fill="#1674c8" font-family="ui-rounded, 'Comic Sans MS', sans-serif" font-size="15" font-weight="450">shared history</text><text x="450" y="250.75" text-anchor="middle" fill="#ea580c" font-family="ui-rounded, 'Comic Sans MS', sans-serif" font-size="15" font-weight="450">&lt;Parallel&gt;</text><text x="450" y="271" text-anchor="middle" fill="#ea580c" font-family="ui-rounded, 'Comic Sans MS', sans-serif" font-size="15" font-weight="450">system call: fork</text><text x="692" y="250.75" text-anchor="middle" fill="#2a9d45" font-family="ui-rounded, 'Comic Sans MS', sans-serif" font-size="15" font-weight="450">Parent resumes</text><text x="692" y="271" text-anchor="middle" fill="#2a9d45" font-family="ui-rounded, 'Comic Sans MS', sans-serif" font-size="15" font-weight="450">&lt;Conclusion&gt;</text><text x="65" y="408.25" text-anchor="start" fill="#4b5563" font-family="ui-rounded, 'Comic Sans MS', sans-serif" font-size="15" font-weight="700">SGLANG · INFERENCE ENGINE / KERNEL</text><text x="195.25" y="481.5" text-anchor="middle" fill="#1674c8" font-family="ui-rounded, 'Comic Sans MS', sans-serif" font-size="15" font-weight="450">Interpreter</text><text x="195.25" y="501.75" text-anchor="middle" fill="#1674c8" font-family="ui-rounded, 'Comic Sans MS', sans-serif" font-size="15" font-weight="450">creates child</text><text x="195.25" y="522" text-anchor="middle" fill="#1674c8" font-family="ui-rounded, 'Comic Sans MS', sans-serif" font-size="15" font-weight="450">requests</text><text x="458.5" y="481.5" text-anchor="middle" fill="#ea580c" font-family="ui-rounded, 'Comic Sans MS', sans-serif" font-size="15" font-weight="450">TAPER scheduler</text><text x="458.5" y="501.75" text-anchor="middle" fill="#ea580c" font-family="ui-rounded, 'Comic Sans MS', sans-serif" font-size="15" font-weight="450">admit per forward</text><text x="458.5" y="522" text-anchor="middle" fill="#ea580c" font-family="ui-rounded, 'Comic Sans MS', sans-serif" font-size="15" font-weight="450">pass</text><text x="613.5" y="474.5" text-anchor="start" fill="#2a9d45" font-family="ui-rounded, 'Comic Sans MS', sans-serif" font-size="15" font-weight="700">NEXT GPU FORWARD PASS</text><text x="748.5" y="531.75" text-anchor="middle" fill="#2a9d45" font-family="ui-rounded, 'Comic Sans MS', sans-serif" font-size="15" font-weight="450">Child A</text><text x="748.5" y="552" text-anchor="middle" fill="#2a9d45" font-family="ui-rounded, 'Comic Sans MS', sans-serif" font-size="15" font-weight="450">running</text><text x="748.5" y="620.25" text-anchor="middle" fill="#2a9d45" font-family="ui-rounded, 'Comic Sans MS', sans-serif" font-size="15" font-weight="450">Child B</text><text x="748.5" y="640.5" text-anchor="middle" fill="#2a9d45" font-family="ui-rounded, 'Comic Sans MS', sans-serif" font-size="15" font-weight="450">running</text><text x="748.5" y="730.75" text-anchor="middle" fill="#ea580c" font-family="ui-rounded, 'Comic Sans MS', sans-serif" font-size="15" font-weight="450">Child C</text><text x="748.5" y="751" text-anchor="middle" fill="#ea580c" font-family="ui-rounded, 'Comic Sans MS', sans-serif" font-size="15" font-weight="450">ready, deferred this</text><text x="748.5" y="771.25" text-anchor="middle" fill="#ea580c" font-family="ui-rounded, 'Comic Sans MS', sans-serif" font-size="15" font-weight="450">pass</text><text x="1038.5" y="481.5" text-anchor="middle" fill="#7048e8" font-family="ui-rounded, 'Comic Sans MS', sans-serif" font-size="15" font-weight="450">wait()</text><text x="1038.5" y="501.75" text-anchor="middle" fill="#7048e8" font-family="ui-rounded, 'Comic Sans MS', sans-serif" font-size="15" font-weight="450">join KV views</text><text x="195.25" y="590.25" text-anchor="middle" fill="#1674c8" font-family="ui-rounded, 'Comic Sans MS', sans-serif" font-size="15" font-weight="450">Shared prefix KV blocks</text><text x="195.25" y="610.5" text-anchor="middle" fill="#1674c8" font-family="ui-rounded, 'Comic Sans MS', sans-serif" font-size="15" font-weight="450">+ small branch-local state</text><text x="748.5" y="421.25" text-anchor="middle" fill="#172033" font-family="ui-rounded, 'Comic Sans MS', sans-serif" font-size="15" font-weight="450">continuous batching · radix KV cache</text><text x="611.25" y="932" text-anchor="middle" fill="#172033" font-family="ui-rounded, 'Comic Sans MS', sans-serif" font-size="15" font-weight="450">Model chooses the work graph. Engine chooses</text><text x="611.25" y="952.25" text-anchor="middle" fill="#172033" font-family="ui-rounded, 'Comic Sans MS', sans-serif" font-size="15" font-weight="450">the schedule.</text></g>
</svg>