<?xml version="1.0" encoding="UTF-8"?>
<svg xmlns="http://www.w3.org/2000/svg" width="895" height="663" viewBox="0 0 895 663" role="img" aria-label="uml-deployment-example">
  <title>uml-deployment-example</title>
  <desc>Kvísl layouter prototype preview</desc>
  <rect width="100%" height="100%" fill="#ffffff"/>
  <g id="boundaries"><g><rect x="52" y="295.7" width="179.25" height="140.75" rx="6" fill="#f8fafc" stroke="#7b8794" stroke-width="2"/><path d="M 60 303.7 L 70 293.7 H 239.25 V 426.45 L 231.25 436.45" fill="none" stroke="#26364a" stroke-width="2"/></g><g><rect x="287.25" y="121.2" width="320.25" height="489.75000000000006" rx="6" fill="#f8fafc" stroke="#7b8794" stroke-width="2"/><path d="M 295.25 129.2 L 305.25 119.2 H 615.5 V 600.95 L 607.5 610.95" fill="none" stroke="#26364a" stroke-width="2"/></g><g><rect x="663.5" y="295.7" width="179.25" height="140.75" rx="6" fill="#f8fafc" stroke="#7b8794" stroke-width="2"/><path d="M 671.5 303.7 L 681.5 293.7 H 850.75 V 426.45 L 842.75 436.45" fill="none" stroke="#26364a" stroke-width="2"/></g><g><rect x="325.25" y="171.45" width="244.25" height="251" rx="6" fill="#f8fafc" stroke="#7b8794" stroke-width="2"/><path d="M 333.25 179.45 L 343.25 169.45 H 577.5 V 412.45 L 569.5 422.45" fill="none" stroke="#26364a" stroke-width="2"/></g><g><rect x="325.25" y="468.45" width="244.25" height="120.50000000000006" rx="6" fill="#f8fafc" stroke="#7b8794" stroke-width="2"/><path d="M 333.25 476.45 L 343.25 466.45 H 577.5 V 578.95 L 569.5 588.95" fill="none" stroke="#26364a" stroke-width="2"/></g></g>
  <g id="corridor-dividers"></g>
  <g id="lines"><g data-line="browser-checkout"><polyline points="231.25,366.075 259.25,366.075 259.25,245.825 363.25,245.825" fill="none" stroke="#334155" stroke-width="2" stroke-linejoin="round" stroke-linecap="round"/></g><g data-line="checkout-inventory"><polyline points="419.3333333333333,269.95 419.3333333333333,283.95 309.25,283.95 309.25,392.45 419.3333333333333,392.45 419.3333333333333,445.45 349.25,445.45 349.25,468.45 309.25,468.45 309.25,542.825 363.25,542.825" fill="none" stroke="#334155" stroke-width="2" stroke-linejoin="round" stroke-linecap="round"/></g><g data-line="checkout-database"><polyline points="531.5,245.825 635.5,245.825 635.5,366.075 663.5,366.075" fill="none" stroke="#334155" stroke-width="2" stroke-linejoin="round" stroke-linecap="round"/></g><g data-line="image-deploys-checkout"><polyline points="461.3958333333333,315.95 461.3958333333333,269.95" fill="none" stroke="#334155" stroke-width="2" stroke-linejoin="round" stroke-linecap="round"/><path d="M 467.3958333333333 281.95 L 461.3958333333333 269.95 L 455.3958333333333 281.95" fill="none" stroke="#334155" stroke-width="2" stroke-linejoin="round"/></g></g>
  <g id="objects"><g><rect x="74" y="345.95" width="135.25" height="68.5" rx="5" fill="#ffffff" stroke="#26364a" stroke-width="2"/><path d="M 189.25 345.95 V 365.95 H 209.25" fill="none" stroke="#26364a" stroke-width="2"/></g><g><rect x="363.25" y="221.7" width="168.25" height="48.25" rx="7" fill="#ffffff" stroke="#26364a" stroke-width="2"/><rect x="358.25" y="235.7" width="18" height="10" fill="white" stroke="#26364a"/><rect x="358.25" y="252.7" width="18" height="10" fill="white" stroke="#26364a"/></g><g><rect x="379.75" y="315.95" width="135.25" height="68.5" rx="5" fill="#ffffff" stroke="#26364a" stroke-width="2"/><path d="M 495 315.95 V 335.95 H 515" fill="none" stroke="#26364a" stroke-width="2"/></g><g><rect x="363.25" y="518.7" width="168.25" height="48.25000000000006" rx="7" fill="#ffffff" stroke="#26364a" stroke-width="2"/><rect x="358.25" y="532.7" width="18" height="10" fill="white" stroke="#26364a"/><rect x="358.25" y="549.7" width="18" height="10" fill="white" stroke="#26364a"/></g><g><rect x="685.5" y="345.95" width="135.25" height="68.5" rx="5" fill="#ffffff" stroke="#26364a" stroke-width="2"/><path d="M 800.75 345.95 V 365.95 H 820.75" fill="none" stroke="#26364a" stroke-width="2"/></g></g>
  <g id="ports"><rect x="358.25" y="240.825" width="10" height="10" fill="white" stroke="#334155" stroke-width="2"/><rect x="358.25" y="537.825" width="10" height="10" fill="white" stroke="#334155" stroke-width="2"/></g>
  <g id="text"><text x="52" y="84" text-anchor="start" fill="#172033" font-family="ui-rounded, 'Comic Sans MS', sans-serif" font-size="32" font-weight="700">Production checkout — deployment diagram</text><text x="65" y="317.7" text-anchor="start" fill="#172033" font-family="ui-rounded, 'Comic Sans MS', sans-serif" font-size="15" font-weight="700">Customer Browser</text><text x="141.625" y="374.95" text-anchor="middle" fill="#172033" font-family="ui-rounded, 'Comic Sans MS', sans-serif" font-size="15" font-weight="450">«artifact»</text><text x="141.625" y="395.2" text-anchor="middle" fill="#172033" font-family="ui-rounded, 'Comic Sans MS', sans-serif" font-size="15" font-weight="450">checkout.js</text><text x="300.25" y="143.2" text-anchor="start" fill="#172033" font-family="ui-rounded, 'Comic Sans MS', sans-serif" font-size="15" font-weight="700">Production Cluster</text><text x="338.25" y="193.45" text-anchor="start" fill="#172033" font-family="ui-rounded, 'Comic Sans MS', sans-serif" font-size="15" font-weight="700">checkout-7f9d</text><text x="447.375" y="250.7" text-anchor="middle" fill="#172033" font-family="ui-rounded, 'Comic Sans MS', sans-serif" font-size="15" font-weight="450">Checkout Service</text><text x="447.375" y="344.95" text-anchor="middle" fill="#172033" font-family="ui-rounded, 'Comic Sans MS', sans-serif" font-size="15" font-weight="450">«artifact»</text><text x="447.375" y="365.2" text-anchor="middle" fill="#172033" font-family="ui-rounded, 'Comic Sans MS', sans-serif" font-size="15" font-weight="450">checkout:v42</text><text x="338.25" y="490.45" text-anchor="start" fill="#172033" font-family="ui-rounded, 'Comic Sans MS', sans-serif" font-size="15" font-weight="700">inventory-55c8</text><text x="447.375" y="547.7" text-anchor="middle" fill="#172033" font-family="ui-rounded, 'Comic Sans MS', sans-serif" font-size="15" font-weight="450">Inventory Service</text><text x="676.5" y="317.7" text-anchor="start" fill="#172033" font-family="ui-rounded, 'Comic Sans MS', sans-serif" font-size="15" font-weight="700">PostgreSQL</text><text x="753.125" y="374.95" text-anchor="middle" fill="#172033" font-family="ui-rounded, 'Comic Sans MS', sans-serif" font-size="15" font-weight="450">«artifact»</text><text x="753.125" y="395.2" text-anchor="middle" fill="#172033" font-family="ui-rounded, 'Comic Sans MS', sans-serif" font-size="15" font-weight="450">orders schema</text><g data-line-label="browser-checkout"><text x="311.25" y="111.19999999999999" text-anchor="middle" font-family="ui-rounded, sans-serif" font-size="13" fill="#334155" stroke="#ffffff" stroke-opacity=".92" stroke-width="3.5" stroke-linejoin="round" paint-order="stroke fill">HTTPS</text></g><g data-line-label="checkout-inventory"><text x="364.29166666666663" y="306.95" text-anchor="middle" font-family="ui-rounded, sans-serif" font-size="13" fill="#334155" stroke="#ffffff" stroke-opacity=".92" stroke-width="3.5" stroke-linejoin="round" paint-order="stroke fill">gRPC</text></g><g data-line-label="checkout-database"><text x="557.5" y="143.825" text-anchor="middle" font-family="ui-rounded, sans-serif" font-size="13" fill="#334155" stroke="#ffffff" stroke-opacity=".92" stroke-width="3.5" stroke-linejoin="round" paint-order="stroke fill">TCP / SQL</text></g><g data-line-label="image-deploys-checkout"><text x="495.5958333333333" y="297.95" text-anchor="middle" font-family="ui-rounded, sans-serif" font-size="13" fill="#334155" stroke="#ffffff" stroke-opacity=".92" stroke-width="3.5" stroke-linejoin="round" paint-order="stroke fill">deploy</text></g></g>
</svg>