<?xml version="1.0" encoding="UTF-8"?>
<svg xmlns="http://www.w3.org/2000/svg" width="707" height="698" viewBox="0 0 707 698" role="img" aria-label="uml-package-example">
  <title>uml-package-example</title>
  <desc>Kvísl layouter prototype preview</desc>
  <rect width="100%" height="100%" fill="#ffffff"/>
  <g id="boundaries"><path d="M 52 145.2 V 456.7 H 291.75 V 145.2 H 156.4 L 146.4 121.2 H 52 Z" fill="#f8fafc" stroke="#7b8794" stroke-width="2"/><path d="M 339.75 145.2 V 277.95 H 535.5 V 145.2 H 453.45 L 443.45 121.2 H 339.75 Z" fill="#f8fafc" stroke="#7b8794" stroke-width="2"/><path d="M 64.375 512.7 V 645.45 H 279.375 V 512.7 H 168.775 L 158.775 488.7 H 64.375 Z" fill="#f8fafc" stroke="#7b8794" stroke-width="2"/><path d="M 352.125 512.7 V 645.45 H 523.125 V 512.7 H 471.825 L 461.825 488.7 H 352.125 Z" fill="#f8fafc" stroke="#7b8794" stroke-width="2"/><path d="M 74 301.95 V 434.7 H 269.75 V 301.95 H 206.3 L 196.3 277.95 H 74 Z" fill="#f8fafc" stroke="#7b8794" stroke-width="2"/></g>
  <g id="corridor-dividers"></g>
  <g id="lines"><g data-line="checkout-inventory"><polyline points="291.75,229.70714285714286 339.75,229.70714285714286" fill="none" stroke="#334155" stroke-width="2" stroke-linejoin="round" stroke-linecap="round"/><path d="M 327.75 235.70714285714286 L 339.75 229.70714285714286 L 327.75 223.70714285714286" fill="none" stroke="#334155" stroke-width="2" stroke-linejoin="round"/></g><g data-line="checkout-payments"><polyline points="250.65,456.7 250.65,470.7 250.65,488.7" fill="none" stroke="#334155" stroke-width="2" stroke-linejoin="round" stroke-linecap="round"/><path d="M 244.65 476.7 L 250.65 488.7 L 256.65 476.7" fill="none" stroke="#334155" stroke-width="2" stroke-linejoin="round"/></g><g data-line="checkout-shared"><polyline points="264.35,456.7 264.35,476.7 437.625,476.7 437.625,474.7 437.625,488.7" fill="none" stroke="#334155" stroke-width="2" stroke-linejoin="round" stroke-linecap="round"/><path d="M 431.625 476.7 L 437.625 488.7 L 443.625 476.7" fill="none" stroke="#334155" stroke-width="2" stroke-linejoin="round"/></g><g data-line="payments-shared"><polyline points="279.375,537.9642857142858 352.125,537.9642857142858" fill="none" stroke="#334155" stroke-width="2" stroke-linejoin="round" stroke-linecap="round"/><path d="M 340.125 543.9642857142858 L 352.125 537.9642857142858 L 340.125 531.9642857142858" fill="none" stroke="#334155" stroke-width="2" stroke-linejoin="round"/></g></g>
  <g id="objects"><rect x="96" y="171.45" width="151.75" height="84.5" rx="2" fill="#ffffff" stroke="#26364a" stroke-width="2"/><rect x="96" y="328.2" width="151.75" height="84.5" rx="2" fill="#ffffff" stroke="#26364a" stroke-width="2"/><rect x="361.75" y="171.45" width="151.75" height="84.5" rx="2" fill="#ffffff" stroke="#26364a" stroke-width="2"/><rect x="86.375" y="538.95" width="151.75" height="84.5" rx="2" fill="#ffffff" stroke="#26364a" stroke-width="2"/><rect x="374.125" y="538.95" width="72" height="84.5" rx="2" fill="#ffffff" stroke="#26364a" stroke-width="2"/></g>
  <g id="ports"></g>
  <g id="text"><text x="52" y="84" text-anchor="start" fill="#172033" font-family="ui-rounded, 'Comic Sans MS', sans-serif" font-size="32" font-weight="700">Commerce modules — package diagram</text><text x="65" y="138.2" text-anchor="start" fill="#172033" font-family="ui-rounded, 'Comic Sans MS', sans-serif" font-size="15" font-weight="700">checkout</text><text x="109" y="218.575" text-anchor="start" fill="#172033" font-family="ui-rounded, 'Comic Sans MS', sans-serif" font-size="15" font-weight="700">CheckoutService</text><path d="M 97 226.825 H 246.75" stroke="#26364a" stroke-width="1"/><path d="M 97 226.825 H 246.75" stroke="#26364a" stroke-width="1"/><text x="87" y="294.95" text-anchor="start" fill="#172033" font-family="ui-rounded, 'Comic Sans MS', sans-serif" font-size="15" font-weight="700">application</text><text x="109" y="375.325" text-anchor="start" fill="#172033" font-family="ui-rounded, 'Comic Sans MS', sans-serif" font-size="15" font-weight="700">PlaceOrder</text><path d="M 97 383.575 H 246.75" stroke="#26364a" stroke-width="1"/><path d="M 97 383.575 H 246.75" stroke="#26364a" stroke-width="1"/><text x="352.75" y="138.2" text-anchor="start" fill="#172033" font-family="ui-rounded, 'Comic Sans MS', sans-serif" font-size="15" font-weight="700">inventory</text><text x="374.75" y="208.45" text-anchor="start" fill="#172033" font-family="ui-rounded, 'Comic Sans MS', sans-serif" font-size="15" font-weight="450">«interface»</text><text x="374.75" y="228.7" text-anchor="start" fill="#172033" font-family="ui-rounded, 'Comic Sans MS', sans-serif" font-size="15" font-weight="700">InventoryApi</text><path d="M 362.75 236.95 H 512.5" stroke="#26364a" stroke-width="1"/><path d="M 362.75 236.95 H 512.5" stroke="#26364a" stroke-width="1"/><text x="77.375" y="505.7" text-anchor="start" fill="#172033" font-family="ui-rounded, 'Comic Sans MS', sans-serif" font-size="15" font-weight="700">payments</text><text x="99.375" y="575.95" text-anchor="start" fill="#172033" font-family="ui-rounded, 'Comic Sans MS', sans-serif" font-size="15" font-weight="450">«interface»</text><text x="99.375" y="596.2" text-anchor="start" fill="#172033" font-family="ui-rounded, 'Comic Sans MS', sans-serif" font-size="15" font-weight="700">PaymentApi</text><path d="M 87.375 604.45 H 237.125" stroke="#26364a" stroke-width="1"/><path d="M 87.375 604.45 H 237.125" stroke="#26364a" stroke-width="1"/><text x="365.125" y="505.7" text-anchor="start" fill="#172033" font-family="ui-rounded, 'Comic Sans MS', sans-serif" font-size="15" font-weight="700">shared-kernel</text><text x="387.125" y="586.075" text-anchor="start" fill="#172033" font-family="ui-rounded, 'Comic Sans MS', sans-serif" font-size="15" font-weight="700">Money</text><path d="M 375.125 594.325 H 445.125" stroke="#26364a" stroke-width="1"/><path d="M 375.125 594.325 H 445.125" stroke="#26364a" stroke-width="1"/><g data-line-label="checkout-inventory"><text x="322.95" y="317.70714285714286" text-anchor="middle" font-family="ui-rounded, sans-serif" font-size="13" fill="#334155" stroke="#ffffff" stroke-opacity=".92" stroke-width="3.5" stroke-linejoin="round" paint-order="stroke fill">import</text></g><g data-line-label="checkout-payments"><text x="216.45" y="480.2" text-anchor="middle" font-family="ui-rounded, sans-serif" font-size="13" fill="#334155" stroke="#ffffff" stroke-opacity=".92" stroke-width="3.5" stroke-linejoin="round" paint-order="stroke fill">access</text></g><g data-line-label="checkout-shared"><text x="350.9875" y="463.7" text-anchor="middle" font-family="ui-rounded, sans-serif" font-size="13" fill="#334155" stroke="#ffffff" stroke-opacity=".92" stroke-width="3.5" stroke-linejoin="round" paint-order="stroke fill">import</text></g><g data-line-label="payments-shared"><text x="315.75" y="524.9642857142858" text-anchor="middle" font-family="ui-rounded, sans-serif" font-size="13" fill="#334155" stroke="#ffffff" stroke-opacity=".92" stroke-width="3.5" stroke-linejoin="round" paint-order="stroke fill">merge</text></g></g>
</svg>