<?xml version="1.0" encoding="UTF-8"?>
<svg xmlns="http://www.w3.org/2000/svg" width="1076" height="624" viewBox="0 0 1076 624" role="img" aria-label="uml-class-example">
  <title>uml-class-example</title>
  <desc>Kvísl layouter prototype preview</desc>
  <rect width="100%" height="100%" fill="#ffffff"/>
  <g id="boundaries"><path d="M 52 145.2 V 571.7 H 1023.2 V 145.2 H 128.5 L 118.5 121.2 H 52 Z" fill="#f8fafc" stroke="#7b8794" stroke-width="2"/></g>
  <g id="corridor-dividers"></g>
  <g id="lines"><g data-line="customer-orders"><polyline points="390.75,244.075 475.95,244.075" fill="none" stroke="#334155" stroke-width="2" stroke-linejoin="round" stroke-linecap="round"/></g><g data-line="order-items"><polyline points="539.3,316.7 539.3,330.7 451.95,330.7 451.95,157.45 912.95,157.45 912.95,171.45" fill="none" stroke="#334155" stroke-width="2" stroke-linejoin="round" stroke-linecap="round"/><polygon points="539.3,316.7 546.3,328.7 539.3,338.7 532.3,328.7" fill="#334155" stroke="#334155" stroke-width="2"/></g><g data-line="customer-payment-methods"><polyline points="266.3125,316.7 266.3125,348.7" fill="none" stroke="#334155" stroke-width="2" stroke-linejoin="round" stroke-linecap="round"/><polygon points="266.3125,316.7 273.3125,328.7 266.3125,338.7 259.3125,328.7" fill="white" stroke="#334155" stroke-width="2"/></g><g data-line="order-payment"><polyline points="792.7,219.86666666666665 806.7,219.86666666666665 806.7,340.7 314,340.7 314,380.825 300,380.825" fill="none" stroke="#334155" stroke-width="2" stroke-linejoin="round" stroke-linecap="round"/><path d="M 312 374.825 L 300 380.825 L 312 386.825" fill="none" stroke="#334155" stroke-width="2" stroke-linejoin="round"/></g><g data-line="credit-card-generalization"><polyline points="546.075,390.95 532.075,390.95 532.075,447.51 232.375,447.51 232.375,412.95" fill="none" stroke="#334155" stroke-width="2" stroke-linejoin="round" stroke-linecap="round"/><polygon points="232.375,412.95 240.375,424.95 224.375,424.95" fill="white" stroke="#334155" stroke-width="2"/></g><g data-line="paypal-generalization"><polyline points="824.7,390.95 810.7,390.95 810.7,447.51 232.375,447.51 232.375,412.95" fill="none" stroke="#334155" stroke-width="2" stroke-linejoin="round" stroke-linecap="round"/><polygon points="232.375,412.95 240.375,424.95 224.375,424.95" fill="white" stroke="#334155" stroke-width="2"/></g><g data-line="stripe-realization"><polyline points="546.075,507.45000000000005 390.75,507.45000000000005" fill="none" stroke="#334155" stroke-width="2" stroke-linejoin="round" stroke-linecap="round"/><polygon points="390.75,507.45000000000005 402.75,499.45000000000005 402.75,515.45" fill="white" stroke="#334155" stroke-width="2"/></g><g data-line="repository-dependency"><polyline points="792.7,268.2833333333333 812.7,268.2833333333333 812.7,507.45000000000005 810.7,507.45000000000005 824.7,507.45000000000005" fill="none" stroke="#334155" stroke-width="2" stroke-linejoin="round" stroke-linecap="round"/><path d="M 812.7 513.45 L 824.7 507.45000000000005 L 812.7 501.45000000000005" fill="none" stroke="#334155" stroke-width="2" stroke-linejoin="round"/></g></g>
  <g id="objects"><rect x="74" y="171.45" width="316.75" height="145.25" rx="2" fill="#ffffff" stroke="#26364a" stroke-width="2"/><rect x="475.95" y="171.45" width="316.75000000000006" height="145.25" rx="2" fill="#ffffff" stroke="#26364a" stroke-width="2"/><rect x="824.7" y="171.45" width="176.5" height="145.25" rx="2" fill="#ffffff" stroke="#26364a" stroke-width="2"/><rect x="164.75" y="348.7" width="135.25" height="64.25" rx="2" fill="#ffffff" stroke="#26364a" stroke-width="2"/><rect x="546.075" y="348.7" width="176.5" height="84.5" rx="2" fill="#ffffff" stroke="#26364a" stroke-width="2"/><rect x="824.7" y="348.7" width="176.5" height="84.5" rx="2" fill="#ffffff" stroke="#26364a" stroke-width="2"/><rect x="74" y="465.2" width="316.75" height="84.50000000000006" rx="2" fill="#ffffff" stroke="#26364a" stroke-width="2"/><rect x="546.075" y="465.2" width="176.5" height="84.50000000000006" rx="2" fill="#ffffff" stroke="#26364a" stroke-width="2"/><rect x="824.7" y="465.2" width="176.5" height="84.50000000000006" rx="2" fill="#ffffff" stroke="#26364a" stroke-width="2"/></g>
  <g id="ports"></g>
  <g id="text"><text x="52" y="84" text-anchor="start" fill="#172033" font-family="ui-rounded, 'Comic Sans MS', sans-serif" font-size="32" font-weight="700">Order domain — class diagram</text><text x="65" y="138.2" text-anchor="start" fill="#172033" font-family="ui-rounded, 'Comic Sans MS', sans-serif" font-size="15" font-weight="700">sales</text><text x="87" y="218.575" text-anchor="start" fill="#172033" font-family="ui-rounded, 'Comic Sans MS', sans-serif" font-size="15" font-weight="700">Customer</text><path d="M 75 226.825 H 389.75" stroke="#26364a" stroke-width="1"/><text x="87" y="242.825" text-anchor="start" fill="#172033" font-family="ui-rounded, 'Comic Sans MS', sans-serif" font-size="15" font-weight="450">- id: CustomerId</text><text x="87" y="263.075" text-anchor="start" fill="#172033" font-family="ui-rounded, 'Comic Sans MS', sans-serif" font-size="15" font-weight="450">- email: Email</text><path d="M 75 271.325 H 389.75" stroke="#26364a" stroke-width="1"/><text x="87" y="287.325" text-anchor="start" fill="#172033" font-family="ui-rounded, 'Comic Sans MS', sans-serif" font-size="15" font-weight="450">+ placeOrder(cart: Cart): Order</text><text x="488.95" y="208.45" text-anchor="start" fill="#172033" font-family="ui-rounded, 'Comic Sans MS', sans-serif" font-size="15" font-weight="700">Order</text><path d="M 476.95 216.7 H 791.7" stroke="#26364a" stroke-width="1"/><text x="488.95" y="232.7" text-anchor="start" fill="#172033" font-family="ui-rounded, 'Comic Sans MS', sans-serif" font-size="15" font-weight="450">- number: OrderNumber</text><text x="488.95" y="252.95" text-anchor="start" fill="#172033" font-family="ui-rounded, 'Comic Sans MS', sans-serif" font-size="15" font-weight="450">- status: OrderStatus</text><path d="M 476.95 261.2 H 791.7" stroke="#26364a" stroke-width="1"/><text x="488.95" y="277.2" text-anchor="start" fill="#172033" font-family="ui-rounded, 'Comic Sans MS', sans-serif" font-size="15" font-weight="450">+ add(item: Product, quantity: int)</text><text x="488.95" y="297.45" text-anchor="start" fill="#172033" font-family="ui-rounded, 'Comic Sans MS', sans-serif" font-size="15" font-weight="450">+ total(): Money</text><text x="837.7" y="228.7" text-anchor="start" fill="#172033" font-family="ui-rounded, 'Comic Sans MS', sans-serif" font-size="15" font-weight="700">LineItem</text><path d="M 825.7 236.95 H 1000.2" stroke="#26364a" stroke-width="1"/><text x="837.7" y="252.95" text-anchor="start" fill="#172033" font-family="ui-rounded, 'Comic Sans MS', sans-serif" font-size="15" font-weight="450">- quantity: int</text><text x="837.7" y="273.2" text-anchor="start" fill="#172033" font-family="ui-rounded, 'Comic Sans MS', sans-serif" font-size="15" font-weight="450">- unitPrice: Money</text><path d="M 825.7 281.45 H 1000.2" stroke="#26364a" stroke-width="1"/><text x="177.75" y="385.7" text-anchor="start" fill="#172033" font-family="ui-rounded, 'Comic Sans MS', sans-serif" font-size="15" font-weight="700" font-style="italic">PaymentMethod</text><path d="M 165.75 393.95 H 299" stroke="#26364a" stroke-width="1"/><path d="M 165.75 393.95 H 299" stroke="#26364a" stroke-width="1"/><text x="559.075" y="395.825" text-anchor="start" fill="#172033" font-family="ui-rounded, 'Comic Sans MS', sans-serif" font-size="15" font-weight="700">CreditCardPayment</text><path d="M 547.075 404.075 H 721.575" stroke="#26364a" stroke-width="1"/><path d="M 547.075 404.075 H 721.575" stroke="#26364a" stroke-width="1"/><text x="837.7" y="395.825" text-anchor="start" fill="#172033" font-family="ui-rounded, 'Comic Sans MS', sans-serif" font-size="15" font-weight="700">PaypalPayment</text><path d="M 825.7 404.075 H 1000.2" stroke="#26364a" stroke-width="1"/><path d="M 825.7 404.075 H 1000.2" stroke="#26364a" stroke-width="1"/><text x="87" y="502.20000000000005" text-anchor="start" fill="#172033" font-family="ui-rounded, 'Comic Sans MS', sans-serif" font-size="15" font-weight="450">«interface»</text><text x="87" y="522.45" text-anchor="start" fill="#172033" font-family="ui-rounded, 'Comic Sans MS', sans-serif" font-size="15" font-weight="700">PaymentAuthorizer</text><path d="M 75 530.7 H 389.75" stroke="#26364a" stroke-width="1"/><path d="M 75 530.7 H 389.75" stroke="#26364a" stroke-width="1"/><text x="559.075" y="512.325" text-anchor="start" fill="#172033" font-family="ui-rounded, 'Comic Sans MS', sans-serif" font-size="15" font-weight="700">StripeAuthorizer</text><path d="M 547.075 520.575 H 721.575" stroke="#26364a" stroke-width="1"/><path d="M 547.075 520.575 H 721.575" stroke="#26364a" stroke-width="1"/><text x="837.7" y="502.20000000000005" text-anchor="start" fill="#172033" font-family="ui-rounded, 'Comic Sans MS', sans-serif" font-size="15" font-weight="450">«interface»</text><text x="837.7" y="522.45" text-anchor="start" fill="#172033" font-family="ui-rounded, 'Comic Sans MS', sans-serif" font-size="15" font-weight="700">OrderRepository</text><path d="M 825.7 530.7 H 1000.2" stroke="#26364a" stroke-width="1"/><path d="M 825.7 530.7 H 1000.2" stroke="#26364a" stroke-width="1"/><g><rect x="399.75" y="219.075" width="67.2" height="20" rx="4" fill="#ffffff" fill-opacity=".9"/><text x="433.35" y="234.075" text-anchor="middle" font-family="ui-rounded, sans-serif" font-size="13" fill="#334155">customer</text></g><g><rect x="399.75" y="249.075" width="15.4" height="20" rx="4" fill="#ffffff" fill-opacity=".9"/><text x="407.45" y="264.075" text-anchor="middle" font-family="ui-rounded, sans-serif" font-size="13" fill="#334155">1</text></g><g><rect x="414.55" y="277.075" width="52.400000000000006" height="20" rx="4" fill="#ffffff" fill-opacity=".9"/><text x="440.75" y="292.075" text-anchor="middle" font-family="ui-rounded, sans-serif" font-size="13" fill="#334155">orders</text></g><g><rect x="429.34999999999997" y="249.075" width="37.6" height="20" rx="4" fill="#ffffff" fill-opacity=".9"/><text x="448.15" y="264.075" text-anchor="middle" font-family="ui-rounded, sans-serif" font-size="13" fill="#334155">0..*</text></g><g><rect x="544.3" y="325.7" width="15.4" height="20" rx="4" fill="#ffffff" fill-opacity=".9"/><text x="552" y="340.7" text-anchor="middle" font-family="ui-rounded, sans-serif" font-size="13" fill="#334155">1</text></g><g><rect x="870.3500000000001" y="142.45" width="37.6" height="20" rx="4" fill="#ffffff" fill-opacity=".9"/><text x="889.1500000000001" y="157.45" text-anchor="middle" font-family="ui-rounded, sans-serif" font-size="13" fill="#334155">1..*</text></g><g><rect x="271.3125" y="325.7" width="15.4" height="20" rx="4" fill="#ffffff" fill-opacity=".9"/><text x="279.0125" y="340.7" text-anchor="middle" font-family="ui-rounded, sans-serif" font-size="13" fill="#334155">1</text></g><g><rect x="223.71249999999998" y="319.7" width="37.6" height="20" rx="4" fill="#ffffff" fill-opacity=".9"/><text x="242.5125" y="334.7" text-anchor="middle" font-family="ui-rounded, sans-serif" font-size="13" fill="#334155">0..*</text></g><g><rect x="449.145" y="348.7" width="74.60000000000001" height="20" rx="4" fill="#ffffff" fill-opacity=".9"/><text x="486.445" y="363.7" text-anchor="middle" font-family="ui-rounded, sans-serif" font-size="13" fill="#334155">pays with</text></g><g><rect x="309" y="355.825" width="15.4" height="20" rx="4" fill="#ffffff" fill-opacity=".9"/><text x="316.7" y="370.825" text-anchor="middle" font-family="ui-rounded, sans-serif" font-size="13" fill="#334155">1</text></g><g><rect x="678.3" y="437.65833333333336" width="126.4" height="20" rx="4" fill="#ffffff" fill-opacity=".9"/><text x="741.5" y="452.65833333333336" text-anchor="middle" font-family="ui-rounded, sans-serif" font-size="13" fill="#334155">persists through</text></g></g>
</svg>