<?xml version="1.0" encoding="UTF-8"?>
<svg xmlns="http://www.w3.org/2000/svg" width="1080" height="455" viewBox="0 0 1080 455" role="img" aria-label="uml-use-case-example">
  <title>uml-use-case-example</title>
  <desc>Kvísl layouter prototype preview</desc>
  <rect width="100%" height="100%" fill="#ffffff"/>
  <g id="boundaries"><rect x="219.25" y="121.2" width="616.3" height="281" rx="14" fill="#f8fafc" stroke="#7b8794" stroke-width="2"/></g>
  <g id="corridor-dividers"></g>
  <g id="lines"><g data-line="checkout-auth"><polyline points="576.3,183.5125 504.5,183.5125 504.5,275.825 490.5,275.825" fill="none" stroke="#334155" stroke-width="2" stroke-linejoin="round" stroke-linecap="round"/><path d="M 502.5 269.825 L 490.5 275.825 L 502.5 281.825" fill="none" stroke="#334155" stroke-width="2" stroke-linejoin="round"/></g><g data-line="checkout-pay"><polyline points="676.925,219.7 676.925,251.7" fill="none" stroke="#334155" stroke-width="2" stroke-linejoin="round" stroke-linecap="round"/><path d="M 670.925 239.7 L 676.925 251.7 L 682.925 239.7" fill="none" stroke="#334155" stroke-width="2" stroke-linejoin="round"/></g><g data-line="refund-notify"><polyline points="490.5,352.0541666666667 576.3,352.0541666666667" fill="none" stroke="#334155" stroke-width="2" stroke-linejoin="round" stroke-linecap="round"/><path d="M 564.3 358.0541666666667 L 576.3 352.0541666666667 L 564.3 346.0541666666667" fill="none" stroke="#334155" stroke-width="2" stroke-linejoin="round"/></g><g data-line="refund-checkout"><polyline points="490.5,364.1166666666667 556.3,364.1166666666667 556.3,195.575 576.3,195.575" fill="none" stroke="#334155" stroke-width="2" stroke-linejoin="round" stroke-linecap="round"/><path d="M 564.3 201.575 L 576.3 195.575 L 564.3 189.575" fill="none" stroke="#334155" stroke-width="2" stroke-linejoin="round"/></g><g data-line="customer-browse"><polyline points="166.625,191.55416666666665 289.25,191.55416666666665" fill="none" stroke="#334155" stroke-width="2" stroke-linejoin="round" stroke-linecap="round"/></g><g data-line="customer-checkout"><polyline points="166.625,203.61666666666665 243.25,203.61666666666665 243.25,323.95 550.3,323.95 550.3,207.6375 576.3,207.6375" fill="none" stroke="#334155" stroke-width="2" stroke-linejoin="round" stroke-linecap="round"/></g><g data-line="support-refund"><polyline points="187.25,356.075 289.25,356.075" fill="none" stroke="#334155" stroke-width="2" stroke-linejoin="round" stroke-linecap="round"/></g><g data-line="provider-pay"><polyline points="867.55,275.825 777.55,275.825" fill="none" stroke="#334155" stroke-width="2" stroke-linejoin="round" stroke-linecap="round"/></g><g data-line="mail-notify"><polyline points="884.05,356.075 777.55,356.075" fill="none" stroke="#334155" stroke-width="2" stroke-linejoin="round" stroke-linecap="round"/></g></g>
  <g id="objects"><g fill="none" stroke="#26364a" stroke-width="2"><circle cx="119.625" cy="188.45" r="8"/><path d="M 119.625 196.45 V 222.45 M 102.625 206.45 H 136.625 M 119.625 222.45 L 104.625 240.45 M 119.625 222.45 L 134.625 240.45"/></g><g fill="none" stroke="#26364a" stroke-width="2"><circle cx="119.625" cy="348.95" r="8"/><path d="M 119.625 356.95 V 382.95 M 102.625 366.95 H 136.625 M 119.625 382.95 L 104.625 400.95 M 119.625 382.95 L 134.625 400.95"/></g><ellipse cx="389.875" cy="195.575" rx="100.625" ry="24.125" fill="#ffffff" stroke="#26364a" stroke-width="2"/><ellipse cx="676.925" cy="195.575" rx="100.625" ry="24.125" fill="#ffffff" stroke="#26364a" stroke-width="2"/><ellipse cx="389.875" cy="275.825" rx="100.625" ry="24.125" fill="#ffffff" stroke="#26364a" stroke-width="2"/><ellipse cx="676.925" cy="275.825" rx="100.625" ry="24.125" fill="#ffffff" stroke="#26364a" stroke-width="2"/><ellipse cx="389.875" cy="356.075" rx="100.625" ry="24.125" fill="#ffffff" stroke="#26364a" stroke-width="2"/><ellipse cx="676.925" cy="356.075" rx="100.625" ry="24.125" fill="#ffffff" stroke="#26364a" stroke-width="2"/><g fill="none" stroke="#26364a" stroke-width="2"><circle cx="947.55" cy="268.7" r="8"/><path d="M 947.55 276.7 V 302.7 M 930.55 286.7 H 964.55 M 947.55 302.7 L 932.55 320.7 M 947.55 302.7 L 962.55 320.7"/></g><g fill="none" stroke="#26364a" stroke-width="2"><circle cx="947.55" cy="348.95" r="8"/><path d="M 947.55 356.95 V 382.95 M 930.55 366.95 H 964.55 M 947.55 382.95 L 932.55 400.95 M 947.55 382.95 L 962.55 400.95"/></g></g>
  <g id="ports"></g>
  <g id="text"><text x="52" y="84" text-anchor="start" fill="#172033" font-family="ui-rounded, 'Comic Sans MS', sans-serif" font-size="32" font-weight="700">Online store — use-case diagram</text><text x="119.625" y="200.45" text-anchor="middle" fill="#172033" font-family="ui-rounded, 'Comic Sans MS', sans-serif" font-size="15" font-weight="450">Customer</text><text x="119.625" y="360.95" text-anchor="middle" fill="#172033" font-family="ui-rounded, 'Comic Sans MS', sans-serif" font-size="15" font-weight="450">Support Agent</text><text x="232.25" y="143.2" text-anchor="start" fill="#172033" font-family="ui-rounded, 'Comic Sans MS', sans-serif" font-size="15" font-weight="700">Online Store</text><text x="389.875" y="200.45" text-anchor="middle" fill="#172033" font-family="ui-rounded, 'Comic Sans MS', sans-serif" font-size="15" font-weight="450">Browse catalog</text><text x="676.925" y="200.45" text-anchor="middle" fill="#172033" font-family="ui-rounded, 'Comic Sans MS', sans-serif" font-size="15" font-weight="450">Checkout</text><text x="389.875" y="280.7" text-anchor="middle" fill="#172033" font-family="ui-rounded, 'Comic Sans MS', sans-serif" font-size="15" font-weight="450">Authenticate customer</text><text x="676.925" y="280.7" text-anchor="middle" fill="#172033" font-family="ui-rounded, 'Comic Sans MS', sans-serif" font-size="15" font-weight="450">Process payment</text><text x="389.875" y="360.95" text-anchor="middle" fill="#172033" font-family="ui-rounded, 'Comic Sans MS', sans-serif" font-size="15" font-weight="450">Refund order</text><text x="676.925" y="360.95" text-anchor="middle" fill="#172033" font-family="ui-rounded, 'Comic Sans MS', sans-serif" font-size="15" font-weight="450">Send notification</text><text x="947.55" y="280.7" text-anchor="middle" fill="#172033" font-family="ui-rounded, 'Comic Sans MS', sans-serif" font-size="15" font-weight="450">Payment Provider</text><text x="947.55" y="360.95" text-anchor="middle" fill="#172033" font-family="ui-rounded, 'Comic Sans MS', sans-serif" font-size="15" font-weight="450">Mail Service</text><g><rect x="512.5" y="219.66875" width="59.800000000000004" height="20" rx="4" fill="#ffffff" fill-opacity=".9"/><text x="542.4" y="234.66875" text-anchor="middle" font-family="ui-rounded, sans-serif" font-size="13" fill="#334155">include</text></g><g><rect x="609.125" y="225.7" width="59.800000000000004" height="20" rx="4" fill="#ffffff" fill-opacity=".9"/><text x="639.025" y="240.7" text-anchor="middle" font-family="ui-rounded, sans-serif" font-size="13" fill="#334155">include</text></g><g><rect x="503.5" y="324.0541666666667" width="59.800000000000004" height="20" rx="4" fill="#ffffff" fill-opacity=".9"/><text x="533.4" y="339.0541666666667" text-anchor="middle" font-family="ui-rounded, sans-serif" font-size="13" fill="#334155">include</text></g><g><rect x="495.8999999999999" y="269.8458333333333" width="52.400000000000006" height="20" rx="4" fill="#ffffff" fill-opacity=".9"/><text x="522.0999999999999" y="284.8458333333333" text-anchor="middle" font-family="ui-rounded, sans-serif" font-size="13" fill="#334155">extend</text></g><g><rect x="497.2" y="372.1166666666667" width="52.400000000000006" height="20" rx="4" fill="#ffffff" fill-opacity=".9"/><text x="523.4" y="387.1166666666667" text-anchor="middle" font-family="ui-rounded, sans-serif" font-size="13" fill="#334155">[paid]</text></g></g>
</svg>