<?xml version="1.0" encoding="UTF-8"?>
<svg xmlns="http://www.w3.org/2000/svg" width="1195" height="807" viewBox="0 0 1195 807" role="img" aria-label="uml-activity-example">
  <title>uml-activity-example</title>
  <desc>Kvísl layouter prototype preview</desc>
  <rect width="100%" height="100%" fill="#ffffff"/>
  <g id="boundaries"><rect x="52" y="121.2" width="333.75" height="366.75" rx="14" fill="#f8fafc" stroke="#7b8794" stroke-width="2"/><rect x="493.75" y="121.2" width="344.25" height="633" rx="14" fill="#f8fafc" stroke="#7b8794" stroke-width="2"/><rect x="870" y="121.2" width="272.25" height="190.75" rx="14" fill="#f8fafc" stroke="#7b8794" stroke-width="2"/></g>
  <g id="corridor-dividers"></g>
  <g id="lines"><g data-line="start-submit"><polyline points="204.875,223.45 204.875,269.45" fill="none" stroke="#334155" stroke-width="2" stroke-linejoin="round" stroke-linecap="round"/><path d="M 198.875 257.45 L 204.875 269.45 L 210.875 257.45" fill="none" stroke="#334155" stroke-width="2" stroke-linejoin="round"/></g><g data-line="submit-validate"><polyline points="291.75,293.575 573.75,293.575 573.75,195.575 587.75,195.575" fill="none" stroke="#334155" stroke-width="2" stroke-linejoin="round" stroke-linecap="round"/><path d="M 575.75 201.575 L 587.75 195.575 L 575.75 189.575" fill="none" stroke="#334155" stroke-width="2" stroke-linejoin="round"/></g><g data-line="validate-choice"><polyline points="689.9017857142858,219.7 689.9017857142858,265.7" fill="none" stroke="#334155" stroke-width="2" stroke-linejoin="round" stroke-linecap="round"/><path d="M 683.9017857142858 253.7 L 689.9017857142858 265.7 L 695.9017857142858 253.7" fill="none" stroke="#334155" stroke-width="2" stroke-linejoin="round"/></g><g data-line="invalid-end"><polyline points="635.875,284.7 291.3125,284.7 291.3125,428.6166666666667 218.875,428.6166666666667" fill="none" stroke="#334155" stroke-width="2" stroke-linejoin="round" stroke-linecap="round"/><path d="M 230.875 422.6166666666667 L 218.875 428.6166666666667 L 230.875 434.6166666666667" fill="none" stroke="#334155" stroke-width="2" stroke-linejoin="round"/></g><g data-line="valid-authorize"><polyline points="689.9017857142858,303.7 689.9017857142858,353.7" fill="none" stroke="#334155" stroke-width="2" stroke-linejoin="round" stroke-linecap="round"/><path d="M 683.9017857142858 341.7 L 689.9017857142858 353.7 L 695.9017857142858 341.7" fill="none" stroke="#334155" stroke-width="2" stroke-linejoin="round"/></g><g data-line="authorize-choice"><polyline points="649.875,401.95 649.875,447.95" fill="none" stroke="#334155" stroke-width="2" stroke-linejoin="round" stroke-linecap="round"/><path d="M 643.875 435.95 L 649.875 447.95 L 655.875 435.95" fill="none" stroke="#334155" stroke-width="2" stroke-linejoin="round"/></g><g data-line="payment-retry"><polyline points="635.875,466.95 305.75,466.95 305.75,355.7833333333333 291.75,355.7833333333333" fill="none" stroke="#334155" stroke-width="2" stroke-linejoin="round" stroke-linecap="round"/><path d="M 303.75 349.7833333333333 L 291.75 355.7833333333333 L 303.75 361.7833333333333" fill="none" stroke="#334155" stroke-width="2" stroke-linejoin="round"/></g><g data-line="correct-authorize"><polyline points="291.75,373.95 291.75,315.7 311.75,315.7 311.75,373.95 587.75,373.95" fill="none" stroke="#334155" stroke-width="2" stroke-linejoin="round" stroke-linecap="round"/><path d="M 575.75 379.95 L 587.75 373.95 L 575.75 367.95" fill="none" stroke="#334155" stroke-width="2" stroke-linejoin="round"/></g><g data-line="authorized-fork"><polyline points="691.2607142857144,485.95 691.2607142857144,535.95" fill="none" stroke="#334155" stroke-width="2" stroke-linejoin="round" stroke-linecap="round"/><path d="M 685.2607142857144 523.95 L 691.2607142857144 535.95 L 697.2607142857144 523.95" fill="none" stroke="#334155" stroke-width="2" stroke-linejoin="round"/></g><g data-line="fork-reserve"><polyline points="730.875,549.2833333333334 894,549.2833333333334 894,311.95 938,311.95 938,195.575 952,195.575" fill="none" stroke="#334155" stroke-width="2" stroke-linejoin="round" stroke-linecap="round"/><path d="M 940 201.575 L 952 195.575 L 940 189.575" fill="none" stroke="#334155" stroke-width="2" stroke-linejoin="round"/></g><g data-line="fork-prepare"><polyline points="730.875,562.6166666666668 952,562.6166666666668 952,257.7833333333333" fill="none" stroke="#334155" stroke-width="2" stroke-linejoin="round" stroke-linecap="round"/><path d="M 958 269.7833333333333 L 952 257.7833333333333 L 946 269.7833333333333" fill="none" stroke="#334155" stroke-width="2" stroke-linejoin="round"/></g><g data-line="reserve-join"><polyline points="1036.125,219.7 1036.125,233.7 1144.25,233.7 1144.25,583.95 671.875,583.95 671.875,597.95" fill="none" stroke="#334155" stroke-width="2" stroke-linejoin="round" stroke-linecap="round"/><path d="M 665.875 585.95 L 671.875 597.95 L 677.875 585.95" fill="none" stroke="#334155" stroke-width="2" stroke-linejoin="round"/></g><g data-line="prepare-join"><polyline points="952,273.8666666666667 814,273.8666666666667 814,445.90833333333336 730.875,445.90833333333336 730.875,617.95" fill="none" stroke="#334155" stroke-width="2" stroke-linejoin="round" stroke-linecap="round"/><path d="M 724.875 605.95 L 730.875 617.95 L 736.875 605.95" fill="none" stroke="#334155" stroke-width="2" stroke-linejoin="round"/></g><g data-line="join-confirm"><polyline points="641.8303571428571,637.95 641.8303571428571,683.95" fill="none" stroke="#334155" stroke-width="2" stroke-linejoin="round" stroke-linecap="round"/><path d="M 635.8303571428571 671.95 L 641.8303571428571 683.95 L 647.8303571428571 671.95" fill="none" stroke="#334155" stroke-width="2" stroke-linejoin="round"/></g><g data-line="confirm-end"><polyline points="587.75,708.075 325.75,708.075 325.75,487.95 238.875,487.95 238.875,447.2833333333333 218.875,447.2833333333333" fill="none" stroke="#334155" stroke-width="2" stroke-linejoin="round" stroke-linecap="round"/><path d="M 230.875 441.2833333333333 L 218.875 447.2833333333333 L 230.875 453.2833333333333" fill="none" stroke="#334155" stroke-width="2" stroke-linejoin="round"/></g></g>
  <g id="objects"><circle cx="182.875" cy="197.45" r="26" fill="#172033"/><rect x="74" y="269.45" width="217.75" height="48.25" rx="14" fill="#ffffff" stroke="#26364a" stroke-width="2"/><rect x="74" y="339.7" width="217.75" height="48.25" rx="14" fill="#ffffff" stroke="#26364a" stroke-width="2"/><g><circle cx="182.875" cy="437.95" r="27" fill="white" stroke="#172033" stroke-width="2"/><circle cx="182.875" cy="437.95" r="22" fill="#172033"/></g><rect x="587.75" y="171.45" width="168.25" height="48.25" rx="14" fill="#ffffff" stroke="#26364a" stroke-width="2"/><polygon points="671.875,265.7 707.875,284.7 671.875,303.7 635.875,284.7" fill="#ffffff" stroke="#26364a" stroke-width="2"/><rect x="587.75" y="353.7" width="168.25" height="48.25" rx="14" fill="#ffffff" stroke="#26364a" stroke-width="2"/><polygon points="671.875,447.95 707.875,466.95 671.875,485.95 635.875,466.95" fill="#ffffff" stroke="#26364a" stroke-width="2"/><rect x="612.875" y="535.95" width="118" height="40.00000000000006" rx="3" fill="#172033"/><rect x="612.875" y="597.95" width="118" height="40" rx="3" fill="#172033"/><rect x="587.75" y="683.95" width="168.25" height="48.25" rx="14" fill="#ffffff" stroke="#26364a" stroke-width="2"/><rect x="952" y="171.45" width="168.25" height="48.25" rx="14" fill="#ffffff" stroke="#26364a" stroke-width="2"/><rect x="952" y="241.7" width="168.25" height="48.25" rx="14" fill="#ffffff" stroke="#26364a" stroke-width="2"/></g>
  <g id="ports"></g>
  <g id="text"><text x="52" y="84" text-anchor="start" fill="#172033" font-family="ui-rounded, 'Comic Sans MS', sans-serif" font-size="32" font-weight="700">Fulfil an order — activity diagram</text><text x="65" y="143.2" text-anchor="start" fill="#172033" font-family="ui-rounded, 'Comic Sans MS', sans-serif" font-size="15" font-weight="700">Customer</text><text x="182.875" y="298.45" text-anchor="middle" fill="#172033" font-family="ui-rounded, 'Comic Sans MS', sans-serif" font-size="15" font-weight="450">Submit order</text><text x="182.875" y="368.7" text-anchor="middle" fill="#172033" font-family="ui-rounded, 'Comic Sans MS', sans-serif" font-size="15" font-weight="450">Correct payment details</text><text x="506.75" y="143.2" text-anchor="start" fill="#172033" font-family="ui-rounded, 'Comic Sans MS', sans-serif" font-size="15" font-weight="700">Checkout Service</text><text x="671.875" y="200.45" text-anchor="middle" fill="#172033" font-family="ui-rounded, 'Comic Sans MS', sans-serif" font-size="15" font-weight="450">Validate order</text><text x="671.875" y="382.7" text-anchor="middle" fill="#172033" font-family="ui-rounded, 'Comic Sans MS', sans-serif" font-size="15" font-weight="450">Authorize payment</text><text x="671.875" y="712.95" text-anchor="middle" fill="#172033" font-family="ui-rounded, 'Comic Sans MS', sans-serif" font-size="15" font-weight="450">Confirm order</text><text x="883" y="143.2" text-anchor="start" fill="#172033" font-family="ui-rounded, 'Comic Sans MS', sans-serif" font-size="15" font-weight="700">Fulfillment</text><text x="1036.125" y="200.45" text-anchor="middle" fill="#172033" font-family="ui-rounded, 'Comic Sans MS', sans-serif" font-size="15" font-weight="450">Reserve inventory</text><text x="1036.125" y="270.7" text-anchor="middle" fill="#172033" font-family="ui-rounded, 'Comic Sans MS', sans-serif" font-size="15" font-weight="450">Prepare shipment</text><g><rect x="512.434375" y="256.7" width="74.60000000000001" height="20" rx="4" fill="#ffffff" fill-opacity=".9"/><text x="549.734375" y="271.7" text-anchor="middle" font-family="ui-rounded, sans-serif" font-size="13" fill="#334155">[invalid]</text></g><g><rect x="622.1017857142858" y="318.7" width="59.800000000000004" height="20" rx="4" fill="#ffffff" fill-opacity=".9"/><text x="652.0017857142858" y="333.7" text-anchor="middle" font-family="ui-rounded, sans-serif" font-size="13" fill="#334155">[valid]</text></g><g><rect x="512.34375" y="438.95" width="82" height="20" rx="4" fill="#ffffff" fill-opacity=".9"/><text x="553.34375" y="453.95" text-anchor="middle" font-family="ui-rounded, sans-serif" font-size="13" fill="#334155">[declined]</text></g><g><rect x="601.2607142857144" y="500.95000000000005" width="82" height="20" rx="4" fill="#ffffff" fill-opacity=".9"/><text x="642.2607142857144" y="515.95" text-anchor="middle" font-family="ui-rounded, sans-serif" font-size="13" fill="#334155">[approved]</text></g></g>
</svg>