<?xml version="1.0" encoding="UTF-8"?>
<svg xmlns="http://www.w3.org/2000/svg" width="1146" height="872" viewBox="0 0 1146 872" role="img" aria-label="uml-state-machine-example">
  <title>uml-state-machine-example</title>
  <desc>Kvísl layouter prototype preview</desc>
  <rect width="100%" height="100%" fill="#ffffff"/>
  <g id="boundaries"><rect x="52" y="237.7" width="397.25" height="493.50000000000006" rx="14" fill="#f8fafc" stroke="#7b8794" stroke-width="2"/></g>
  <g id="corridor-dividers"></g>
  <g id="lines"><g data-line="history-authorizing"><polyline points="213.5,346.2 213.5,392.2" fill="none" stroke="#334155" stroke-width="2" stroke-linejoin="round" stroke-linecap="round"/><path d="M 207.5 380.2 L 213.5 392.2 L 219.5 380.2" fill="none" stroke="#334155" stroke-width="2" stroke-linejoin="round"/></g><g data-line="authorizing-reserving"><polyline points="235.5,476.7 235.5,522.7" fill="none" stroke="#334155" stroke-width="2" stroke-linejoin="round" stroke-linecap="round"/><path d="M 229.5 510.70000000000005 L 235.5 522.7 L 241.5 510.70000000000005" fill="none" stroke="#334155" stroke-width="2" stroke-linejoin="round"/></g><g data-line="reserving-complete"><polyline points="213.5,607.2 213.5,653.2" fill="none" stroke="#334155" stroke-width="2" stroke-linejoin="round" stroke-linecap="round"/><path d="M 207.5 641.2 L 213.5 653.2 L 219.5 641.2" fill="none" stroke="#334155" stroke-width="2" stroke-linejoin="round"/></g><g data-line="begin"><polyline points="286.625,155.325 481.25,155.325" fill="none" stroke="#334155" stroke-width="2" stroke-linejoin="round" stroke-linecap="round"/><path d="M 469.25 161.325 L 481.25 155.325 L 469.25 149.325" fill="none" stroke="#334155" stroke-width="2" stroke-linejoin="round"/></g><g data-line="submit"><polyline points="756.25,156.40833333333333 818.65,156.40833333333333" fill="none" stroke="#334155" stroke-width="2" stroke-linejoin="round" stroke-linecap="round"/><path d="M 806.65 162.40833333333333 L 818.65 156.40833333333333 L 806.65 150.40833333333333" fill="none" stroke="#334155" stroke-width="2" stroke-linejoin="round"/></g><g data-line="process"><polyline points="818.65,177.53333333333333 798.65,177.53333333333333 798.65,327.2 271.5,327.2" fill="none" stroke="#334155" stroke-width="2" stroke-linejoin="round" stroke-linecap="round"/><path d="M 283.5 321.2 L 271.5 327.2 L 283.5 333.2" fill="none" stroke="#334155" stroke-width="2" stroke-linejoin="round"/></g><g data-line="fulfil"><polyline points="247.5,653.2 247.5,633.2 410.2083333333333,633.2 410.2083333333333,322.2 572.9166666666666,322.2" fill="none" stroke="#334155" stroke-width="2" stroke-linejoin="round" stroke-linecap="round"/><path d="M 560.9166666666666 328.2 L 572.9166666666666 322.2 L 560.9166666666666 316.2" fill="none" stroke="#334155" stroke-width="2" stroke-linejoin="round"/></g><g data-line="cancel-submitted"><polyline points="956.1500000000001,205.7 956.1500000000001,237.7" fill="none" stroke="#334155" stroke-width="2" stroke-linejoin="round" stroke-linecap="round"/><path d="M 950.1500000000001 225.7 L 956.1500000000001 237.7 L 962.1500000000001 225.7" fill="none" stroke="#334155" stroke-width="2" stroke-linejoin="round"/></g><g data-line="cancel-processing"><polyline points="449.25,346.2 804.65,346.2 804.65,308.2 818.65,308.2" fill="none" stroke="#334155" stroke-width="2" stroke-linejoin="round" stroke-linecap="round"/><path d="M 806.65 314.2 L 818.65 308.2 L 806.65 302.2" fill="none" stroke="#334155" stroke-width="2" stroke-linejoin="round"/></g><g data-line="finish-fulfilled"><polyline points="664.5833333333333,322.2 664.5833333333333,749.2 274.28214285714284,749.2 274.28214285714284,763.2" fill="none" stroke="#334155" stroke-width="2" stroke-linejoin="round" stroke-linecap="round"/><path d="M 268.28214285714284 751.2 L 274.28214285714284 763.2 L 280.28214285714284 751.2" fill="none" stroke="#334155" stroke-width="2" stroke-linejoin="round"/></g><g data-line="finish-cancelled"><polyline points="818.65,294.0333333333333 798.65,294.0333333333333 820.65,294.0333333333333 820.65,791.2 286.625,791.2" fill="none" stroke="#334155" stroke-width="2" stroke-linejoin="round" stroke-linecap="round"/><path d="M 298.625 785.2 L 286.625 791.2 L 298.625 797.2" fill="none" stroke="#334155" stroke-width="2" stroke-linejoin="round"/></g></g>
  <g id="objects"><circle cx="250.625" cy="147.2" r="25.999999999999993" fill="#172033"/><rect x="481.25" y="121.2" width="275" height="84.49999999999999" rx="14" fill="#f8fafc" stroke="#7b8794" stroke-width="2"/><rect x="818.65" y="121.2" width="275.0000000000001" height="84.49999999999999" rx="14" fill="#f8fafc" stroke="#7b8794" stroke-width="2"/><g><rect x="199.5" y="308.2" width="72" height="38" rx="36" fill="#ffffff" stroke="#26364a" stroke-width="2"/><text x="235.5" y="332.2" text-anchor="middle" font-size="14">H</text></g><rect x="98" y="392.2" width="275" height="84.5" rx="14" fill="#f8fafc" stroke="#7b8794" stroke-width="2"/><rect x="98" y="522.7" width="275" height="84.50000000000006" rx="14" fill="#f8fafc" stroke="#7b8794" stroke-width="2"/><g><circle cx="235.5" cy="681.2" r="27" fill="white" stroke="#172033" stroke-width="2"/><circle cx="235.5" cy="681.2" r="22" fill="#172033"/></g><rect x="481.25" y="237.7" width="275" height="84.5" rx="14" fill="#f8fafc" stroke="#7b8794" stroke-width="2"/><rect x="818.65" y="237.7" width="275.0000000000001" height="84.5" rx="14" fill="#f8fafc" stroke="#7b8794" stroke-width="2"/><g><circle cx="250.625" cy="791.2" r="27" fill="white" stroke="#172033" stroke-width="2"/><circle cx="250.625" cy="791.2" r="22" fill="#172033"/></g></g>
  <g id="ports"></g>
  <g id="text"><text x="52" y="84" text-anchor="start" fill="#172033" font-family="ui-rounded, 'Comic Sans MS', sans-serif" font-size="32" font-weight="700">Order lifecycle — state-machine diagram</text><text x="494.25" y="158.2" text-anchor="start" fill="#172033" font-family="ui-rounded, 'Comic Sans MS', sans-serif" font-size="15" font-weight="700">Draft</text><text x="494.25" y="178.45" text-anchor="start" fill="#172033" font-family="ui-rounded, 'Comic Sans MS', sans-serif" font-size="15" font-weight="450">entry / create basket</text><text x="831.65" y="158.2" text-anchor="start" fill="#172033" font-family="ui-rounded, 'Comic Sans MS', sans-serif" font-size="15" font-weight="700">Submitted</text><text x="831.65" y="178.45" text-anchor="start" fill="#172033" font-family="ui-rounded, 'Comic Sans MS', sans-serif" font-size="15" font-weight="450">entry / freeze prices</text><text x="65" y="259.7" text-anchor="start" fill="#172033" font-family="ui-rounded, 'Comic Sans MS', sans-serif" font-size="15" font-weight="700">Processing</text><text x="65" y="279.95" text-anchor="start" fill="#172033" font-family="ui-rounded, 'Comic Sans MS', sans-serif" font-size="15" font-weight="450">do / coordinate payment and inventory</text><text x="111" y="439.325" text-anchor="start" fill="#172033" font-family="ui-rounded, 'Comic Sans MS', sans-serif" font-size="15" font-weight="700">Authorizing payment</text><text x="111" y="569.825" text-anchor="start" fill="#172033" font-family="ui-rounded, 'Comic Sans MS', sans-serif" font-size="15" font-weight="700">Reserving inventory</text><text x="494.25" y="274.7" text-anchor="start" fill="#172033" font-family="ui-rounded, 'Comic Sans MS', sans-serif" font-size="15" font-weight="700">Fulfilled</text><text x="494.25" y="294.95" text-anchor="start" fill="#172033" font-family="ui-rounded, 'Comic Sans MS', sans-serif" font-size="15" font-weight="450">entry / emit OrderFulfilled</text><text x="831.65" y="274.7" text-anchor="start" fill="#172033" font-family="ui-rounded, 'Comic Sans MS', sans-serif" font-size="15" font-weight="700">Cancelled</text><text x="831.65" y="294.95" text-anchor="start" fill="#172033" font-family="ui-rounded, 'Comic Sans MS', sans-serif" font-size="15" font-weight="450">entry / release reservations</text><g><rect x="145.5" y="489.70000000000005" width="82" height="20" rx="4" fill="#ffffff" fill-opacity=".9"/><text x="186.5" y="504.70000000000005" text-anchor="middle" font-family="ui-rounded, sans-serif" font-size="13" fill="#334155">authorized</text></g><g><rect x="138.3" y="620.2" width="67.2" height="20" rx="4" fill="#ffffff" fill-opacity=".9"/><text x="171.9" y="635.2" text-anchor="middle" font-family="ui-rounded, sans-serif" font-size="13" fill="#334155">reserved</text></g><g><rect x="761.25" y="128.40833333333333" width="52.400000000000006" height="20" rx="4" fill="#ffffff" fill-opacity=".9"/><text x="787.45" y="143.40833333333333" text-anchor="middle" font-family="ui-rounded, sans-serif" font-size="13" fill="#334155">submit</text></g><g><rect x="716.85" y="87.40833333333333" width="141.20000000000002" height="20" rx="4" fill="#ffffff" fill-opacity=".9"/><text x="787.45" y="102.40833333333333" text-anchor="middle" font-family="ui-rounded, sans-serif" font-size="13" fill="#334155">[basket not empty]</text></g><g><rect x="471.87500000000006" y="335.2" width="126.4" height="20" rx="4" fill="#ffffff" fill-opacity=".9"/><text x="535.075" y="350.2" text-anchor="middle" font-family="ui-rounded, sans-serif" font-size="13" fill="#334155">paymentRequested</text></g><g><rect x="282.6604166666666" y="641.2" width="141.20000000000002" height="20" rx="4" fill="#ffffff" fill-opacity=".9"/><text x="353.26041666666663" y="656.2" text-anchor="middle" font-family="ui-rounded, sans-serif" font-size="13" fill="#334155">processingComplete</text></g><g><rect x="895.75" y="211.7" width="52.400000000000006" height="20" rx="4" fill="#ffffff" fill-opacity=".9"/><text x="921.95" y="226.7" text-anchor="middle" font-family="ui-rounded, sans-serif" font-size="13" fill="#334155">cancel</text></g><g><rect x="600.75" y="365.2" width="52.400000000000006" height="20" rx="4" fill="#ffffff" fill-opacity=".9"/><text x="626.95" y="380.2" text-anchor="middle" font-family="ui-rounded, sans-serif" font-size="13" fill="#334155">cancel</text></g></g>
</svg>