<?xml version="1.0" encoding="UTF-8"?>
<svg xmlns="http://www.w3.org/2000/svg" width="707" height="698" viewBox="0 0 707 698" role="img" aria-label="uml-package-example">
  <title>uml-package-example</title>
  <desc>Kvísl layouter prototype preview</desc>
  <rect width="100%" height="100%" fill="#ffffff"/>
  <g id="boundaries"><path d="M 52 135.2 V 456.7 H 294.5 V 135.2 H 124 L 114 121.2 H 52 Z" fill="#f8fafc" stroke="#7b8794" stroke-width="2"/><path d="M 372.9 135.2 V 277.95 H 571.4 V 135.2 H 442.375 L 432.375 121.2 H 372.9 Z" fill="#f8fafc" stroke="#7b8794" stroke-width="2"/><path d="M 65.75 502.7 V 645.45 H 280.75 V 502.7 H 137.75 L 127.75 488.7 H 65.75 Z" fill="#f8fafc" stroke="#7b8794" stroke-width="2"/><path d="M 386.65 502.7 V 645.45 H 557.65 V 502.7 H 446.5 L 436.5 488.7 H 386.65 Z" fill="#f8fafc" stroke="#7b8794" stroke-width="2"/><path d="M 74 291.95 V 434.7 H 272.5 V 291.95 H 143.475 L 133.475 277.95 H 74 Z" fill="#f8fafc" stroke="#7b8794" stroke-width="2"/></g>
  <g id="corridor-dividers"></g>
  <g id="lines"><g data-line="checkout-inventory"><polyline points="294.5,217.725 372.9,217.725" fill="none" stroke="#334155" stroke-width="2" stroke-linejoin="round" stroke-linecap="round"/><path d="M 360.9 223.725 L 372.9 217.725 L 360.9 211.725" fill="none" stroke="#334155" stroke-width="2" stroke-linejoin="round"/></g><g data-line="checkout-payments"><polyline points="168.55357142857144,456.7 168.55357142857144,488.7" fill="none" stroke="#334155" stroke-width="2" stroke-linejoin="round" stroke-linecap="round"/><path d="M 162.55357142857144 476.7 L 168.55357142857144 488.7 L 174.55357142857144 476.7" fill="none" stroke="#334155" stroke-width="2" stroke-linejoin="round"/></g><g data-line="checkout-shared"><polyline points="294.5,344.8666666666667 372.65,344.8666666666667 372.65,537.9642857142858 386.65,537.9642857142858" fill="none" stroke="#334155" stroke-width="2" stroke-linejoin="round" stroke-linecap="round"/><path d="M 374.65 543.9642857142858 L 386.65 537.9642857142858 L 374.65 531.9642857142858" fill="none" stroke="#334155" stroke-width="2" stroke-linejoin="round"/></g><g data-line="payments-shared"><polyline points="280.75,582.75 386.65,582.75" fill="none" stroke="#334155" stroke-width="2" stroke-linejoin="round" stroke-linecap="round"/><path d="M 374.65 588.75 L 386.65 582.75 L 374.65 576.75" fill="none" stroke="#334155" stroke-width="2" stroke-linejoin="round"/></g></g>
  <g id="objects"><rect x="87.75" y="171.45" width="171" height="84.5" rx="2" fill="#ffffff" stroke="#26364a" stroke-width="2"/><rect x="96" y="328.2" width="154.5" height="84.5" rx="2" fill="#ffffff" stroke="#26364a" stroke-width="2"/><rect x="394.9" y="171.45" width="154.5" height="84.5" rx="2" fill="#ffffff" stroke="#26364a" stroke-width="2"/><rect x="87.75" y="538.95" width="154.5" height="84.5" rx="2" fill="#ffffff" stroke="#26364a" stroke-width="2"/><rect x="408.65" y="538.95" width="72" height="84.5" rx="2" fill="#ffffff" stroke="#26364a" stroke-width="2"/></g>
  <g id="ports"></g>
  <g id="text"><text x="52" y="84" text-anchor="start" fill="#172033" font-family="ui-rounded, 'Comic Sans MS', sans-serif" font-size="32" font-weight="700">Commerce modules — package diagram</text><text x="65" y="143.2" text-anchor="start" fill="#172033" font-family="ui-rounded, 'Comic Sans MS', sans-serif" font-size="15" font-weight="700">checkout</text><text x="100.75" y="218.575" text-anchor="start" fill="#172033" font-family="ui-rounded, 'Comic Sans MS', sans-serif" font-size="15" font-weight="700">CheckoutService</text><path d="M 88.75 226.825 H 257.75" stroke="#26364a" stroke-width="1"/><path d="M 88.75 226.825 H 257.75" stroke="#26364a" stroke-width="1"/><text x="87" y="299.95" text-anchor="start" fill="#172033" font-family="ui-rounded, 'Comic Sans MS', sans-serif" font-size="15" font-weight="700">application</text><text x="109" y="375.325" text-anchor="start" fill="#172033" font-family="ui-rounded, 'Comic Sans MS', sans-serif" font-size="15" font-weight="700">PlaceOrder</text><path d="M 97 383.575 H 249.5" stroke="#26364a" stroke-width="1"/><path d="M 97 383.575 H 249.5" stroke="#26364a" stroke-width="1"/><text x="385.9" y="143.2" text-anchor="start" fill="#172033" font-family="ui-rounded, 'Comic Sans MS', sans-serif" font-size="15" font-weight="700">inventory</text><text x="407.9" y="208.45" text-anchor="start" fill="#172033" font-family="ui-rounded, 'Comic Sans MS', sans-serif" font-size="15" font-weight="450">«interface»</text><text x="407.9" y="228.7" text-anchor="start" fill="#172033" font-family="ui-rounded, 'Comic Sans MS', sans-serif" font-size="15" font-weight="700">InventoryApi</text><path d="M 395.9 236.95 H 548.4" stroke="#26364a" stroke-width="1"/><path d="M 395.9 236.95 H 548.4" stroke="#26364a" stroke-width="1"/><text x="78.75" y="510.7" text-anchor="start" fill="#172033" font-family="ui-rounded, 'Comic Sans MS', sans-serif" font-size="15" font-weight="700">payments</text><text x="100.75" y="575.95" text-anchor="start" fill="#172033" font-family="ui-rounded, 'Comic Sans MS', sans-serif" font-size="15" font-weight="450">«interface»</text><text x="100.75" y="596.2" text-anchor="start" fill="#172033" font-family="ui-rounded, 'Comic Sans MS', sans-serif" font-size="15" font-weight="700">PaymentApi</text><path d="M 88.75 604.45 H 241.25" stroke="#26364a" stroke-width="1"/><path d="M 88.75 604.45 H 241.25" stroke="#26364a" stroke-width="1"/><text x="399.65" y="510.7" text-anchor="start" fill="#172033" font-family="ui-rounded, 'Comic Sans MS', sans-serif" font-size="15" font-weight="700">shared-kernel</text><text x="421.65" y="586.075" text-anchor="start" fill="#172033" font-family="ui-rounded, 'Comic Sans MS', sans-serif" font-size="15" font-weight="700">Money</text><path d="M 409.65 594.325 H 479.65" stroke="#26364a" stroke-width="1"/><path d="M 409.65 594.325 H 479.65" stroke="#26364a" stroke-width="1"/><g><rect x="307.5" y="189.725" width="52.400000000000006" height="20" rx="4" fill="#ffffff" fill-opacity=".9"/><text x="333.7" y="204.725" text-anchor="middle" font-family="ui-rounded, sans-serif" font-size="13" fill="#334155">import</text></g><g><rect x="108.15357142857145" y="462.7" width="52.400000000000006" height="20" rx="4" fill="#ffffff" fill-opacity=".9"/><text x="134.35357142857146" y="477.7" text-anchor="middle" font-family="ui-rounded, sans-serif" font-size="13" fill="#334155">access</text></g><g><rect x="312.25" y="431.4154761904762" width="52.400000000000006" height="20" rx="4" fill="#ffffff" fill-opacity=".9"/><text x="338.45" y="446.4154761904762" text-anchor="middle" font-family="ui-rounded, sans-serif" font-size="13" fill="#334155">import</text></g><g><rect x="311.2" y="554.75" width="45" height="20" rx="4" fill="#ffffff" fill-opacity=".9"/><text x="333.7" y="569.75" text-anchor="middle" font-family="ui-rounded, sans-serif" font-size="13" fill="#334155">merge</text></g></g>
</svg>