<?xml version="1.0" encoding="UTF-8"?>
<svg xmlns="http://www.w3.org/2000/svg" width="974" height="455" viewBox="0 0 974 455" role="img" aria-label="uml-use-case-example">
  <title>uml-use-case-example</title>
  <desc>Kvísl layouter prototype preview</desc>
  <rect width="100%" height="100%" fill="#ffffff"/>
  <g id="boundaries"><rect x="219.25" y="121.2" width="510.5" height="281" rx="14" fill="#f8fafc" stroke="#7b8794" stroke-width="2"/></g>
  <g id="corridor-dividers"></g>
  <g id="lines"><g data-line="checkout-auth"><polyline points="490.5,195.575 470.5,195.575 472.5,195.575 472.5,275.825 458.5,275.825" fill="none" stroke="#334155" stroke-width="2" stroke-linejoin="round" stroke-linecap="round"/><path d="M 470.5 269.825 L 458.5 275.825 L 470.5 281.825" fill="none" stroke="#334155" stroke-width="2" stroke-linejoin="round"/></g><g data-line="checkout-pay"><polyline points="591.125,219.7 591.125,251.7" fill="none" stroke="#334155" stroke-width="2" stroke-linejoin="round" stroke-linecap="round"/><path d="M 585.125 239.7 L 591.125 251.7 L 597.125 239.7" fill="none" stroke="#334155" stroke-width="2" stroke-linejoin="round"/></g><g data-line="refund-notify"><polyline points="458.5,360.0958333333333 478.5,360.0958333333333 476.5,360.0958333333333 490.5,360.0958333333333" fill="none" stroke="#334155" stroke-width="2" stroke-linejoin="round" stroke-linecap="round"/><path d="M 478.5 366.0958333333333 L 490.5 360.0958333333333 L 478.5 354.0958333333333" fill="none" stroke="#334155" stroke-width="2" stroke-linejoin="round"/></g><g data-line="refund-checkout"><polyline points="458.5,348.0333333333333 472.5,348.0333333333333 490.5,348.0333333333333 490.5,207.6375" fill="none" stroke="#334155" stroke-width="2" stroke-linejoin="round" stroke-linecap="round"/><path d="M 496.5 219.6375 L 490.5 207.6375 L 484.5 219.6375" fill="none" stroke="#334155" stroke-width="2" stroke-linejoin="round"/></g><g data-line="customer-browse"><polyline points="166.625,191.55416666666665 257.25,191.55416666666665" fill="none" stroke="#334155" stroke-width="2" stroke-linejoin="round" stroke-linecap="round"/></g><g data-line="customer-checkout"><polyline points="166.625,203.61666666666665 249.25,203.61666666666665 249.25,147.45 476.5,147.45 476.5,183.5125 490.5,183.5125" fill="none" stroke="#334155" stroke-width="2" stroke-linejoin="round" stroke-linecap="round"/></g><g data-line="support-refund"><polyline points="187.25,356.075 257.25,356.075" fill="none" stroke="#334155" stroke-width="2" stroke-linejoin="round" stroke-linecap="round"/></g><g data-line="provider-pay"><polyline points="761.75,275.825 691.75,275.825" fill="none" stroke="#334155" stroke-width="2" stroke-linejoin="round" stroke-linecap="round"/></g><g data-line="mail-notify"><polyline points="778.25,356.075 691.75,356.075" fill="none" stroke="#334155" stroke-width="2" stroke-linejoin="round" stroke-linecap="round"/></g></g>
  <g id="objects"><g fill="none" stroke="#26364a" stroke-width="2"><circle cx="119.625" cy="188.45" r="8"/><path d="M 119.625 196.45 V 222.45 M 102.625 206.45 H 136.625 M 119.625 222.45 L 104.625 240.45 M 119.625 222.45 L 134.625 240.45"/></g><g fill="none" stroke="#26364a" stroke-width="2"><circle cx="119.625" cy="348.95" r="8"/><path d="M 119.625 356.95 V 382.95 M 102.625 366.95 H 136.625 M 119.625 382.95 L 104.625 400.95 M 119.625 382.95 L 134.625 400.95"/></g><ellipse cx="357.875" cy="195.575" rx="100.625" ry="24.125" fill="#ffffff" stroke="#26364a" stroke-width="2"/><ellipse cx="591.125" cy="195.575" rx="100.625" ry="24.125" fill="#ffffff" stroke="#26364a" stroke-width="2"/><ellipse cx="357.875" cy="275.825" rx="100.625" ry="24.125" fill="#ffffff" stroke="#26364a" stroke-width="2"/><ellipse cx="591.125" cy="275.825" rx="100.625" ry="24.125" fill="#ffffff" stroke="#26364a" stroke-width="2"/><ellipse cx="357.875" cy="356.075" rx="100.625" ry="24.125" fill="#ffffff" stroke="#26364a" stroke-width="2"/><ellipse cx="591.125" cy="356.075" rx="100.625" ry="24.125" fill="#ffffff" stroke="#26364a" stroke-width="2"/><g fill="none" stroke="#26364a" stroke-width="2"><circle cx="841.75" cy="268.7" r="8"/><path d="M 841.75 276.7 V 302.7 M 824.75 286.7 H 858.75 M 841.75 302.7 L 826.75 320.7 M 841.75 302.7 L 856.75 320.7"/></g><g fill="none" stroke="#26364a" stroke-width="2"><circle cx="841.75" cy="348.95" r="8"/><path d="M 841.75 356.95 V 382.95 M 824.75 366.95 H 858.75 M 841.75 382.95 L 826.75 400.95 M 841.75 382.95 L 856.75 400.95"/></g></g>
  <g id="ports"></g>
  <g id="text"><text x="52" y="84" text-anchor="start" fill="#172033" font-family="ui-rounded, 'Comic Sans MS', sans-serif" font-size="32" font-weight="700">Online store — use-case diagram</text><text x="119.625" y="200.45" text-anchor="middle" fill="#172033" font-family="ui-rounded, 'Comic Sans MS', sans-serif" font-size="15" font-weight="450">Customer</text><text x="119.625" y="360.95" text-anchor="middle" fill="#172033" font-family="ui-rounded, 'Comic Sans MS', sans-serif" font-size="15" font-weight="450">Support Agent</text><text x="232.25" y="143.2" text-anchor="start" fill="#172033" font-family="ui-rounded, 'Comic Sans MS', sans-serif" font-size="15" font-weight="700">Online Store</text><text x="357.875" y="200.45" text-anchor="middle" fill="#172033" font-family="ui-rounded, 'Comic Sans MS', sans-serif" font-size="15" font-weight="450">Browse catalog</text><text x="591.125" y="200.45" text-anchor="middle" fill="#172033" font-family="ui-rounded, 'Comic Sans MS', sans-serif" font-size="15" font-weight="450">Checkout</text><text x="357.875" y="280.7" text-anchor="middle" fill="#172033" font-family="ui-rounded, 'Comic Sans MS', sans-serif" font-size="15" font-weight="450">Authenticate customer</text><text x="591.125" y="280.7" text-anchor="middle" fill="#172033" font-family="ui-rounded, 'Comic Sans MS', sans-serif" font-size="15" font-weight="450">Process payment</text><text x="357.875" y="360.95" text-anchor="middle" fill="#172033" font-family="ui-rounded, 'Comic Sans MS', sans-serif" font-size="15" font-weight="450">Refund order</text><text x="591.125" y="360.95" text-anchor="middle" fill="#172033" font-family="ui-rounded, 'Comic Sans MS', sans-serif" font-size="15" font-weight="450">Send notification</text><text x="841.75" y="280.7" text-anchor="middle" fill="#172033" font-family="ui-rounded, 'Comic Sans MS', sans-serif" font-size="15" font-weight="450">Payment Provider</text><text x="841.75" y="360.95" text-anchor="middle" fill="#172033" font-family="ui-rounded, 'Comic Sans MS', sans-serif" font-size="15" font-weight="450">Mail Service</text><g data-line-label="checkout-auth"><text x="434.6" y="240.7" text-anchor="middle" font-family="ui-rounded, sans-serif" font-size="13" fill="#334155" stroke="#ffffff" stroke-opacity=".92" stroke-width="3.5" stroke-linejoin="round" paint-order="stroke fill">include</text></g><g data-line-label="checkout-pay"><text x="553.225" y="240.7" text-anchor="middle" font-family="ui-rounded, sans-serif" font-size="13" fill="#334155" stroke="#ffffff" stroke-opacity=".92" stroke-width="3.5" stroke-linejoin="round" paint-order="stroke fill">include</text></g><g data-line-label="refund-notify"><text x="468.5" y="424.0958333333333" text-anchor="middle" font-family="ui-rounded, sans-serif" font-size="13" fill="#334155" stroke="#ffffff" stroke-opacity=".92" stroke-width="3.5" stroke-linejoin="round" paint-order="stroke fill">include</text></g><g data-line-label="refund-checkout"><text x="456.3" y="323.94331666666665" text-anchor="middle" font-family="ui-rounded, sans-serif" font-size="13" fill="#334155" stroke="#ffffff" stroke-opacity=".92" stroke-width="3.5" stroke-linejoin="round" paint-order="stroke fill">extend</text></g><g data-line-label="refund-checkout"><text x="524.7" y="323.94331666666665" text-anchor="middle" font-family="ui-rounded, sans-serif" font-size="13" fill="#334155" stroke="#ffffff" stroke-opacity=".92" stroke-width="3.5" stroke-linejoin="round" paint-order="stroke fill">[paid]</text></g></g>
</svg>