<?xml version="1.0" encoding="UTF-8"?>
<svg xmlns="http://www.w3.org/2000/svg" width="927" height="799" viewBox="0 0 927 799" role="img" aria-label="uml-activity-example">
  <title>uml-activity-example</title>
  <desc>Kvísl layouter prototype preview</desc>
  <rect width="100%" height="100%" fill="#ffffff"/>
  <g id="boundaries"><rect x="52" y="121.2" width="277.75" height="366.75" rx="14" fill="#f8fafc" stroke="#7b8794" stroke-width="2"/><rect x="365.75" y="121.2" width="244.25" height="625" rx="14" fill="#f8fafc" stroke="#7b8794" stroke-width="2"/><rect x="646" y="121.2" width="228.25" height="190.75" rx="14" fill="#f8fafc" stroke="#7b8794" stroke-width="2"/></g>
  <g id="corridor-dividers"></g>
  <g id="lines"><g data-line="start-submit"><polyline points="186.875,223.45 186.875,246.45 186.875,245.45 186.875,269.45" fill="none" stroke="#334155" stroke-width="2" stroke-linejoin="round" stroke-linecap="round"/><path d="M 180.875 257.45 L 186.875 269.45 L 192.875 257.45" fill="none" stroke="#334155" stroke-width="2" stroke-linejoin="round"/></g><g data-line="submit-validate"><polyline points="291.75,293.575 379.75,293.575 379.75,195.575 403.75,195.575" fill="none" stroke="#334155" stroke-width="2" stroke-linejoin="round" stroke-linecap="round"/><path d="M 391.75 201.575 L 403.75 195.575 L 391.75 189.575" fill="none" stroke="#334155" stroke-width="2" stroke-linejoin="round"/></g><g data-line="validate-choice"><polyline points="487.875,219.7 487.875,242.7 487.875,241.7 487.875,265.7" fill="none" stroke="#334155" stroke-width="2" stroke-linejoin="round" stroke-linecap="round"/><path d="M 481.875 253.7 L 487.875 265.7 L 493.875 253.7" fill="none" stroke="#334155" stroke-width="2" stroke-linejoin="round"/></g><g data-line="invalid-end"><polyline points="451.875,284.7 310.75,284.7 310.75,428.6166666666667 226.875,428.6166666666667" fill="none" stroke="#334155" stroke-width="2" stroke-linejoin="round" stroke-linecap="round"/><path d="M 238.875 422.6166666666667 L 226.875 428.6166666666667 L 238.875 434.6166666666667" fill="none" stroke="#334155" stroke-width="2" stroke-linejoin="round"/></g><g data-line="valid-authorize"><polyline points="487.875,303.7 487.875,326.7 487.875,325.7 487.875,349.7" fill="none" stroke="#334155" stroke-width="2" stroke-linejoin="round" stroke-linecap="round"/><path d="M 481.875 337.7 L 487.875 349.7 L 493.875 337.7" fill="none" stroke="#334155" stroke-width="2" stroke-linejoin="round"/></g><g data-line="authorize-choice"><polyline points="487.875,397.95 487.875,420.95 487.875,419.95 487.875,443.95" fill="none" stroke="#334155" stroke-width="2" stroke-linejoin="round" stroke-linecap="round"/><path d="M 481.875 431.95 L 487.875 443.95 L 493.875 431.95" fill="none" stroke="#334155" stroke-width="2" stroke-linejoin="round"/></g><g data-line="payment-retry"><polyline points="451.875,462.95 315.75,462.95 315.75,371.8666666666667 291.75,371.8666666666667" fill="none" stroke="#334155" stroke-width="2" stroke-linejoin="round" stroke-linecap="round"/><path d="M 303.75 365.8666666666667 L 291.75 371.8666666666667 L 303.75 377.8666666666667" fill="none" stroke="#334155" stroke-width="2" stroke-linejoin="round"/></g><g data-line="correct-authorize"><polyline points="291.75,355.7833333333333 379.75,355.7833333333333 379.75,373.825 403.75,373.825" fill="none" stroke="#334155" stroke-width="2" stroke-linejoin="round" stroke-linecap="round"/><path d="M 391.75 379.825 L 403.75 373.825 L 391.75 367.825" fill="none" stroke="#334155" stroke-width="2" stroke-linejoin="round"/></g><g data-line="authorized-fork"><polyline points="473.125,481.95 473.125,504.95000000000005 473.125,503.95000000000005 473.125,527.95" fill="none" stroke="#334155" stroke-width="2" stroke-linejoin="round" stroke-linecap="round"/><path d="M 467.125 515.95 L 473.125 527.95 L 479.125 515.95" fill="none" stroke="#334155" stroke-width="2" stroke-linejoin="round"/></g><g data-line="fork-reserve"><polyline points="487.875,527.95 487.875,507.95000000000005 613.9791666666667,507.95000000000005 613.9791666666667,243.7 740.0833333333334,243.7 740.0833333333334,219.7" fill="none" stroke="#334155" stroke-width="2" stroke-linejoin="round" stroke-linecap="round"/><path d="M 746.0833333333334 231.7 L 740.0833333333334 219.7 L 734.0833333333334 231.7" fill="none" stroke="#334155" stroke-width="2" stroke-linejoin="round"/></g><g data-line="fork-prepare"><polyline points="517.375,527.95 517.375,501.95000000000005 740.0833333333334,501.95000000000005 740.0833333333334,289.95" fill="none" stroke="#334155" stroke-width="2" stroke-linejoin="round" stroke-linecap="round"/><path d="M 746.0833333333334 301.95 L 740.0833333333334 289.95 L 734.0833333333334 301.95" fill="none" stroke="#334155" stroke-width="2" stroke-linejoin="round"/></g><g data-line="reserve-join"><polyline points="796.1666666666666,219.7 796.1666666666666,239.7 876.25,239.7 876.25,565.95 468.2083333333333,565.95 468.2083333333333,589.95" fill="none" stroke="#334155" stroke-width="2" stroke-linejoin="round" stroke-linecap="round"/><path d="M 462.2083333333333 577.95 L 468.2083333333333 589.95 L 474.2083333333333 577.95" fill="none" stroke="#334155" stroke-width="2" stroke-linejoin="round"/></g><g data-line="prepare-join"><polyline points="796.1666666666666,289.95 796.1666666666666,575.95 507.54166666666663,575.95 507.54166666666663,565.95 507.54166666666663,589.95" fill="none" stroke="#334155" stroke-width="2" stroke-linejoin="round" stroke-linecap="round"/><path d="M 501.54166666666663 577.95 L 507.54166666666663 589.95 L 513.5416666666666 577.95" fill="none" stroke="#334155" stroke-width="2" stroke-linejoin="round"/></g><g data-line="join-confirm"><polyline points="487.875,629.95 487.875,652.95 487.875,651.95 487.875,675.95" fill="none" stroke="#334155" stroke-width="2" stroke-linejoin="round" stroke-linecap="round"/><path d="M 481.875 663.95 L 487.875 675.95 L 493.875 663.95" fill="none" stroke="#334155" stroke-width="2" stroke-linejoin="round"/></g><g data-line="confirm-end"><polyline points="403.75,700.075 310.75,700.075 310.75,465.95 250.875,465.95 250.875,447.2833333333333 226.875,447.2833333333333" fill="none" stroke="#334155" stroke-width="2" stroke-linejoin="round" stroke-linecap="round"/><path d="M 238.875 441.2833333333333 L 226.875 447.2833333333333 L 238.875 453.2833333333333" fill="none" stroke="#334155" stroke-width="2" stroke-linejoin="round"/></g></g>
  <g id="objects"><circle cx="190.875" cy="197.45" r="26" fill="#172033"/><rect x="74" y="269.45" width="217.75" height="48.25" rx="14" fill="#ffffff" stroke="#26364a" stroke-width="2"/><rect x="74" y="339.7" width="217.75" height="48.25" rx="14" fill="#ffffff" stroke="#26364a" stroke-width="2"/><g><circle cx="190.875" cy="437.95" r="27" fill="white" stroke="#172033" stroke-width="2"/><circle cx="190.875" cy="437.95" r="22" fill="#172033"/></g><rect x="403.75" y="171.45" width="168.25" height="48.25" rx="14" fill="#ffffff" stroke="#26364a" stroke-width="2"/><polygon points="487.875,265.7 523.875,284.7 487.875,303.7 451.875,284.7" fill="#ffffff" stroke="#26364a" stroke-width="2"/><rect x="403.75" y="349.7" width="168.25" height="48.25" rx="14" fill="#ffffff" stroke="#26364a" stroke-width="2"/><polygon points="487.875,443.95 523.875,462.95 487.875,481.95 451.875,462.95" fill="#ffffff" stroke="#26364a" stroke-width="2"/><rect x="428.875" y="527.95" width="118" height="40.00000000000006" rx="3" fill="#172033"/><rect x="428.875" y="589.95" width="118" height="40" rx="3" fill="#172033"/><rect x="403.75" y="675.95" width="168.25" height="48.25" rx="14" fill="#ffffff" stroke="#26364a" stroke-width="2"/><rect x="684" y="171.45" width="168.25" height="48.25" rx="14" fill="#ffffff" stroke="#26364a" stroke-width="2"/><rect x="684" y="241.7" width="168.25" height="48.25" rx="14" fill="#ffffff" stroke="#26364a" stroke-width="2"/></g>
  <g id="ports"></g>
  <g id="text"><text x="52" y="84" text-anchor="start" fill="#172033" font-family="ui-rounded, 'Comic Sans MS', sans-serif" font-size="32" font-weight="700">Fulfil an order — activity diagram</text><text x="65" y="143.2" text-anchor="start" fill="#172033" font-family="ui-rounded, 'Comic Sans MS', sans-serif" font-size="15" font-weight="700">Customer</text><text x="182.875" y="298.45" text-anchor="middle" fill="#172033" font-family="ui-rounded, 'Comic Sans MS', sans-serif" font-size="15" font-weight="450">Submit order</text><text x="182.875" y="368.7" text-anchor="middle" fill="#172033" font-family="ui-rounded, 'Comic Sans MS', sans-serif" font-size="15" font-weight="450">Correct payment details</text><text x="378.75" y="143.2" text-anchor="start" fill="#172033" font-family="ui-rounded, 'Comic Sans MS', sans-serif" font-size="15" font-weight="700">Checkout Service</text><text x="487.875" y="200.45" text-anchor="middle" fill="#172033" font-family="ui-rounded, 'Comic Sans MS', sans-serif" font-size="15" font-weight="450">Validate order</text><text x="487.875" y="378.7" text-anchor="middle" fill="#172033" font-family="ui-rounded, 'Comic Sans MS', sans-serif" font-size="15" font-weight="450">Authorize payment</text><text x="487.875" y="704.95" text-anchor="middle" fill="#172033" font-family="ui-rounded, 'Comic Sans MS', sans-serif" font-size="15" font-weight="450">Confirm order</text><text x="659" y="143.2" text-anchor="start" fill="#172033" font-family="ui-rounded, 'Comic Sans MS', sans-serif" font-size="15" font-weight="700">Fulfillment</text><text x="768.125" y="200.45" text-anchor="middle" fill="#172033" font-family="ui-rounded, 'Comic Sans MS', sans-serif" font-size="15" font-weight="450">Reserve inventory</text><text x="768.125" y="270.7" text-anchor="middle" fill="#172033" font-family="ui-rounded, 'Comic Sans MS', sans-serif" font-size="15" font-weight="450">Prepare shipment</text><g data-line-label="invalid-end"><text x="411.05" y="318.7" text-anchor="middle" font-family="ui-rounded, sans-serif" font-size="13" fill="#334155" stroke="#ffffff" stroke-opacity=".92" stroke-width="3.5" stroke-linejoin="round" paint-order="stroke fill">[invalid]</text></g><g data-line-label="valid-authorize"><text x="525.775" y="339.09999999999997" text-anchor="middle" font-family="ui-rounded, sans-serif" font-size="13" fill="#334155" stroke="#ffffff" stroke-opacity=".92" stroke-width="3.5" stroke-linejoin="round" paint-order="stroke fill">[valid]</text></g><g data-line-label="payment-retry"><text x="414.75" y="424.95" text-anchor="middle" font-family="ui-rounded, sans-serif" font-size="13" fill="#334155" stroke="#ffffff" stroke-opacity=".92" stroke-width="3.5" stroke-linejoin="round" paint-order="stroke fill">[declined]</text></g><g data-line-label="authorized-fork"><text x="424.125" y="517.35" text-anchor="middle" font-family="ui-rounded, sans-serif" font-size="13" fill="#334155" stroke="#ffffff" stroke-opacity=".92" stroke-width="3.5" stroke-linejoin="round" paint-order="stroke fill">[approved]</text></g></g>
</svg>