<?xml version="1.0" encoding="UTF-8"?>
<svg xmlns="http://www.w3.org/2000/svg" width="1781" height="1000" viewBox="0 0 1781 1000" role="img" aria-label="uml-sequence-example">
  <title>uml-sequence-example</title>
  <desc>Kvísl layouter prototype preview</desc>
  <rect width="100%" height="100%" fill="#ffffff"/>
  <g id="boundaries"><rect x="531.875" y="487.45" width="1077.5" height="160.00000000000006" rx="14" fill="#f8fafc" stroke="#7b8794" stroke-width="2"/></g>
  <g id="corridor-dividers"></g>
  <g id="lines"><g data-line="spine"><polyline points="203.16071428571428,213.45 203.16071428571428,793.45" fill="none" stroke="#334155" stroke-width="2" stroke-linejoin="round" stroke-linecap="round"/></g><g data-line="spine"><polyline points="601.5767857142857,213.45 601.5767857142857,795.45" fill="none" stroke="#334155" stroke-width="2" stroke-linejoin="round" stroke-linecap="round"/></g><g data-line="spine"><polyline points="1132.3267857142857,213.45 1132.3267857142857,443.45" fill="none" stroke="#334155" stroke-width="2" stroke-linejoin="round" stroke-linecap="round"/></g><g data-line="spine"><polyline points="1559.375,213.45 1559.375,725.45" fill="none" stroke="#334155" stroke-width="2" stroke-linejoin="round" stroke-linecap="round"/></g><g data-line="submit"><polyline points="220.25,259.45 545.875,259.45" fill="none" stroke="#334155" stroke-width="2" stroke-linejoin="round" stroke-linecap="round"/><path d="M 533.875 265.45 L 545.875 259.45 L 533.875 253.45" fill="none" stroke="#334155" stroke-width="2" stroke-linejoin="round"/></g><g data-line="reserve"><polyline points="617.875,329.45 1076.625,329.45" fill="none" stroke="#334155" stroke-width="2" stroke-linejoin="round" stroke-linecap="round"/><path d="M 1064.625 335.45 L 1076.625 329.45 L 1064.625 323.45" fill="none" stroke="#334155" stroke-width="2" stroke-linejoin="round"/></g><g data-line="reserved"><polyline points="1076.625,399.45 617.875,399.45" fill="none" stroke="#334155" stroke-width="2" stroke-linejoin="round" stroke-linecap="round"/><path d="M 629.875 393.45 L 617.875 399.45 L 629.875 405.45" fill="none" stroke="#334155" stroke-width="2" stroke-linejoin="round"/></g><g data-line="authorize"><polyline points="617.875,469.45 841.25,469.45 841.25,515.45 1288,515.45 1288,469.45 1523.375,469.45" fill="none" stroke="#334155" stroke-width="2" stroke-linejoin="round" stroke-linecap="round"/><path d="M 1511.375 475.45 L 1523.375 469.45 L 1511.375 463.45" fill="none" stroke="#334155" stroke-width="2" stroke-linejoin="round"/></g><g data-line="poll"><polyline points="617.875,539.45 1523.375,539.45" fill="none" stroke="#334155" stroke-width="2" stroke-linejoin="round" stroke-linecap="round"/><path d="M 1511.375 545.45 L 1523.375 539.45 L 1511.375 533.45" fill="none" stroke="#334155" stroke-width="2" stroke-linejoin="round"/></g><g data-line="pending"><polyline points="1523.375,609.45 617.875,609.45" fill="none" stroke="#334155" stroke-width="2" stroke-linejoin="round" stroke-linecap="round"/><path d="M 629.875 603.45 L 617.875 609.45 L 629.875 615.45" fill="none" stroke="#334155" stroke-width="2" stroke-linejoin="round"/></g><g data-line="authorized"><polyline points="1523.375,679.45 617.875,679.45" fill="none" stroke="#334155" stroke-width="2" stroke-linejoin="round" stroke-linecap="round"/><path d="M 629.875 673.45 L 617.875 679.45 L 629.875 685.45" fill="none" stroke="#334155" stroke-width="2" stroke-linejoin="round"/></g><g data-line="confirmation"><polyline points="545.875,749.45 358.5,749.45 358.5,445.45 234.25,445.45 234.25,749.45 220.25,749.45" fill="none" stroke="#334155" stroke-width="2" stroke-linejoin="round" stroke-linecap="round"/><path d="M 232.25 743.45 L 220.25 749.45 L 232.25 755.45" fill="none" stroke="#334155" stroke-width="2" stroke-linejoin="round"/></g></g>
  <g id="objects"><rect x="96" y="165.2" width="176.5" height="48.25" rx="2" fill="#ffffff" stroke="#26364a" stroke-width="2"/><circle cx="184.25" cy="259.45" r="3" fill="#172033"/><circle cx="184.25" cy="749.45" r="3" fill="#172033"/><circle cx="184.25" cy="817.45" r="3" fill="#172033"/><rect x="456.5" y="165.2" width="250.75" height="48.25" rx="2" fill="#ffffff" stroke="#26364a" stroke-width="2"/><circle cx="581.875" cy="259.45" r="3" fill="#172033"/><circle cx="581.875" cy="329.45" r="3" fill="#172033"/><circle cx="581.875" cy="399.45" r="3" fill="#172033"/><circle cx="581.875" cy="469.45" r="3" fill="#172033"/><circle cx="581.875" cy="539.45" r="3" fill="#172033"/><circle cx="581.875" cy="609.45" r="3" fill="#172033"/><circle cx="581.875" cy="679.45" r="3" fill="#172033"/><circle cx="581.875" cy="749.45" r="3" fill="#172033"/><circle cx="581.875" cy="819.45" r="3" fill="#172033"/><rect x="545.875" y="235.45" width="72" height="538" rx="2" fill="#ffffff" stroke="#26364a" stroke-width="2"/><rect x="987.25" y="165.2" width="250.75" height="48.25" rx="2" fill="#ffffff" stroke="#26364a" stroke-width="2"/><circle cx="1112.625" cy="329.45" r="3" fill="#172033"/><circle cx="1112.625" cy="399.45" r="3" fill="#172033"/><circle cx="1112.625" cy="467.45" r="3" fill="#172033"/><rect x="1076.625" y="305.45" width="72" height="118" rx="2" fill="#ffffff" stroke="#26364a" stroke-width="2"/><rect x="1434" y="165.2" width="250.75" height="48.25" rx="2" fill="#ffffff" stroke="#26364a" stroke-width="2"/><circle cx="1559.375" cy="469.45" r="3" fill="#172033"/><circle cx="1559.375" cy="539.45" r="3" fill="#172033"/><circle cx="1559.375" cy="609.45" r="3" fill="#172033"/><circle cx="1559.375" cy="679.45" r="3" fill="#172033"/><circle cx="1559.375" cy="749.45" r="3" fill="#172033"/><rect x="1523.375" y="445.45" width="72" height="258.00000000000006" rx="2" fill="#ffffff" stroke="#26364a" stroke-width="2"/></g>
  <g id="ports"></g>
  <g id="text"><text x="52" y="84" text-anchor="start" fill="#172033" font-family="ui-rounded, 'Comic Sans MS', sans-serif" font-size="32" font-weight="700">Place an order — sequence diagram</text><text x="184.25" y="194.2" text-anchor="middle" fill="#172033" font-family="ui-rounded, 'Comic Sans MS', sans-serif" font-size="15" font-weight="450" text-decoration="underline">customer: Customer</text><text x="581.875" y="194.2" text-anchor="middle" fill="#172033" font-family="ui-rounded, 'Comic Sans MS', sans-serif" font-size="15" font-weight="450" text-decoration="underline">checkout: CheckoutService</text><text x="1112.625" y="194.2" text-anchor="middle" fill="#172033" font-family="ui-rounded, 'Comic Sans MS', sans-serif" font-size="15" font-weight="450" text-decoration="underline">inventory: InventoryService</text><text x="1559.375" y="194.2" text-anchor="middle" fill="#172033" font-family="ui-rounded, 'Comic Sans MS', sans-serif" font-size="15" font-weight="450" text-decoration="underline">payment: PaymentProvider</text><text x="1070.625" y="572.325" text-anchor="middle" fill="#172033" font-family="ui-rounded, 'Comic Sans MS', sans-serif" font-size="15" font-weight="700">loop [pending and attempts &lt; 3]</text><g><rect x="277.675" y="231.45" width="15.4" height="20" rx="4" fill="#ffffff" fill-opacity=".9"/><text x="285.375" y="246.45" text-anchor="middle" font-family="ui-rounded, sans-serif" font-size="13" fill="#334155">1</text></g><g><rect x="412.36875" y="231.45" width="104.2" height="20" rx="4" fill="#ffffff" fill-opacity=".9"/><text x="464.46875" y="246.45" text-anchor="middle" font-family="ui-rounded, sans-serif" font-size="13" fill="#334155">submit(order)</text></g><g><rect x="701.925" y="301.45" width="15.4" height="20" rx="4" fill="#ffffff" fill-opacity=".9"/><text x="709.625" y="316.45" text-anchor="middle" font-family="ui-rounded, sans-serif" font-size="13" fill="#334155">2</text></g><g><rect x="676.7625" y="337.45" width="111.60000000000001" height="20" rx="4" fill="#ffffff" fill-opacity=".9"/><text x="732.5625" y="352.45" text-anchor="middle" font-family="ui-rounded, sans-serif" font-size="13" fill="#334155">reserve(items)</text></g><g><rect x="977.175" y="371.45" width="15.4" height="20" rx="4" fill="#ffffff" fill-opacity=".9"/><text x="984.875" y="386.45" text-anchor="middle" font-family="ui-rounded, sans-serif" font-size="13" fill="#334155">3</text></g><g><rect x="687.8625" y="371.45" width="89.4" height="20" rx="4" fill="#ffffff" fill-opacity=".9"/><text x="732.5625" y="386.45" text-anchor="middle" font-family="ui-rounded, sans-serif" font-size="13" fill="#334155">reservation</text></g><g><rect x="922.9" y="523.45" width="15.4" height="20" rx="4" fill="#ffffff" fill-opacity=".9"/><text x="930.6" y="538.45" text-anchor="middle" font-family="ui-rounded, sans-serif" font-size="13" fill="#334155">4</text></g><g><rect x="1001.425" y="523.45" width="126.4" height="20" rx="4" fill="#ffffff" fill-opacity=".9"/><text x="1064.625" y="538.45" text-anchor="middle" font-family="ui-rounded, sans-serif" font-size="13" fill="#334155">authorize(total)</text></g><g><rect x="791.275" y="511.45000000000005" width="15.4" height="20" rx="4" fill="#ffffff" fill-opacity=".9"/><text x="798.975" y="526.45" text-anchor="middle" font-family="ui-rounded, sans-serif" font-size="13" fill="#334155">5</text></g><g><rect x="1037.025" y="558.45" width="67.2" height="20" rx="4" fill="#ffffff" fill-opacity=".9"/><text x="1070.625" y="573.45" text-anchor="middle" font-family="ui-rounded, sans-serif" font-size="13" fill="#334155">status()</text></g><g><rect x="1198.75" y="581.45" width="15.4" height="20" rx="4" fill="#ffffff" fill-opacity=".9"/><text x="1206.45" y="596.45" text-anchor="middle" font-family="ui-rounded, sans-serif" font-size="13" fill="#334155">6</text></g><g><rect x="1040.725" y="617.45" width="59.800000000000004" height="20" rx="4" fill="#ffffff" fill-opacity=".9"/><text x="1070.625" y="632.45" text-anchor="middle" font-family="ui-rounded, sans-serif" font-size="13" fill="#334155">pending</text></g><g><rect x="1198.75" y="651.45" width="15.4" height="20" rx="4" fill="#ffffff" fill-opacity=".9"/><text x="1206.45" y="666.45" text-anchor="middle" font-family="ui-rounded, sans-serif" font-size="13" fill="#334155">7</text></g><g><rect x="1029.625" y="651.45" width="82" height="20" rx="4" fill="#ffffff" fill-opacity=".9"/><text x="1070.625" y="666.45" text-anchor="middle" font-family="ui-rounded, sans-serif" font-size="13" fill="#334155">authorized</text></g><g><rect x="500.7" y="721.45" width="15.4" height="20" rx="4" fill="#ffffff" fill-opacity=".9"/><text x="508.4" y="736.45" text-anchor="middle" font-family="ui-rounded, sans-serif" font-size="13" fill="#334155">8</text></g><g><rect x="431.89374999999995" y="757.45" width="96.80000000000001" height="20" rx="4" fill="#ffffff" fill-opacity=".9"/><text x="480.29374999999993" y="772.45" text-anchor="middle" font-family="ui-rounded, sans-serif" font-size="13" fill="#334155">confirmation</text></g></g>
</svg>