<?xml version="1.0" encoding="UTF-8"?>
<svg xmlns="http://www.w3.org/2000/svg" width="1119" height="799" viewBox="0 0 1119 799" role="img" aria-label="uml-activity-example">
  <title>uml-activity-example</title>
  <desc>Kvísl layouter prototype preview</desc>
  <rect width="100%" height="100%" fill="#ffffff"/>
  <g id="boundaries"><rect x="52" y="121.2" width="333.75" height="366.75" rx="14" fill="#f8fafc" stroke="#7b8794" stroke-width="2"/><rect x="417.75" y="121.2" width="344.25" height="625" rx="14" fill="#f8fafc" stroke="#7b8794" stroke-width="2"/><rect x="794" y="121.2" width="272.25" height="190.75" rx="14" fill="#f8fafc" stroke="#7b8794" stroke-width="2"/></g>
  <g id="corridor-dividers"></g>
  <g id="lines"><g data-line="start-submit"><polyline points="204.875,223.45 204.875,269.45" fill="none" stroke="#334155" stroke-width="2" stroke-linejoin="round" stroke-linecap="round"/><path d="M 198.875 257.45 L 204.875 269.45 L 210.875 257.45" fill="none" stroke="#334155" stroke-width="2" stroke-linejoin="round"/></g><g data-line="submit-validate"><polyline points="291.75,293.575 497.75,293.575 497.75,195.575 511.75,195.575" fill="none" stroke="#334155" stroke-width="2" stroke-linejoin="round" stroke-linecap="round"/><path d="M 499.75 201.575 L 511.75 195.575 L 499.75 189.575" fill="none" stroke="#334155" stroke-width="2" stroke-linejoin="round"/></g><g data-line="validate-choice"><polyline points="613.9017857142858,219.7 613.9017857142858,265.7" fill="none" stroke="#334155" stroke-width="2" stroke-linejoin="round" stroke-linecap="round"/><path d="M 607.9017857142858 253.7 L 613.9017857142858 265.7 L 619.9017857142858 253.7" fill="none" stroke="#334155" stroke-width="2" stroke-linejoin="round"/></g><g data-line="invalid-end"><polyline points="559.875,284.7 327.75,284.7 327.75,428.6166666666667 218.875,428.6166666666667" fill="none" stroke="#334155" stroke-width="2" stroke-linejoin="round" stroke-linecap="round"/><path d="M 230.875 422.6166666666667 L 218.875 428.6166666666667 L 230.875 434.6166666666667" fill="none" stroke="#334155" stroke-width="2" stroke-linejoin="round"/></g><g data-line="valid-authorize"><polyline points="613.9017857142858,303.7 613.9017857142858,349.7" fill="none" stroke="#334155" stroke-width="2" stroke-linejoin="round" stroke-linecap="round"/><path d="M 607.9017857142858 337.7 L 613.9017857142858 349.7 L 619.9017857142858 337.7" fill="none" stroke="#334155" stroke-width="2" stroke-linejoin="round"/></g><g data-line="authorize-choice"><polyline points="573.875,397.95 573.875,443.95" fill="none" stroke="#334155" stroke-width="2" stroke-linejoin="round" stroke-linecap="round"/><path d="M 567.875 431.95 L 573.875 443.95 L 579.875 431.95" fill="none" stroke="#334155" stroke-width="2" stroke-linejoin="round"/></g><g data-line="payment-retry"><polyline points="559.875,462.95 305.75,462.95 305.75,355.7833333333333 291.75,355.7833333333333" fill="none" stroke="#334155" stroke-width="2" stroke-linejoin="round" stroke-linecap="round"/><path d="M 303.75 349.7833333333333 L 291.75 355.7833333333333 L 303.75 361.7833333333333" fill="none" stroke="#334155" stroke-width="2" stroke-linejoin="round"/></g><g data-line="correct-authorize"><polyline points="291.75,372.8458333333333 291.75,315.7 311.75,315.7 311.75,372.8458333333333 511.75,372.8458333333333" fill="none" stroke="#334155" stroke-width="2" stroke-linejoin="round" stroke-linecap="round"/><path d="M 499.75 378.8458333333333 L 511.75 372.8458333333333 L 499.75 366.8458333333333" fill="none" stroke="#334155" stroke-width="2" stroke-linejoin="round"/></g><g data-line="authorized-fork"><polyline points="615.2607142857144,481.95 615.2607142857144,527.95" fill="none" stroke="#334155" stroke-width="2" stroke-linejoin="round" stroke-linecap="round"/><path d="M 609.2607142857144 515.95 L 615.2607142857144 527.95 L 621.2607142857144 515.95" fill="none" stroke="#334155" stroke-width="2" stroke-linejoin="round"/></g><g data-line="fork-reserve"><polyline points="654.875,541.2833333333334 840,541.2833333333334 840,311.95 862,311.95 862,195.575 876,195.575" fill="none" stroke="#334155" stroke-width="2" stroke-linejoin="round" stroke-linecap="round"/><path d="M 864 201.575 L 876 195.575 L 864 189.575" fill="none" stroke="#334155" stroke-width="2" stroke-linejoin="round"/></g><g data-line="fork-prepare"><polyline points="654.875,554.6166666666668 876,554.6166666666668 876,257.7833333333333" fill="none" stroke="#334155" stroke-width="2" stroke-linejoin="round" stroke-linecap="round"/><path d="M 882 269.7833333333333 L 876 257.7833333333333 L 870 269.7833333333333" fill="none" stroke="#334155" stroke-width="2" stroke-linejoin="round"/></g><g data-line="reserve-join"><polyline points="960.125,219.7 960.125,233.7 1068.25,233.7 1068.25,575.95 595.875,575.95 595.875,589.95" fill="none" stroke="#334155" stroke-width="2" stroke-linejoin="round" stroke-linecap="round"/><path d="M 589.875 577.95 L 595.875 589.95 L 601.875 577.95" fill="none" stroke="#334155" stroke-width="2" stroke-linejoin="round"/></g><g data-line="prepare-join"><polyline points="876,273.8666666666667 716,273.8666666666667 716,441.90833333333336 654.875,441.90833333333336 654.875,609.95" fill="none" stroke="#334155" stroke-width="2" stroke-linejoin="round" stroke-linecap="round"/><path d="M 648.875 597.95 L 654.875 609.95 L 660.875 597.95" fill="none" stroke="#334155" stroke-width="2" stroke-linejoin="round"/></g><g data-line="join-confirm"><polyline points="565.8303571428571,629.95 565.8303571428571,675.95" fill="none" stroke="#334155" stroke-width="2" stroke-linejoin="round" stroke-linecap="round"/><path d="M 559.8303571428571 663.95 L 565.8303571428571 675.95 L 571.8303571428571 663.95" fill="none" stroke="#334155" stroke-width="2" stroke-linejoin="round"/></g><g data-line="confirm-end"><polyline points="511.75,700.075 303.75,700.075 303.75,487.95 238.875,487.95 238.875,447.2833333333333 218.875,447.2833333333333" fill="none" stroke="#334155" stroke-width="2" stroke-linejoin="round" stroke-linecap="round"/><path d="M 230.875 441.2833333333333 L 218.875 447.2833333333333 L 230.875 453.2833333333333" fill="none" stroke="#334155" stroke-width="2" stroke-linejoin="round"/></g></g>
  <g id="objects"><circle cx="182.875" cy="197.45" r="26" fill="#172033"/><rect x="74" y="269.45" width="217.75" height="48.25" rx="14" fill="#ffffff" stroke="#26364a" stroke-width="2"/><rect x="74" y="339.7" width="217.75" height="48.25" rx="14" fill="#ffffff" stroke="#26364a" stroke-width="2"/><g><circle cx="182.875" cy="437.95" r="27" fill="white" stroke="#172033" stroke-width="2"/><circle cx="182.875" cy="437.95" r="22" fill="#172033"/></g><rect x="511.75" y="171.45" width="168.25" height="48.25" rx="14" fill="#ffffff" stroke="#26364a" stroke-width="2"/><polygon points="595.875,265.7 631.875,284.7 595.875,303.7 559.875,284.7" fill="#ffffff" stroke="#26364a" stroke-width="2"/><rect x="511.75" y="349.7" width="168.25" height="48.25" rx="14" fill="#ffffff" stroke="#26364a" stroke-width="2"/><polygon points="595.875,443.95 631.875,462.95 595.875,481.95 559.875,462.95" fill="#ffffff" stroke="#26364a" stroke-width="2"/><rect x="536.875" y="527.95" width="118" height="40.00000000000006" rx="3" fill="#172033"/><rect x="536.875" y="589.95" width="118" height="40" rx="3" fill="#172033"/><rect x="511.75" y="675.95" width="168.25" height="48.25" rx="14" fill="#ffffff" stroke="#26364a" stroke-width="2"/><rect x="876" y="171.45" width="168.25" height="48.25" rx="14" fill="#ffffff" stroke="#26364a" stroke-width="2"/><rect x="876" y="241.7" width="168.25" height="48.25" rx="14" fill="#ffffff" stroke="#26364a" stroke-width="2"/></g>
  <g id="ports"></g>
  <g id="text"><text x="52" y="84" text-anchor="start" fill="#172033" font-family="ui-rounded, 'Comic Sans MS', sans-serif" font-size="32" font-weight="700">Fulfil an order — activity diagram</text><text x="65" y="143.2" text-anchor="start" fill="#172033" font-family="ui-rounded, 'Comic Sans MS', sans-serif" font-size="15" font-weight="700">Customer</text><text x="182.875" y="298.45" text-anchor="middle" fill="#172033" font-family="ui-rounded, 'Comic Sans MS', sans-serif" font-size="15" font-weight="450">Submit order</text><text x="182.875" y="368.7" text-anchor="middle" fill="#172033" font-family="ui-rounded, 'Comic Sans MS', sans-serif" font-size="15" font-weight="450">Correct payment details</text><text x="430.75" y="143.2" text-anchor="start" fill="#172033" font-family="ui-rounded, 'Comic Sans MS', sans-serif" font-size="15" font-weight="700">Checkout Service</text><text x="595.875" y="200.45" text-anchor="middle" fill="#172033" font-family="ui-rounded, 'Comic Sans MS', sans-serif" font-size="15" font-weight="450">Validate order</text><text x="595.875" y="378.7" text-anchor="middle" fill="#172033" font-family="ui-rounded, 'Comic Sans MS', sans-serif" font-size="15" font-weight="450">Authorize payment</text><text x="595.875" y="704.95" text-anchor="middle" fill="#172033" font-family="ui-rounded, 'Comic Sans MS', sans-serif" font-size="15" font-weight="450">Confirm order</text><text x="807" y="143.2" text-anchor="start" fill="#172033" font-family="ui-rounded, 'Comic Sans MS', sans-serif" font-size="15" font-weight="700">Fulfillment</text><text x="960.125" y="200.45" text-anchor="middle" fill="#172033" font-family="ui-rounded, 'Comic Sans MS', sans-serif" font-size="15" font-weight="450">Reserve inventory</text><text x="960.125" y="270.7" text-anchor="middle" fill="#172033" font-family="ui-rounded, 'Comic Sans MS', sans-serif" font-size="15" font-weight="450">Prepare shipment</text><g><rect x="441.33125" y="256.7" width="74.60000000000001" height="20" rx="4" fill="#ffffff" fill-opacity=".9"/><text x="478.63125" y="271.7" text-anchor="middle" font-family="ui-rounded, sans-serif" font-size="13" fill="#334155">[invalid]</text></g><g><rect x="546.1017857142858" y="316.7" width="59.800000000000004" height="20" rx="4" fill="#ffffff" fill-opacity=".9"/><text x="576.0017857142858" y="331.7" text-anchor="middle" font-family="ui-rounded, sans-serif" font-size="13" fill="#334155">[valid]</text></g><g><rect x="429.93125" y="434.95" width="82" height="20" rx="4" fill="#ffffff" fill-opacity=".9"/><text x="470.93125" y="449.95" text-anchor="middle" font-family="ui-rounded, sans-serif" font-size="13" fill="#334155">[declined]</text></g><g><rect x="525.2607142857144" y="494.95000000000005" width="82" height="20" rx="4" fill="#ffffff" fill-opacity=".9"/><text x="566.2607142857144" y="509.95000000000005" text-anchor="middle" font-family="ui-rounded, sans-serif" font-size="13" fill="#334155">[approved]</text></g></g>
</svg>