<?xml version="1.0" encoding="UTF-8"?>
<svg xmlns="http://www.w3.org/2000/svg" width="927" height="671" viewBox="0 0 927 671" role="img" aria-label="uml-deployment-example">
  <title>uml-deployment-example</title>
  <desc>Kvísl layouter prototype preview</desc>
  <rect width="100%" height="100%" fill="#ffffff"/>
  <g id="boundaries"><g><rect x="52" y="299.7" width="179.25" height="140.75" rx="6" fill="#f8fafc" stroke="#7b8794" stroke-width="2"/><path d="M 60 307.7 L 70 297.7 H 239.25 V 430.45 L 231.25 440.45" fill="none" stroke="#26364a" stroke-width="2"/></g><g><rect x="287.25" y="121.2" width="352.25" height="497.75000000000006" rx="6" fill="#f8fafc" stroke="#7b8794" stroke-width="2"/><path d="M 295.25 129.2 L 305.25 119.2 H 647.5 V 608.95 L 639.5 618.95" fill="none" stroke="#26364a" stroke-width="2"/></g><g><rect x="695.5" y="299.7" width="179.25" height="140.75" rx="6" fill="#f8fafc" stroke="#7b8794" stroke-width="2"/><path d="M 703.5 307.7 L 713.5 297.7 H 882.75 V 430.45 L 874.75 440.45" fill="none" stroke="#26364a" stroke-width="2"/></g><g><rect x="333.25" y="171.45" width="260.25" height="259" rx="6" fill="#f8fafc" stroke="#7b8794" stroke-width="2"/><path d="M 341.25 179.45 L 351.25 169.45 H 601.5 V 420.45 L 593.5 430.45" fill="none" stroke="#26364a" stroke-width="2"/></g><g><rect x="333.25" y="476.45" width="260.25" height="120.50000000000006" rx="6" fill="#f8fafc" stroke="#7b8794" stroke-width="2"/><path d="M 341.25 484.45 L 351.25 474.45 H 601.5 V 586.95 L 593.5 596.95" fill="none" stroke="#26364a" stroke-width="2"/></g></g>
  <g id="corridor-dividers"></g>
  <g id="lines"><g data-line="browser-checkout"><polyline points="231.25,370.075 259.25,370.075 259.25,245.825 379.25,245.825" fill="none" stroke="#334155" stroke-width="2" stroke-linejoin="round" stroke-linecap="round"/></g><g data-line="checkout-inventory"><polyline points="537.8857142857142,269.95 537.8857142857142,453.45 365.25,453.45 365.25,476.45 317.25,476.45 317.25,550.825 379.25,550.825" fill="none" stroke="#334155" stroke-width="2" stroke-linejoin="round" stroke-linecap="round"/></g><g data-line="checkout-database"><polyline points="547.5,245.825 667.5,245.825 667.5,370.075 695.5,370.075" fill="none" stroke="#334155" stroke-width="2" stroke-linejoin="round" stroke-linecap="round"/></g><g data-line="image-deploys-checkout"><polyline points="428.5232142857143,315.95 428.5232142857143,269.95" fill="none" stroke="#334155" stroke-width="2" stroke-linejoin="round" stroke-linecap="round"/><path d="M 434.5232142857143 281.95 L 428.5232142857143 269.95 L 422.5232142857143 281.95" fill="none" stroke="#334155" stroke-width="2" stroke-linejoin="round"/></g></g>
  <g id="objects"><g><rect x="74" y="349.95" width="135.25" height="68.5" rx="5" fill="#ffffff" stroke="#26364a" stroke-width="2"/><path d="M 189.25 349.95 V 369.95 H 209.25" fill="none" stroke="#26364a" stroke-width="2"/></g><g><rect x="379.25" y="221.7" width="168.25" height="48.25" rx="7" fill="#ffffff" stroke="#26364a" stroke-width="2"/><rect x="374.25" y="235.7" width="18" height="10" fill="white" stroke="#26364a"/><rect x="374.25" y="252.7" width="18" height="10" fill="white" stroke="#26364a"/></g><g><rect x="395.75" y="315.95" width="135.25" height="68.5" rx="5" fill="#ffffff" stroke="#26364a" stroke-width="2"/><path d="M 511 315.95 V 335.95 H 531" fill="none" stroke="#26364a" stroke-width="2"/></g><g><rect x="379.25" y="526.7" width="168.25" height="48.25000000000006" rx="7" fill="#ffffff" stroke="#26364a" stroke-width="2"/><rect x="374.25" y="540.7" width="18" height="10" fill="white" stroke="#26364a"/><rect x="374.25" y="557.7" width="18" height="10" fill="white" stroke="#26364a"/></g><g><rect x="717.5" y="349.95" width="135.25" height="68.5" rx="5" fill="#ffffff" stroke="#26364a" stroke-width="2"/><path d="M 832.75 349.95 V 369.95 H 852.75" fill="none" stroke="#26364a" stroke-width="2"/></g></g>
  <g id="ports"><rect x="374.25" y="240.825" width="10" height="10" fill="white" stroke="#334155" stroke-width="2"/><rect x="374.25" y="545.825" width="10" height="10" fill="white" stroke="#334155" stroke-width="2"/></g>
  <g id="text"><text x="52" y="84" text-anchor="start" fill="#172033" font-family="ui-rounded, 'Comic Sans MS', sans-serif" font-size="32" font-weight="700">Production checkout — deployment diagram</text><text x="65" y="321.7" text-anchor="start" fill="#172033" font-family="ui-rounded, 'Comic Sans MS', sans-serif" font-size="15" font-weight="700">Customer Browser</text><text x="141.625" y="378.95" text-anchor="middle" fill="#172033" font-family="ui-rounded, 'Comic Sans MS', sans-serif" font-size="15" font-weight="450">«artifact»</text><text x="141.625" y="399.2" text-anchor="middle" fill="#172033" font-family="ui-rounded, 'Comic Sans MS', sans-serif" font-size="15" font-weight="450">checkout.js</text><text x="300.25" y="143.2" text-anchor="start" fill="#172033" font-family="ui-rounded, 'Comic Sans MS', sans-serif" font-size="15" font-weight="700">Production Cluster</text><text x="346.25" y="193.45" text-anchor="start" fill="#172033" font-family="ui-rounded, 'Comic Sans MS', sans-serif" font-size="15" font-weight="700">checkout-7f9d</text><text x="463.375" y="250.7" text-anchor="middle" fill="#172033" font-family="ui-rounded, 'Comic Sans MS', sans-serif" font-size="15" font-weight="450">Checkout Service</text><text x="463.375" y="344.95" text-anchor="middle" fill="#172033" font-family="ui-rounded, 'Comic Sans MS', sans-serif" font-size="15" font-weight="450">«artifact»</text><text x="463.375" y="365.2" text-anchor="middle" fill="#172033" font-family="ui-rounded, 'Comic Sans MS', sans-serif" font-size="15" font-weight="450">checkout:v42</text><text x="346.25" y="498.45" text-anchor="start" fill="#172033" font-family="ui-rounded, 'Comic Sans MS', sans-serif" font-size="15" font-weight="700">inventory-55c8</text><text x="463.375" y="555.7" text-anchor="middle" fill="#172033" font-family="ui-rounded, 'Comic Sans MS', sans-serif" font-size="15" font-weight="450">Inventory Service</text><text x="708.5" y="321.7" text-anchor="start" fill="#172033" font-family="ui-rounded, 'Comic Sans MS', sans-serif" font-size="15" font-weight="700">PostgreSQL</text><text x="785.125" y="378.95" text-anchor="middle" fill="#172033" font-family="ui-rounded, 'Comic Sans MS', sans-serif" font-size="15" font-weight="450">«artifact»</text><text x="785.125" y="399.2" text-anchor="middle" fill="#172033" font-family="ui-rounded, 'Comic Sans MS', sans-serif" font-size="15" font-weight="450">orders schema</text><g data-line-label="browser-checkout"><text x="228.75" y="281.8875" text-anchor="middle" font-family="ui-rounded, sans-serif" font-size="13" fill="#334155" stroke="#ffffff" stroke-opacity=".92" stroke-width="3.5" stroke-linejoin="round" paint-order="stroke fill">HTTPS</text></g><g data-line-label="checkout-inventory"><text x="451.5678571428571" y="415.45" text-anchor="middle" font-family="ui-rounded, sans-serif" font-size="13" fill="#334155" stroke="#ffffff" stroke-opacity=".92" stroke-width="3.5" stroke-linejoin="round" paint-order="stroke fill">gRPC</text></g><g data-line-label="checkout-database"><text x="589.5" y="143.825" text-anchor="middle" font-family="ui-rounded, sans-serif" font-size="13" fill="#334155" stroke="#ffffff" stroke-opacity=".92" stroke-width="3.5" stroke-linejoin="round" paint-order="stroke fill">TCP / SQL</text></g><g data-line-label="image-deploys-checkout"><text x="394.3232142857143" y="297.95" text-anchor="middle" font-family="ui-rounded, sans-serif" font-size="13" fill="#334155" stroke="#ffffff" stroke-opacity=".92" stroke-width="3.5" stroke-linejoin="round" paint-order="stroke fill">deploy</text></g></g>
</svg>