<?xml version="1.0" encoding="UTF-8"?>
<svg xmlns="http://www.w3.org/2000/svg" width="2021" height="1000" viewBox="0 0 2021 1000" role="img" aria-label="uml-sequence-example">
  <title>uml-sequence-example</title>
  <desc>Kvísl layouter prototype preview</desc>
  <rect width="100%" height="100%" fill="#ffffff"/>
  <g id="boundaries"><rect x="626.075" y="487.45" width="1223.4999999999998" height="160.00000000000006" rx="14" fill="#f8fafc" stroke="#7b8794" stroke-width="2"/></g>
  <g id="corridor-dividers"></g>
  <g id="lines"><g data-line="spine"><polyline points="203.16071428571428,213.45 203.16071428571428,793.45" fill="none" stroke="#334155" stroke-width="2" stroke-linejoin="round" stroke-linecap="round"/></g><g data-line="spine"><polyline points="695.7767857142858,213.45 695.7767857142858,795.45" fill="none" stroke="#334155" stroke-width="2" stroke-linejoin="round" stroke-linecap="round"/></g><g data-line="spine"><polyline points="1280.1267857142857,213.45 1280.1267857142857,443.45" fill="none" stroke="#334155" stroke-width="2" stroke-linejoin="round" stroke-linecap="round"/></g><g data-line="spine"><polyline points="1799.5749999999998,213.45 1799.5749999999998,725.45" fill="none" stroke="#334155" stroke-width="2" stroke-linejoin="round" stroke-linecap="round"/></g><g data-line="submit"><polyline points="220.25,259.45 640.075,259.45" fill="none" stroke="#334155" stroke-width="2" stroke-linejoin="round" stroke-linecap="round"/><path d="M 628.075 265.45 L 640.075 259.45 L 628.075 253.45" fill="none" stroke="#334155" stroke-width="2" stroke-linejoin="round"/></g><g data-line="reserve"><polyline points="712.075,329.45 1224.425,329.45" fill="none" stroke="#334155" stroke-width="2" stroke-linejoin="round" stroke-linecap="round"/><path d="M 1212.425 335.45 L 1224.425 329.45 L 1212.425 323.45" fill="none" stroke="#334155" stroke-width="2" stroke-linejoin="round"/></g><g data-line="reserved"><polyline points="1224.425,399.45 712.075,399.45" fill="none" stroke="#334155" stroke-width="2" stroke-linejoin="round" stroke-linecap="round"/><path d="M 724.075 393.45 L 712.075 399.45 L 724.075 405.45" fill="none" stroke="#334155" stroke-width="2" stroke-linejoin="round"/></g><g data-line="authorize"><polyline points="712.075,469.45 962.25,469.45 962.25,515.45 1482,515.45 1482,469.45 1763.5749999999998,469.45" fill="none" stroke="#334155" stroke-width="2" stroke-linejoin="round" stroke-linecap="round"/><path d="M 1751.5749999999998 475.45 L 1763.5749999999998 469.45 L 1751.5749999999998 463.45" fill="none" stroke="#334155" stroke-width="2" stroke-linejoin="round"/></g><g data-line="poll"><polyline points="712.075,539.45 1763.5749999999998,539.45" fill="none" stroke="#334155" stroke-width="2" stroke-linejoin="round" stroke-linecap="round"/><path d="M 1751.5749999999998 545.45 L 1763.5749999999998 539.45 L 1751.5749999999998 533.45" fill="none" stroke="#334155" stroke-width="2" stroke-linejoin="round"/></g><g data-line="pending"><polyline points="1763.5749999999998,609.45 712.075,609.45" fill="none" stroke="#334155" stroke-width="2" stroke-linejoin="round" stroke-linecap="round"/><path d="M 724.075 603.45 L 712.075 609.45 L 724.075 615.45" fill="none" stroke="#334155" stroke-width="2" stroke-linejoin="round"/></g><g data-line="authorized"><polyline points="1763.5749999999998,679.45 712.075,679.45" fill="none" stroke="#334155" stroke-width="2" stroke-linejoin="round" stroke-linecap="round"/><path d="M 724.075 673.45 L 712.075 679.45 L 724.075 685.45" fill="none" stroke="#334155" stroke-width="2" stroke-linejoin="round"/></g><g data-line="confirmation"><polyline points="640.075,749.45 405.6,749.45 405.6,445.45 234.25,445.45 234.25,749.45 220.25,749.45" fill="none" stroke="#334155" stroke-width="2" stroke-linejoin="round" stroke-linecap="round"/><path d="M 232.25 743.45 L 220.25 749.45 L 232.25 755.45" fill="none" stroke="#334155" stroke-width="2" stroke-linejoin="round"/></g></g>
  <g id="objects"><rect x="96" y="165.2" width="176.5" height="48.25" rx="2" fill="#ffffff" stroke="#26364a" stroke-width="2"/><circle cx="184.25" cy="259.45" r="3" fill="#172033"/><circle cx="184.25" cy="749.45" r="3" fill="#172033"/><circle cx="184.25" cy="817.45" r="3" fill="#172033"/><rect x="550.7" y="165.2" width="250.75" height="48.25" rx="2" fill="#ffffff" stroke="#26364a" stroke-width="2"/><circle cx="676.075" cy="259.45" r="3" fill="#172033"/><circle cx="676.075" cy="329.45" r="3" fill="#172033"/><circle cx="676.075" cy="399.45" r="3" fill="#172033"/><circle cx="676.075" cy="469.45" r="3" fill="#172033"/><circle cx="676.075" cy="539.45" r="3" fill="#172033"/><circle cx="676.075" cy="609.45" r="3" fill="#172033"/><circle cx="676.075" cy="679.45" r="3" fill="#172033"/><circle cx="676.075" cy="749.45" r="3" fill="#172033"/><circle cx="676.075" cy="819.45" r="3" fill="#172033"/><rect x="640.075" y="235.45" width="72" height="538" rx="2" fill="#ffffff" stroke="#26364a" stroke-width="2"/><rect x="1135.05" y="165.2" width="250.75" height="48.25" rx="2" fill="#ffffff" stroke="#26364a" stroke-width="2"/><circle cx="1260.425" cy="329.45" r="3" fill="#172033"/><circle cx="1260.425" cy="399.45" r="3" fill="#172033"/><circle cx="1260.425" cy="467.45" r="3" fill="#172033"/><rect x="1224.425" y="305.45" width="72" height="118" rx="2" fill="#ffffff" stroke="#26364a" stroke-width="2"/><rect x="1674.1999999999998" y="165.2" width="250.75" height="48.25" rx="2" fill="#ffffff" stroke="#26364a" stroke-width="2"/><circle cx="1799.5749999999998" cy="469.45" r="3" fill="#172033"/><circle cx="1799.5749999999998" cy="539.45" r="3" fill="#172033"/><circle cx="1799.5749999999998" cy="609.45" r="3" fill="#172033"/><circle cx="1799.5749999999998" cy="679.45" r="3" fill="#172033"/><circle cx="1799.5749999999998" cy="749.45" r="3" fill="#172033"/><rect x="1763.5749999999998" y="445.45" width="72" height="258.00000000000006" rx="2" fill="#ffffff" stroke="#26364a" stroke-width="2"/></g>
  <g id="ports"></g>
  <g id="text"><text x="52" y="84" text-anchor="start" fill="#172033" font-family="ui-rounded, 'Comic Sans MS', sans-serif" font-size="32" font-weight="700">Place an order — sequence diagram</text><text x="184.25" y="194.2" text-anchor="middle" fill="#172033" font-family="ui-rounded, 'Comic Sans MS', sans-serif" font-size="15" font-weight="450" text-decoration="underline">customer: Customer</text><text x="676.075" y="194.2" text-anchor="middle" fill="#172033" font-family="ui-rounded, 'Comic Sans MS', sans-serif" font-size="15" font-weight="450" text-decoration="underline">checkout: CheckoutService</text><text x="1260.425" y="194.2" text-anchor="middle" fill="#172033" font-family="ui-rounded, 'Comic Sans MS', sans-serif" font-size="15" font-weight="450" text-decoration="underline">inventory: InventoryService</text><text x="1799.5749999999998" y="194.2" text-anchor="middle" fill="#172033" font-family="ui-rounded, 'Comic Sans MS', sans-serif" font-size="15" font-weight="450" text-decoration="underline">payment: PaymentProvider</text><text x="1237.8249999999998" y="572.325" text-anchor="middle" fill="#172033" font-family="ui-rounded, 'Comic Sans MS', sans-serif" font-size="15" font-weight="700">loop [pending and attempts &lt; 3]</text><g><rect x="296.51500000000004" y="231.45" width="15.4" height="20" rx="4" fill="#ffffff" fill-opacity=".9"/><text x="304.21500000000003" y="246.45" text-anchor="middle" font-family="ui-rounded, sans-serif" font-size="13" fill="#334155">1</text></g><g><rect x="378.0625" y="231.45" width="104.2" height="20" rx="4" fill="#ffffff" fill-opacity=".9"/><text x="430.1625" y="246.45" text-anchor="middle" font-family="ui-rounded, sans-serif" font-size="13" fill="#334155">submit(order)</text></g><g><rect x="806.845" y="301.45" width="15.4" height="20" rx="4" fill="#ffffff" fill-opacity=".9"/><text x="814.5450000000001" y="316.45" text-anchor="middle" font-family="ui-rounded, sans-serif" font-size="13" fill="#334155">2</text></g><g><rect x="912.45" y="301.45" width="111.60000000000001" height="20" rx="4" fill="#ffffff" fill-opacity=".9"/><text x="968.25" y="316.45" text-anchor="middle" font-family="ui-rounded, sans-serif" font-size="13" fill="#334155">reserve(items)</text></g><g><rect x="1114.2549999999999" y="371.45" width="15.4" height="20" rx="4" fill="#ffffff" fill-opacity=".9"/><text x="1121.955" y="386.45" text-anchor="middle" font-family="ui-rounded, sans-serif" font-size="13" fill="#334155">3</text></g><g><rect x="923.55" y="371.45" width="89.4" height="20" rx="4" fill="#ffffff" fill-opacity=".9"/><text x="968.25" y="386.45" text-anchor="middle" font-family="ui-rounded, sans-serif" font-size="13" fill="#334155">reservation</text></g><g><rect x="1058.5" y="523.45" width="15.4" height="20" rx="4" fill="#ffffff" fill-opacity=".9"/><text x="1066.2" y="538.45" text-anchor="middle" font-family="ui-rounded, sans-serif" font-size="13" fill="#334155">4</text></g><g><rect x="1158.925" y="523.45" width="126.4" height="20" rx="4" fill="#ffffff" fill-opacity=".9"/><text x="1222.125" y="538.45" text-anchor="middle" font-family="ui-rounded, sans-serif" font-size="13" fill="#334155">authorize(total)</text></g><g><rect x="914.675" y="511.45000000000005" width="15.4" height="20" rx="4" fill="#ffffff" fill-opacity=".9"/><text x="922.375" y="526.45" text-anchor="middle" font-family="ui-rounded, sans-serif" font-size="13" fill="#334155">5</text></g><g><rect x="1204.225" y="558.45" width="67.2" height="20" rx="4" fill="#ffffff" fill-opacity=".9"/><text x="1237.8249999999998" y="573.45" text-anchor="middle" font-family="ui-rounded, sans-serif" font-size="13" fill="#334155">status()</text></g><g><rect x="1545.5749999999998" y="581.45" width="15.4" height="20" rx="4" fill="#ffffff" fill-opacity=".9"/><text x="1553.2749999999999" y="596.45" text-anchor="middle" font-family="ui-rounded, sans-serif" font-size="13" fill="#334155">6</text></g><g><rect x="1207.9249999999997" y="617.45" width="59.800000000000004" height="20" rx="4" fill="#ffffff" fill-opacity=".9"/><text x="1237.8249999999998" y="632.45" text-anchor="middle" font-family="ui-rounded, sans-serif" font-size="13" fill="#334155">pending</text></g><g><rect x="1545.5749999999998" y="651.45" width="15.4" height="20" rx="4" fill="#ffffff" fill-opacity=".9"/><text x="1553.2749999999999" y="666.45" text-anchor="middle" font-family="ui-rounded, sans-serif" font-size="13" fill="#334155">7</text></g><g><rect x="1196.8249999999998" y="651.45" width="82" height="20" rx="4" fill="#ffffff" fill-opacity=".9"/><text x="1237.8249999999998" y="666.45" text-anchor="middle" font-family="ui-rounded, sans-serif" font-size="13" fill="#334155">authorized</text></g><g><rect x="585.48" y="721.45" width="15.4" height="20" rx="4" fill="#ffffff" fill-opacity=".9"/><text x="593.1800000000001" y="736.45" text-anchor="middle" font-family="ui-rounded, sans-serif" font-size="13" fill="#334155">8</text></g><g><rect x="509.6087500000001" y="757.45" width="96.80000000000001" height="20" rx="4" fill="#ffffff" fill-opacity=".9"/><text x="558.0087500000001" y="772.45" text-anchor="middle" font-family="ui-rounded, sans-serif" font-size="13" fill="#334155">confirmation</text></g></g>
</svg>