<?xml version="1.0" encoding="UTF-8"?>
<svg xmlns="http://www.w3.org/2000/svg" width="707" height="702" viewBox="0 0 707 702" role="img" aria-label="uml-package-example">
  <title>uml-package-example</title>
  <desc>Kvísl layouter prototype preview</desc>
  <rect width="100%" height="100%" fill="#ffffff"/>
  <g id="boundaries"><path d="M 52 145.2 V 456.7 H 294.5 V 145.2 H 156.4 L 146.4 121.2 H 52 Z" fill="#f8fafc" stroke="#7b8794" stroke-width="2"/><path d="M 330.5 145.2 V 277.95 H 529 V 145.2 H 444.2 L 434.2 121.2 H 330.5 Z" fill="#f8fafc" stroke="#7b8794" stroke-width="2"/><path d="M 65.75 516.7 V 649.45 H 280.75 V 516.7 H 170.15 L 160.15 492.7 H 65.75 Z" fill="#f8fafc" stroke="#7b8794" stroke-width="2"/><path d="M 344.25 516.7 V 649.45 H 515.25 V 516.7 H 463.95 L 453.95 492.7 H 344.25 Z" fill="#f8fafc" stroke="#7b8794" stroke-width="2"/><path d="M 74 301.95 V 434.7 H 272.5 V 301.95 H 206.3 L 196.3 277.95 H 74 Z" fill="#f8fafc" stroke="#7b8794" stroke-width="2"/></g>
  <g id="corridor-dividers"></g>
  <g id="lines"><g data-line="checkout-inventory"><polyline points="294.5,244.2625 308.5,244.2625 306.5,244.2625 330.5,244.2625" fill="none" stroke="#334155" stroke-width="2" stroke-linejoin="round" stroke-linecap="round"/><path d="M 318.5 250.2625 L 330.5 244.2625 L 318.5 238.2625" fill="none" stroke="#334155" stroke-width="2" stroke-linejoin="round"/></g><g data-line="checkout-payments"><polyline points="153.04166666666666,456.7 153.04166666666666,470.7 153.04166666666666,468.7 153.04166666666666,492.7" fill="none" stroke="#334155" stroke-width="2" stroke-linejoin="round" stroke-linecap="round"/><path d="M 147.04166666666666 480.7 L 153.04166666666666 492.7 L 159.04166666666666 480.7" fill="none" stroke="#334155" stroke-width="2" stroke-linejoin="round"/></g><g data-line="checkout-shared"><polyline points="213.66666666666666,456.7 213.66666666666666,476.7 429.75,476.7 429.75,468.7 429.75,492.7" fill="none" stroke="#334155" stroke-width="2" stroke-linejoin="round" stroke-linecap="round"/><path d="M 423.75 480.7 L 429.75 492.7 L 435.75 480.7" fill="none" stroke="#334155" stroke-width="2" stroke-linejoin="round"/></g><g data-line="payments-shared"><polyline points="280.75,571.075 344.25,571.075" fill="none" stroke="#334155" stroke-width="2" stroke-linejoin="round" stroke-linecap="round"/><path d="M 332.25 577.075 L 344.25 571.075 L 332.25 565.075" fill="none" stroke="#334155" stroke-width="2" stroke-linejoin="round"/></g></g>
  <g id="objects"><rect x="87.75" y="171.45" width="171" height="84.5" rx="2" fill="#ffffff" stroke="#26364a" stroke-width="2"/><rect x="96" y="328.2" width="154.5" height="84.5" rx="2" fill="#ffffff" stroke="#26364a" stroke-width="2"/><rect x="352.5" y="171.45" width="154.5" height="84.5" rx="2" fill="#ffffff" stroke="#26364a" stroke-width="2"/><rect x="96" y="542.95" width="154.5" height="84.5" rx="2" fill="#ffffff" stroke="#26364a" stroke-width="2"/><rect x="393.75" y="542.95" width="72" height="84.5" rx="2" fill="#ffffff" stroke="#26364a" stroke-width="2"/></g>
  <g id="ports"></g>
  <g id="text"><text x="52" y="84" text-anchor="start" fill="#172033" font-family="ui-rounded, 'Comic Sans MS', sans-serif" font-size="32" font-weight="700">Commerce modules — package diagram</text><text x="65" y="138.2" text-anchor="start" fill="#172033" font-family="ui-rounded, 'Comic Sans MS', sans-serif" font-size="15" font-weight="700">checkout</text><text x="100.75" y="218.575" text-anchor="start" fill="#172033" font-family="ui-rounded, 'Comic Sans MS', sans-serif" font-size="15" font-weight="700">CheckoutService</text><path d="M 88.75 226.825 H 257.75" stroke="#26364a" stroke-width="1"/><path d="M 88.75 226.825 H 257.75" stroke="#26364a" stroke-width="1"/><text x="87" y="294.95" text-anchor="start" fill="#172033" font-family="ui-rounded, 'Comic Sans MS', sans-serif" font-size="15" font-weight="700">application</text><text x="109" y="375.325" text-anchor="start" fill="#172033" font-family="ui-rounded, 'Comic Sans MS', sans-serif" font-size="15" font-weight="700">PlaceOrder</text><path d="M 97 383.575 H 249.5" stroke="#26364a" stroke-width="1"/><path d="M 97 383.575 H 249.5" stroke="#26364a" stroke-width="1"/><text x="343.5" y="138.2" text-anchor="start" fill="#172033" font-family="ui-rounded, 'Comic Sans MS', sans-serif" font-size="15" font-weight="700">inventory</text><text x="365.5" y="208.45" text-anchor="start" fill="#172033" font-family="ui-rounded, 'Comic Sans MS', sans-serif" font-size="15" font-weight="450">«interface»</text><text x="365.5" y="228.7" text-anchor="start" fill="#172033" font-family="ui-rounded, 'Comic Sans MS', sans-serif" font-size="15" font-weight="700">InventoryApi</text><path d="M 353.5 236.95 H 506" stroke="#26364a" stroke-width="1"/><path d="M 353.5 236.95 H 506" stroke="#26364a" stroke-width="1"/><text x="78.75" y="509.7" text-anchor="start" fill="#172033" font-family="ui-rounded, 'Comic Sans MS', sans-serif" font-size="15" font-weight="700">payments</text><text x="109" y="579.95" text-anchor="start" fill="#172033" font-family="ui-rounded, 'Comic Sans MS', sans-serif" font-size="15" font-weight="450">«interface»</text><text x="109" y="600.2" text-anchor="start" fill="#172033" font-family="ui-rounded, 'Comic Sans MS', sans-serif" font-size="15" font-weight="700">PaymentApi</text><path d="M 97 608.45 H 249.5" stroke="#26364a" stroke-width="1"/><path d="M 97 608.45 H 249.5" stroke="#26364a" stroke-width="1"/><text x="357.25" y="509.7" text-anchor="start" fill="#172033" font-family="ui-rounded, 'Comic Sans MS', sans-serif" font-size="15" font-weight="700">shared-kernel</text><text x="406.75" y="590.075" text-anchor="start" fill="#172033" font-family="ui-rounded, 'Comic Sans MS', sans-serif" font-size="15" font-weight="700">Money</text><path d="M 394.75 598.325 H 464.75" stroke="#26364a" stroke-width="1"/><path d="M 394.75 598.325 H 464.75" stroke="#26364a" stroke-width="1"/><g data-line-label="checkout-inventory"><text x="324.5" y="297.95" text-anchor="middle" font-family="ui-rounded, sans-serif" font-size="13" fill="#334155" stroke="#ffffff" stroke-opacity=".92" stroke-width="3.5" stroke-linejoin="round" paint-order="stroke fill">import</text></g><g data-line-label="checkout-payments"><text x="118.84166666666665" y="482.7" text-anchor="middle" font-family="ui-rounded, sans-serif" font-size="13" fill="#334155" stroke="#ffffff" stroke-opacity=".92" stroke-width="3.5" stroke-linejoin="round" paint-order="stroke fill">access</text></g><g data-line-label="checkout-shared"><text x="321.7083333333333" y="482.7" text-anchor="middle" font-family="ui-rounded, sans-serif" font-size="13" fill="#334155" stroke="#ffffff" stroke-opacity=".92" stroke-width="3.5" stroke-linejoin="round" paint-order="stroke fill">import</text></g><g data-line-label="payments-shared"><text x="312.5" y="558.075" text-anchor="middle" font-family="ui-rounded, sans-serif" font-size="13" fill="#334155" stroke="#ffffff" stroke-opacity=".92" stroke-width="3.5" stroke-linejoin="round" paint-order="stroke fill">merge</text></g></g>
</svg>