<?xml version="1.0" encoding="UTF-8"?>
<svg xmlns="http://www.w3.org/2000/svg" width="1100" height="703" viewBox="0 0 1100 703" role="img" aria-label="uml-deployment-example">
  <title>uml-deployment-example</title>
  <desc>Kvísl layouter prototype preview</desc>
  <rect width="100%" height="100%" fill="#ffffff"/>
  <g id="boundaries"><g><rect x="52" y="315.7" width="204" height="140.75" rx="6" fill="#f8fafc" stroke="#7b8794" stroke-width="2"/><path d="M 60 323.7 L 70 313.7 H 264 V 446.45 L 256 456.45" fill="none" stroke="#26364a" stroke-width="2"/></g><g><rect x="359" y="121.2" width="352.25" height="529.75" rx="6" fill="#f8fafc" stroke="#7b8794" stroke-width="2"/><path d="M 367 129.2 L 377 119.2 H 719.25 V 640.95 L 711.25 650.95" fill="none" stroke="#26364a" stroke-width="2"/></g><g><rect x="843.85" y="315.7" width="204" height="140.75" rx="6" fill="#f8fafc" stroke="#7b8794" stroke-width="2"/><path d="M 851.85 323.7 L 861.85 313.7 H 1055.85 V 446.45 L 1047.85 456.45" fill="none" stroke="#26364a" stroke-width="2"/></g><g><rect x="405" y="171.45" width="260.25" height="263" rx="6" fill="#f8fafc" stroke="#7b8794" stroke-width="2"/><path d="M 413 179.45 L 423 169.45 H 673.25 V 424.45 L 665.25 434.45" fill="none" stroke="#26364a" stroke-width="2"/></g><g><rect x="405" y="484.45" width="260.25" height="144.50000000000006" rx="6" fill="#f8fafc" stroke="#7b8794" stroke-width="2"/><path d="M 413 492.45 L 423 482.45 H 673.25 V 618.95 L 665.25 628.95" fill="none" stroke="#26364a" stroke-width="2"/></g></g>
  <g id="corridor-dividers"></g>
  <g id="lines"><g data-line="browser-checkout"><polyline points="256,386.075 307.5,386.075 307.5,315.95 437,315.95 437,245.825 451,245.825" fill="none" stroke="#334155" stroke-width="2" stroke-linejoin="round" stroke-linecap="round"/></g><g data-line="checkout-inventory"><polyline points="507.0833333333333,269.95 507.0833333333333,283.95 643.25,283.95 643.25,422.45 507.0833333333333,422.45 507.0833333333333,459.45 413,459.45 413,582.825 427,582.825" fill="none" stroke="#334155" stroke-width="2" stroke-linejoin="round" stroke-linecap="round"/></g><g data-line="checkout-database"><polyline points="619.25,245.825 777.55,245.825 777.55,386.075 843.85,386.075" fill="none" stroke="#334155" stroke-width="2" stroke-linejoin="round" stroke-linecap="round"/></g><g data-line="image-deploys-checkout"><polyline points="549.1458333333333,319.95 549.1458333333333,269.95" fill="none" stroke="#334155" stroke-width="2" stroke-linejoin="round" stroke-linecap="round"/><path d="M 555.1458333333333 281.95 L 549.1458333333333 269.95 L 543.1458333333333 281.95" fill="none" stroke="#334155" stroke-width="2" stroke-linejoin="round"/></g></g>
  <g id="objects"><g><rect x="74" y="365.95" width="160" height="68.5" rx="5" fill="#ffffff" stroke="#26364a" stroke-width="2"/><path d="M 214 365.95 V 385.95 H 234" fill="none" stroke="#26364a" stroke-width="2"/></g><g><rect x="451" y="221.7" width="168.25" height="48.25" rx="7" fill="#ffffff" stroke="#26364a" stroke-width="2"/><rect x="446" y="235.7" width="18" height="10" fill="white" stroke="#26364a"/><rect x="446" y="252.7" width="18" height="10" fill="white" stroke="#26364a"/></g><g><rect x="451" y="319.95" width="168.25" height="68.5" rx="5" fill="#ffffff" stroke="#26364a" stroke-width="2"/><path d="M 599.25 319.95 V 339.95 H 619.25" fill="none" stroke="#26364a" stroke-width="2"/></g><g><rect x="427" y="558.7" width="168.25" height="48.25" rx="7" fill="#ffffff" stroke="#26364a" stroke-width="2"/><rect x="422" y="572.7" width="18" height="10" fill="white" stroke="#26364a"/><rect x="422" y="589.7" width="18" height="10" fill="white" stroke="#26364a"/></g><g><rect x="865.85" y="365.95" width="160" height="68.5" rx="5" fill="#ffffff" stroke="#26364a" stroke-width="2"/><path d="M 1005.8499999999999 365.95 V 385.95 H 1025.85" fill="none" stroke="#26364a" stroke-width="2"/></g></g>
  <g id="ports"><rect x="446" y="240.825" width="10" height="10" fill="white" stroke="#334155" stroke-width="2"/><rect x="422" y="577.825" width="10" height="10" fill="white" stroke="#334155" stroke-width="2"/></g>
  <g id="text"><text x="52" y="84" text-anchor="start" fill="#172033" font-family="ui-rounded, 'Comic Sans MS', sans-serif" font-size="32" font-weight="700">Production checkout — deployment diagram</text><text x="65" y="337.7" text-anchor="start" fill="#172033" font-family="ui-rounded, 'Comic Sans MS', sans-serif" font-size="15" font-weight="700">Customer Browser</text><text x="154" y="394.95" text-anchor="middle" fill="#172033" font-family="ui-rounded, 'Comic Sans MS', sans-serif" font-size="15" font-weight="450">«artifact»</text><text x="154" y="415.2" text-anchor="middle" fill="#172033" font-family="ui-rounded, 'Comic Sans MS', sans-serif" font-size="15" font-weight="450">checkout.js</text><text x="372" y="143.2" text-anchor="start" fill="#172033" font-family="ui-rounded, 'Comic Sans MS', sans-serif" font-size="15" font-weight="700">Production Cluster</text><text x="418" y="193.45" text-anchor="start" fill="#172033" font-family="ui-rounded, 'Comic Sans MS', sans-serif" font-size="15" font-weight="700">checkout-7f9d</text><text x="535.125" y="250.7" text-anchor="middle" fill="#172033" font-family="ui-rounded, 'Comic Sans MS', sans-serif" font-size="15" font-weight="450">Checkout Service</text><text x="535.125" y="348.95" text-anchor="middle" fill="#172033" font-family="ui-rounded, 'Comic Sans MS', sans-serif" font-size="15" font-weight="450">«artifact»</text><text x="535.125" y="369.2" text-anchor="middle" fill="#172033" font-family="ui-rounded, 'Comic Sans MS', sans-serif" font-size="15" font-weight="450">checkout:v42</text><text x="418" y="506.45" text-anchor="start" fill="#172033" font-family="ui-rounded, 'Comic Sans MS', sans-serif" font-size="15" font-weight="700">inventory-55c8</text><text x="511.125" y="587.7" text-anchor="middle" fill="#172033" font-family="ui-rounded, 'Comic Sans MS', sans-serif" font-size="15" font-weight="450">Inventory Service</text><text x="856.85" y="337.7" text-anchor="start" fill="#172033" font-family="ui-rounded, 'Comic Sans MS', sans-serif" font-size="15" font-weight="700">PostgreSQL</text><text x="945.85" y="394.95" text-anchor="middle" fill="#172033" font-family="ui-rounded, 'Comic Sans MS', sans-serif" font-size="15" font-weight="450">«artifact»</text><text x="945.85" y="415.2" text-anchor="middle" fill="#172033" font-family="ui-rounded, 'Comic Sans MS', sans-serif" font-size="15" font-weight="450">orders schema</text><g><rect x="304.425" y="287.95" width="45" height="20" rx="4" fill="#ffffff" fill-opacity=".9"/><text x="326.925" y="302.95" text-anchor="middle" font-family="ui-rounded, sans-serif" font-size="13" fill="#334155">HTTPS</text></g><g><rect x="556.3666666666667" y="291.95" width="37.6" height="20" rx="4" fill="#ffffff" fill-opacity=".9"/><text x="575.1666666666666" y="306.95" text-anchor="middle" font-family="ui-rounded, sans-serif" font-size="13" fill="#334155">gRPC</text></g><g><rect x="716.505" y="217.825" width="74.60000000000001" height="20" rx="4" fill="#ffffff" fill-opacity=".9"/><text x="753.805" y="232.825" text-anchor="middle" font-family="ui-rounded, sans-serif" font-size="13" fill="#334155">TCP / SQL</text></g><g><rect x="488.7458333333332" y="284.95" width="52.400000000000006" height="20" rx="4" fill="#ffffff" fill-opacity=".9"/><text x="514.9458333333332" y="299.95" text-anchor="middle" font-family="ui-rounded, sans-serif" font-size="13" fill="#334155">deploy</text></g></g>
</svg>