<?xml version="1.0" encoding="UTF-8"?>
<svg xmlns="http://www.w3.org/2000/svg" width="1064" height="455" viewBox="0 0 1064 455" role="img" aria-label="uml-use-case-example">
  <title>uml-use-case-example</title>
  <desc>Kvísl layouter prototype preview</desc>
  <rect width="100%" height="100%" fill="#ffffff"/>
  <g id="boundaries"><rect x="219.25" y="121.2" width="600.3" height="281" rx="14" fill="#f8fafc" stroke="#7b8794" stroke-width="2"/></g>
  <g id="corridor-dividers"></g>
  <g id="lines"><g data-line="checkout-auth"><polyline points="560.3,183.5125 504.5,183.5125 504.5,275.825 490.5,275.825" fill="none" stroke="#334155" stroke-width="2" stroke-linejoin="round" stroke-linecap="round"/><path d="M 502.5 269.825 L 490.5 275.825 L 502.5 281.825" fill="none" stroke="#334155" stroke-width="2" stroke-linejoin="round"/></g><g data-line="checkout-pay"><polyline points="660.925,219.7 660.925,251.7" fill="none" stroke="#334155" stroke-width="2" stroke-linejoin="round" stroke-linecap="round"/><path d="M 654.925 239.7 L 660.925 251.7 L 666.925 239.7" fill="none" stroke="#334155" stroke-width="2" stroke-linejoin="round"/></g><g data-line="refund-notify"><polyline points="490.5,352.0541666666667 560.3,352.0541666666667" fill="none" stroke="#334155" stroke-width="2" stroke-linejoin="round" stroke-linecap="round"/><path d="M 548.3 358.0541666666667 L 560.3 352.0541666666667 L 548.3 346.0541666666667" fill="none" stroke="#334155" stroke-width="2" stroke-linejoin="round"/></g><g data-line="refund-checkout"><polyline points="490.5,364.1166666666667 540.3,364.1166666666667 540.3,195.575 560.3,195.575" fill="none" stroke="#334155" stroke-width="2" stroke-linejoin="round" stroke-linecap="round"/><path d="M 548.3 201.575 L 560.3 195.575 L 548.3 189.575" fill="none" stroke="#334155" stroke-width="2" stroke-linejoin="round"/></g><g data-line="customer-browse"><polyline points="166.625,191.55416666666665 289.25,191.55416666666665" fill="none" stroke="#334155" stroke-width="2" stroke-linejoin="round" stroke-linecap="round"/></g><g data-line="customer-checkout"><polyline points="166.625,203.61666666666665 265.25,203.61666666666665 265.25,323.95 534.3,323.95 534.3,207.6375 560.3,207.6375" fill="none" stroke="#334155" stroke-width="2" stroke-linejoin="round" stroke-linecap="round"/></g><g data-line="support-refund"><polyline points="187.25,356.075 289.25,356.075" fill="none" stroke="#334155" stroke-width="2" stroke-linejoin="round" stroke-linecap="round"/></g><g data-line="provider-pay"><polyline points="851.55,275.825 761.55,275.825" fill="none" stroke="#334155" stroke-width="2" stroke-linejoin="round" stroke-linecap="round"/></g><g data-line="mail-notify"><polyline points="868.05,356.075 761.55,356.075" fill="none" stroke="#334155" stroke-width="2" stroke-linejoin="round" stroke-linecap="round"/></g></g>
  <g id="objects"><g fill="none" stroke="#26364a" stroke-width="2"><circle cx="119.625" cy="188.45" r="8"/><path d="M 119.625 196.45 V 222.45 M 102.625 206.45 H 136.625 M 119.625 222.45 L 104.625 240.45 M 119.625 222.45 L 134.625 240.45"/></g><g fill="none" stroke="#26364a" stroke-width="2"><circle cx="119.625" cy="348.95" r="8"/><path d="M 119.625 356.95 V 382.95 M 102.625 366.95 H 136.625 M 119.625 382.95 L 104.625 400.95 M 119.625 382.95 L 134.625 400.95"/></g><ellipse cx="389.875" cy="195.575" rx="100.625" ry="24.125" fill="#ffffff" stroke="#26364a" stroke-width="2"/><ellipse cx="660.925" cy="195.575" rx="100.625" ry="24.125" fill="#ffffff" stroke="#26364a" stroke-width="2"/><ellipse cx="389.875" cy="275.825" rx="100.625" ry="24.125" fill="#ffffff" stroke="#26364a" stroke-width="2"/><ellipse cx="660.925" cy="275.825" rx="100.625" ry="24.125" fill="#ffffff" stroke="#26364a" stroke-width="2"/><ellipse cx="389.875" cy="356.075" rx="100.625" ry="24.125" fill="#ffffff" stroke="#26364a" stroke-width="2"/><ellipse cx="660.925" cy="356.075" rx="100.625" ry="24.125" fill="#ffffff" stroke="#26364a" stroke-width="2"/><g fill="none" stroke="#26364a" stroke-width="2"><circle cx="931.55" cy="268.7" r="8"/><path d="M 931.55 276.7 V 302.7 M 914.55 286.7 H 948.55 M 931.55 302.7 L 916.55 320.7 M 931.55 302.7 L 946.55 320.7"/></g><g fill="none" stroke="#26364a" stroke-width="2"><circle cx="931.55" cy="348.95" r="8"/><path d="M 931.55 356.95 V 382.95 M 914.55 366.95 H 948.55 M 931.55 382.95 L 916.55 400.95 M 931.55 382.95 L 946.55 400.95"/></g></g>
  <g id="ports"></g>
  <g id="text"><text x="52" y="84" text-anchor="start" fill="#172033" font-family="ui-rounded, 'Comic Sans MS', sans-serif" font-size="32" font-weight="700">Online store — use-case diagram</text><text x="119.625" y="200.45" text-anchor="middle" fill="#172033" font-family="ui-rounded, 'Comic Sans MS', sans-serif" font-size="15" font-weight="450">Customer</text><text x="119.625" y="360.95" text-anchor="middle" fill="#172033" font-family="ui-rounded, 'Comic Sans MS', sans-serif" font-size="15" font-weight="450">Support Agent</text><text x="232.25" y="143.2" text-anchor="start" fill="#172033" font-family="ui-rounded, 'Comic Sans MS', sans-serif" font-size="15" font-weight="700">Online Store</text><text x="389.875" y="200.45" text-anchor="middle" fill="#172033" font-family="ui-rounded, 'Comic Sans MS', sans-serif" font-size="15" font-weight="450">Browse catalog</text><text x="660.925" y="200.45" text-anchor="middle" fill="#172033" font-family="ui-rounded, 'Comic Sans MS', sans-serif" font-size="15" font-weight="450">Checkout</text><text x="389.875" y="280.7" text-anchor="middle" fill="#172033" font-family="ui-rounded, 'Comic Sans MS', sans-serif" font-size="15" font-weight="450">Authenticate customer</text><text x="660.925" y="280.7" text-anchor="middle" fill="#172033" font-family="ui-rounded, 'Comic Sans MS', sans-serif" font-size="15" font-weight="450">Process payment</text><text x="389.875" y="360.95" text-anchor="middle" fill="#172033" font-family="ui-rounded, 'Comic Sans MS', sans-serif" font-size="15" font-weight="450">Refund order</text><text x="660.925" y="360.95" text-anchor="middle" fill="#172033" font-family="ui-rounded, 'Comic Sans MS', sans-serif" font-size="15" font-weight="450">Send notification</text><text x="931.55" y="280.7" text-anchor="middle" fill="#172033" font-family="ui-rounded, 'Comic Sans MS', sans-serif" font-size="15" font-weight="450">Payment Provider</text><text x="931.55" y="360.95" text-anchor="middle" fill="#172033" font-family="ui-rounded, 'Comic Sans MS', sans-serif" font-size="15" font-weight="450">Mail Service</text><g><rect x="502.5" y="144.5125" width="59.800000000000004" height="20" rx="4" fill="#ffffff" fill-opacity=".9"/><text x="532.4" y="159.5125" text-anchor="middle" font-family="ui-rounded, sans-serif" font-size="13" fill="#334155">include</text></g><g><rect x="593.125" y="225.7" width="59.800000000000004" height="20" rx="4" fill="#ffffff" fill-opacity=".9"/><text x="623.025" y="240.7" text-anchor="middle" font-family="ui-rounded, sans-serif" font-size="13" fill="#334155">include</text></g><g><rect x="495.5" y="324.0541666666667" width="59.800000000000004" height="20" rx="4" fill="#ffffff" fill-opacity=".9"/><text x="525.4" y="339.0541666666667" text-anchor="middle" font-family="ui-rounded, sans-serif" font-size="13" fill="#334155">include</text></g><g><rect x="496.67" y="372.1166666666667" width="52.400000000000006" height="20" rx="4" fill="#ffffff" fill-opacity=".9"/><text x="522.87" y="387.1166666666667" text-anchor="middle" font-family="ui-rounded, sans-serif" font-size="13" fill="#334155">extend</text></g><g><rect x="489.2" y="413.1166666666667" width="52.400000000000006" height="20" rx="4" fill="#ffffff" fill-opacity=".9"/><text x="515.4" y="428.1166666666667" text-anchor="middle" font-family="ui-rounded, sans-serif" font-size="13" fill="#334155">[paid]</text></g></g>
</svg>