<?xml version="1.0" encoding="UTF-8"?>
<svg xmlns="http://www.w3.org/2000/svg" width="919" height="799" viewBox="0 0 919 799" role="img" aria-label="uml-activity-example">
  <title>uml-activity-example</title>
  <desc>Kvísl layouter prototype preview</desc>
  <rect width="100%" height="100%" fill="#ffffff"/>
  <g id="boundaries"><rect x="52" y="121.2" width="277.75" height="366.75" rx="14" fill="#f8fafc" stroke="#7b8794" stroke-width="2"/><rect x="361.75" y="121.2" width="244.25" height="625" rx="14" fill="#f8fafc" stroke="#7b8794" stroke-width="2"/><rect x="638" y="121.2" width="228.25" height="190.75" rx="14" fill="#f8fafc" stroke="#7b8794" stroke-width="2"/></g>
  <g id="corridor-dividers"></g>
  <g id="lines"><g data-line="start-submit"><polyline points="182.875,223.45 182.875,269.45" fill="none" stroke="#334155" stroke-width="2" stroke-linejoin="round" stroke-linecap="round"/><path d="M 176.875 257.45 L 182.875 269.45 L 188.875 257.45" fill="none" stroke="#334155" stroke-width="2" stroke-linejoin="round"/></g><g data-line="submit-validate"><polyline points="291.75,293.575 385.75,293.575 385.75,195.575 399.75,195.575" fill="none" stroke="#334155" stroke-width="2" stroke-linejoin="round" stroke-linecap="round"/><path d="M 387.75 201.575 L 399.75 195.575 L 387.75 189.575" fill="none" stroke="#334155" stroke-width="2" stroke-linejoin="round"/></g><g data-line="validate-choice"><polyline points="483.875,219.7 483.875,265.7" fill="none" stroke="#334155" stroke-width="2" stroke-linejoin="round" stroke-linecap="round"/><path d="M 477.875 253.7 L 483.875 265.7 L 489.875 253.7" fill="none" stroke="#334155" stroke-width="2" stroke-linejoin="round"/></g><g data-line="invalid-end"><polyline points="447.875,284.7 299.75,284.7 299.75,428.6166666666667 218.875,428.6166666666667" fill="none" stroke="#334155" stroke-width="2" stroke-linejoin="round" stroke-linecap="round"/><path d="M 230.875 422.6166666666667 L 218.875 428.6166666666667 L 230.875 434.6166666666667" fill="none" stroke="#334155" stroke-width="2" stroke-linejoin="round"/></g><g data-line="valid-authorize"><polyline points="483.875,303.7 483.875,349.7" fill="none" stroke="#334155" stroke-width="2" stroke-linejoin="round" stroke-linecap="round"/><path d="M 477.875 337.7 L 483.875 349.7 L 489.875 337.7" fill="none" stroke="#334155" stroke-width="2" stroke-linejoin="round"/></g><g data-line="authorize-choice"><polyline points="483.875,397.95 483.875,443.95" fill="none" stroke="#334155" stroke-width="2" stroke-linejoin="round" stroke-linecap="round"/><path d="M 477.875 431.95 L 483.875 443.95 L 489.875 431.95" fill="none" stroke="#334155" stroke-width="2" stroke-linejoin="round"/></g><g data-line="payment-retry"><polyline points="447.875,462.95 311.75,462.95 311.75,371.8666666666667 291.75,371.8666666666667" fill="none" stroke="#334155" stroke-width="2" stroke-linejoin="round" stroke-linecap="round"/><path d="M 303.75 365.8666666666667 L 291.75 371.8666666666667 L 303.75 377.8666666666667" fill="none" stroke="#334155" stroke-width="2" stroke-linejoin="round"/></g><g data-line="correct-authorize"><polyline points="291.75,355.7833333333333 385.75,355.7833333333333 385.75,373.825 399.75,373.825" fill="none" stroke="#334155" stroke-width="2" stroke-linejoin="round" stroke-linecap="round"/><path d="M 387.75 379.825 L 399.75 373.825 L 387.75 367.825" fill="none" stroke="#334155" stroke-width="2" stroke-linejoin="round"/></g><g data-line="authorized-fork"><polyline points="469.125,481.95 469.125,527.95" fill="none" stroke="#334155" stroke-width="2" stroke-linejoin="round" stroke-linecap="round"/><path d="M 463.125 515.95 L 469.125 527.95 L 475.125 515.95" fill="none" stroke="#334155" stroke-width="2" stroke-linejoin="round"/></g><g data-line="fork-reserve"><polyline points="483.875,527.95 483.875,507.95000000000005 607.9791666666667,507.95000000000005 607.9791666666667,233.7 732.0833333333334,233.7 732.0833333333334,219.7" fill="none" stroke="#334155" stroke-width="2" stroke-linejoin="round" stroke-linecap="round"/><path d="M 738.0833333333334 231.7 L 732.0833333333334 219.7 L 726.0833333333334 231.7" fill="none" stroke="#334155" stroke-width="2" stroke-linejoin="round"/></g><g data-line="fork-prepare"><polyline points="513.375,527.95 513.375,501.95000000000005 732.0833333333334,501.95000000000005 732.0833333333334,289.95" fill="none" stroke="#334155" stroke-width="2" stroke-linejoin="round" stroke-linecap="round"/><path d="M 738.0833333333334 301.95 L 732.0833333333334 289.95 L 726.0833333333334 301.95" fill="none" stroke="#334155" stroke-width="2" stroke-linejoin="round"/></g><g data-line="reserve-join"><polyline points="788.1666666666666,219.7 788.1666666666666,239.7 868.25,239.7 868.25,575.95 464.2083333333333,575.95 464.2083333333333,589.95" fill="none" stroke="#334155" stroke-width="2" stroke-linejoin="round" stroke-linecap="round"/><path d="M 458.2083333333333 577.95 L 464.2083333333333 589.95 L 470.2083333333333 577.95" fill="none" stroke="#334155" stroke-width="2" stroke-linejoin="round"/></g><g data-line="prepare-join"><polyline points="788.1666666666666,289.95 788.1666666666666,569.95 503.54166666666663,569.95 503.54166666666663,589.95" fill="none" stroke="#334155" stroke-width="2" stroke-linejoin="round" stroke-linecap="round"/><path d="M 497.54166666666663 577.95 L 503.54166666666663 589.95 L 509.54166666666663 577.95" fill="none" stroke="#334155" stroke-width="2" stroke-linejoin="round"/></g><g data-line="join-confirm"><polyline points="483.875,629.95 483.875,675.95" fill="none" stroke="#334155" stroke-width="2" stroke-linejoin="round" stroke-linecap="round"/><path d="M 477.875 663.95 L 483.875 675.95 L 489.875 663.95" fill="none" stroke="#334155" stroke-width="2" stroke-linejoin="round"/></g><g data-line="confirm-end"><polyline points="399.75,700.075 299.75,700.075 299.75,487.95 238.875,487.95 238.875,447.2833333333333 218.875,447.2833333333333" fill="none" stroke="#334155" stroke-width="2" stroke-linejoin="round" stroke-linecap="round"/><path d="M 230.875 441.2833333333333 L 218.875 447.2833333333333 L 230.875 453.2833333333333" fill="none" stroke="#334155" stroke-width="2" stroke-linejoin="round"/></g></g>
  <g id="objects"><circle cx="182.875" cy="197.45" r="26" fill="#172033"/><rect x="74" y="269.45" width="217.75" height="48.25" rx="14" fill="#ffffff" stroke="#26364a" stroke-width="2"/><rect x="74" y="339.7" width="217.75" height="48.25" rx="14" fill="#ffffff" stroke="#26364a" stroke-width="2"/><g><circle cx="182.875" cy="437.95" r="27" fill="white" stroke="#172033" stroke-width="2"/><circle cx="182.875" cy="437.95" r="22" fill="#172033"/></g><rect x="399.75" y="171.45" width="168.25" height="48.25" rx="14" fill="#ffffff" stroke="#26364a" stroke-width="2"/><polygon points="483.875,265.7 519.875,284.7 483.875,303.7 447.875,284.7" fill="#ffffff" stroke="#26364a" stroke-width="2"/><rect x="399.75" y="349.7" width="168.25" height="48.25" rx="14" fill="#ffffff" stroke="#26364a" stroke-width="2"/><polygon points="483.875,443.95 519.875,462.95 483.875,481.95 447.875,462.95" fill="#ffffff" stroke="#26364a" stroke-width="2"/><rect x="424.875" y="527.95" width="118" height="40.00000000000006" rx="3" fill="#172033"/><rect x="424.875" y="589.95" width="118" height="40" rx="3" fill="#172033"/><rect x="399.75" y="675.95" width="168.25" height="48.25" rx="14" fill="#ffffff" stroke="#26364a" stroke-width="2"/><rect x="676" y="171.45" width="168.25" height="48.25" rx="14" fill="#ffffff" stroke="#26364a" stroke-width="2"/><rect x="676" y="241.7" width="168.25" height="48.25" rx="14" fill="#ffffff" stroke="#26364a" stroke-width="2"/></g>
  <g id="ports"></g>
  <g id="text"><text x="52" y="84" text-anchor="start" fill="#172033" font-family="ui-rounded, 'Comic Sans MS', sans-serif" font-size="32" font-weight="700">Fulfil an order — activity diagram</text><text x="65" y="143.2" text-anchor="start" fill="#172033" font-family="ui-rounded, 'Comic Sans MS', sans-serif" font-size="15" font-weight="700">Customer</text><text x="182.875" y="298.45" text-anchor="middle" fill="#172033" font-family="ui-rounded, 'Comic Sans MS', sans-serif" font-size="15" font-weight="450">Submit order</text><text x="182.875" y="368.7" text-anchor="middle" fill="#172033" font-family="ui-rounded, 'Comic Sans MS', sans-serif" font-size="15" font-weight="450">Correct payment details</text><text x="374.75" y="143.2" text-anchor="start" fill="#172033" font-family="ui-rounded, 'Comic Sans MS', sans-serif" font-size="15" font-weight="700">Checkout Service</text><text x="483.875" y="200.45" text-anchor="middle" fill="#172033" font-family="ui-rounded, 'Comic Sans MS', sans-serif" font-size="15" font-weight="450">Validate order</text><text x="483.875" y="378.7" text-anchor="middle" fill="#172033" font-family="ui-rounded, 'Comic Sans MS', sans-serif" font-size="15" font-weight="450">Authorize payment</text><text x="483.875" y="704.95" text-anchor="middle" fill="#172033" font-family="ui-rounded, 'Comic Sans MS', sans-serif" font-size="15" font-weight="450">Confirm order</text><text x="651" y="143.2" text-anchor="start" fill="#172033" font-family="ui-rounded, 'Comic Sans MS', sans-serif" font-size="15" font-weight="700">Fulfillment</text><text x="760.125" y="200.45" text-anchor="middle" fill="#172033" font-family="ui-rounded, 'Comic Sans MS', sans-serif" font-size="15" font-weight="450">Reserve inventory</text><text x="760.125" y="270.7" text-anchor="middle" fill="#172033" font-family="ui-rounded, 'Comic Sans MS', sans-serif" font-size="15" font-weight="450">Prepare shipment</text><g data-line-label="invalid-end"><text x="410.84375" y="332.7" text-anchor="middle" font-family="ui-rounded, sans-serif" font-size="13" fill="#334155" stroke="#ffffff" stroke-opacity=".92" stroke-width="3.5" stroke-linejoin="round" paint-order="stroke fill">[invalid]</text></g><g data-line-label="valid-authorize"><text x="521.775" y="331.7" text-anchor="middle" font-family="ui-rounded, sans-serif" font-size="13" fill="#334155" stroke="#ffffff" stroke-opacity=".92" stroke-width="3.5" stroke-linejoin="round" paint-order="stroke fill">[valid]</text></g><g data-line-label="payment-retry"><text x="413.84375" y="424.95" text-anchor="middle" font-family="ui-rounded, sans-serif" font-size="13" fill="#334155" stroke="#ffffff" stroke-opacity=".92" stroke-width="3.5" stroke-linejoin="round" paint-order="stroke fill">[declined]</text></g><g data-line-label="authorized-fork"><text x="420.125" y="509.95000000000005" text-anchor="middle" font-family="ui-rounded, sans-serif" font-size="13" fill="#334155" stroke="#ffffff" stroke-opacity=".92" stroke-width="3.5" stroke-linejoin="round" paint-order="stroke fill">[approved]</text></g></g>
</svg>