<?xml version="1.0" encoding="UTF-8"?>
<svg xmlns="http://www.w3.org/2000/svg" width="707" height="698" viewBox="0 0 707 698" role="img" aria-label="uml-package-example">
  <title>uml-package-example</title>
  <desc>Kvísl layouter prototype preview</desc>
  <rect width="100%" height="100%" fill="#ffffff"/>
  <g id="boundaries"><path d="M 52 145.2 V 456.7 H 291.75 V 145.2 H 156.4 L 146.4 121.2 H 52 Z" fill="#f8fafc" stroke="#7b8794" stroke-width="2"/><path d="M 323.75 145.2 V 277.95 H 519.5 V 145.2 H 437.45 L 427.45 121.2 H 323.75 Z" fill="#f8fafc" stroke="#7b8794" stroke-width="2"/><path d="M 64.375 512.7 V 645.45 H 279.375 V 512.7 H 168.775 L 158.775 488.7 H 64.375 Z" fill="#f8fafc" stroke="#7b8794" stroke-width="2"/><path d="M 336.125 512.7 V 645.45 H 507.125 V 512.7 H 455.825 L 445.825 488.7 H 336.125 Z" fill="#f8fafc" stroke="#7b8794" stroke-width="2"/><path d="M 74 301.95 V 434.7 H 269.75 V 301.95 H 206.3 L 196.3 277.95 H 74 Z" fill="#f8fafc" stroke="#7b8794" stroke-width="2"/></g>
  <g id="corridor-dividers"></g>
  <g id="lines"><g data-line="checkout-inventory"><polyline points="291.75,244.2625 323.75,244.2625" fill="none" stroke="#334155" stroke-width="2" stroke-linejoin="round" stroke-linecap="round"/><path d="M 311.75 250.2625 L 323.75 244.2625 L 311.75 238.2625" fill="none" stroke="#334155" stroke-width="2" stroke-linejoin="round"/></g><g data-line="checkout-payments"><polyline points="151.89583333333331,456.7 151.89583333333331,488.7" fill="none" stroke="#334155" stroke-width="2" stroke-linejoin="round" stroke-linecap="round"/><path d="M 145.89583333333331 476.7 L 151.89583333333331 488.7 L 157.89583333333331 476.7" fill="none" stroke="#334155" stroke-width="2" stroke-linejoin="round"/></g><g data-line="checkout-shared"><polyline points="211.83333333333331,456.7 211.83333333333331,476.7 421.625,476.7 421.625,474.7 421.625,488.7" fill="none" stroke="#334155" stroke-width="2" stroke-linejoin="round" stroke-linecap="round"/><path d="M 415.625 476.7 L 421.625 488.7 L 427.625 476.7" fill="none" stroke="#334155" stroke-width="2" stroke-linejoin="round"/></g><g data-line="payments-shared"><polyline points="279.375,567.075 336.125,567.075" fill="none" stroke="#334155" stroke-width="2" stroke-linejoin="round" stroke-linecap="round"/><path d="M 324.125 573.075 L 336.125 567.075 L 324.125 561.075" fill="none" stroke="#334155" stroke-width="2" stroke-linejoin="round"/></g></g>
  <g id="objects"><rect x="96" y="171.45" width="151.75" height="84.5" rx="2" fill="#ffffff" stroke="#26364a" stroke-width="2"/><rect x="96" y="328.2" width="151.75" height="84.5" rx="2" fill="#ffffff" stroke="#26364a" stroke-width="2"/><rect x="345.75" y="171.45" width="151.75" height="84.5" rx="2" fill="#ffffff" stroke="#26364a" stroke-width="2"/><rect x="86.375" y="538.95" width="151.75" height="84.5" rx="2" fill="#ffffff" stroke="#26364a" stroke-width="2"/><rect x="358.125" y="538.95" width="72" height="84.5" rx="2" fill="#ffffff" stroke="#26364a" stroke-width="2"/></g>
  <g id="ports"></g>
  <g id="text"><text x="52" y="84" text-anchor="start" fill="#172033" font-family="ui-rounded, 'Comic Sans MS', sans-serif" font-size="32" font-weight="700">Commerce modules — package diagram</text><text x="65" y="138.2" text-anchor="start" fill="#172033" font-family="ui-rounded, 'Comic Sans MS', sans-serif" font-size="15" font-weight="700">checkout</text><text x="109" y="218.575" text-anchor="start" fill="#172033" font-family="ui-rounded, 'Comic Sans MS', sans-serif" font-size="15" font-weight="700">CheckoutService</text><path d="M 97 226.825 H 246.75" stroke="#26364a" stroke-width="1"/><path d="M 97 226.825 H 246.75" stroke="#26364a" stroke-width="1"/><text x="87" y="294.95" text-anchor="start" fill="#172033" font-family="ui-rounded, 'Comic Sans MS', sans-serif" font-size="15" font-weight="700">application</text><text x="109" y="375.325" text-anchor="start" fill="#172033" font-family="ui-rounded, 'Comic Sans MS', sans-serif" font-size="15" font-weight="700">PlaceOrder</text><path d="M 97 383.575 H 246.75" stroke="#26364a" stroke-width="1"/><path d="M 97 383.575 H 246.75" stroke="#26364a" stroke-width="1"/><text x="336.75" y="138.2" text-anchor="start" fill="#172033" font-family="ui-rounded, 'Comic Sans MS', sans-serif" font-size="15" font-weight="700">inventory</text><text x="358.75" y="208.45" text-anchor="start" fill="#172033" font-family="ui-rounded, 'Comic Sans MS', sans-serif" font-size="15" font-weight="450">«interface»</text><text x="358.75" y="228.7" text-anchor="start" fill="#172033" font-family="ui-rounded, 'Comic Sans MS', sans-serif" font-size="15" font-weight="700">InventoryApi</text><path d="M 346.75 236.95 H 496.5" stroke="#26364a" stroke-width="1"/><path d="M 346.75 236.95 H 496.5" stroke="#26364a" stroke-width="1"/><text x="77.375" y="505.7" text-anchor="start" fill="#172033" font-family="ui-rounded, 'Comic Sans MS', sans-serif" font-size="15" font-weight="700">payments</text><text x="99.375" y="575.95" text-anchor="start" fill="#172033" font-family="ui-rounded, 'Comic Sans MS', sans-serif" font-size="15" font-weight="450">«interface»</text><text x="99.375" y="596.2" text-anchor="start" fill="#172033" font-family="ui-rounded, 'Comic Sans MS', sans-serif" font-size="15" font-weight="700">PaymentApi</text><path d="M 87.375 604.45 H 237.125" stroke="#26364a" stroke-width="1"/><path d="M 87.375 604.45 H 237.125" stroke="#26364a" stroke-width="1"/><text x="349.125" y="505.7" text-anchor="start" fill="#172033" font-family="ui-rounded, 'Comic Sans MS', sans-serif" font-size="15" font-weight="700">shared-kernel</text><text x="371.125" y="586.075" text-anchor="start" fill="#172033" font-family="ui-rounded, 'Comic Sans MS', sans-serif" font-size="15" font-weight="700">Money</text><path d="M 359.125 594.325 H 429.125" stroke="#26364a" stroke-width="1"/><path d="M 359.125 594.325 H 429.125" stroke="#26364a" stroke-width="1"/><g data-line-label="checkout-inventory"><text x="307.75" y="111.19999999999999" text-anchor="middle" font-family="ui-rounded, sans-serif" font-size="13" fill="#334155" stroke="#ffffff" stroke-opacity=".92" stroke-width="3.5" stroke-linejoin="round" paint-order="stroke fill">import</text></g><g data-line-label="checkout-payments"><text x="117.69583333333331" y="477.7" text-anchor="middle" font-family="ui-rounded, sans-serif" font-size="13" fill="#334155" stroke="#ffffff" stroke-opacity=".92" stroke-width="3.5" stroke-linejoin="round" paint-order="stroke fill">access</text></g><g data-line-label="checkout-shared"><text x="348.19791666666663" y="463.7" text-anchor="middle" font-family="ui-rounded, sans-serif" font-size="13" fill="#334155" stroke="#ffffff" stroke-opacity=".92" stroke-width="3.5" stroke-linejoin="round" paint-order="stroke fill">import</text></g><g data-line-label="payments-shared"><text x="307.75" y="554.075" text-anchor="middle" font-family="ui-rounded, sans-serif" font-size="13" fill="#334155" stroke="#ffffff" stroke-opacity=".92" stroke-width="3.5" stroke-linejoin="round" paint-order="stroke fill">merge</text></g></g>
</svg>