<?xml version="1.0" encoding="UTF-8"?>
<svg xmlns="http://www.w3.org/2000/svg" width="1318" height="904" viewBox="0 0 1318 904" role="img" aria-label="vegvisir-voice-agents">
  <title>vegvisir-voice-agents</title>
  <desc>Kvísl layouter prototype preview</desc>
  <rect width="100%" height="100%" fill="#ffffff"/>
  <g id="boundaries"><rect x="284" y="195.8" width="623.25" height="655.25" rx="14" fill="#f8fafc" stroke="#7d8794" stroke-width="2"/><rect x="979.25" y="215.675" width="286.25" height="615.5" rx="14" fill="#f0eaff" stroke="#7048e8" stroke-width="2"/></g>
  <g id="corridor-dividers"></g>
  <g id="lines"><g data-line="accept-road-task"><polyline points="481.375,355.05 481.375,583.55" fill="none" stroke="#1674c8" stroke-width="2" stroke-linejoin="round" stroke-linecap="round"/><path d="M 475.375 571.55 L 481.375 583.55 L 487.375 571.55" fill="none" stroke="#1674c8" stroke-width="2" stroke-linejoin="round"/></g><g data-line="speak"><polyline points="633.9,583.55 633.9,555.55 717.2178571428572,555.55 717.2178571428572,407.05 595.625,407.05 595.625,469.3 595.625,355.05 800.5357142857142,355.05" fill="none" stroke="#ea7600" stroke-width="2" stroke-linejoin="round" stroke-linecap="round"/><path d="M 788.5357142857142 361.05 L 800.5357142857142 355.05 L 788.5357142857142 349.05" fill="none" stroke="#ea7600" stroke-width="2" stroke-linejoin="round"/></g><g data-line="progress"><polyline points="709.875,583.55 709.875,355.05" fill="none" stroke="#21a044" stroke-width="2" stroke-linejoin="round" stroke-linecap="round"/><path d="M 715.875 367.05 L 709.875 355.05 L 703.875 367.05" fill="none" stroke="#21a044" stroke-width="2" stroke-linejoin="round"/></g><g data-line="local-memory"><polyline points="491.25714285714287,672.3 491.25714285714287,740.3" fill="none" stroke="#7d8794" stroke-width="2" stroke-linejoin="round" stroke-linecap="round"/><path d="M 497.25714285714287 684.3 L 491.25714285714287 672.3 L 485.25714285714287 684.3" fill="none" stroke="#7d8794" stroke-width="2" stroke-linejoin="round"/><path d="M 485.25714285714287 728.3 L 491.25714285714287 740.3 L 497.25714285714287 728.3" fill="none" stroke="#7d8794" stroke-width="2" stroke-linejoin="round"/></g><g data-line="live-knowledge"><polyline points="678.1458333333333,672.3 678.1458333333333,740.3" fill="none" stroke="#7d8794" stroke-width="2" stroke-linejoin="round" stroke-linecap="round"/><path d="M 684.1458333333333 684.3 L 678.1458333333333 672.3 L 672.1458333333333 684.3" fill="none" stroke="#7d8794" stroke-width="2" stroke-linejoin="round"/><path d="M 672.1458333333333 728.3 L 678.1458333333333 740.3 L 684.1458333333333 728.3" fill="none" stroke="#7d8794" stroke-width="2" stroke-linejoin="round"/></g><g data-line="to-openclaw"><polyline points="1129.625,374.925 1129.625,390.925 1025.25,390.925 1025.25,388.925 1025.25,475.3 1023.25,475.3 1037.25,475.3" fill="none" stroke="#7048e8" stroke-width="2" stroke-linejoin="round" stroke-linecap="round"/><path d="M 1025.25 481.3 L 1037.25 475.3 L 1025.25 469.3" fill="none" stroke="#7048e8" stroke-width="2" stroke-linejoin="round"/></g><g data-line="to-hermes-webui"><polyline points="1129.625,374.925 1129.625,390.925 1025.25,390.925 1025.25,388.925 1025.25,620.05 1023.25,620.05 1037.25,620.05" fill="none" stroke="#7048e8" stroke-width="2" stroke-linejoin="round" stroke-linecap="round"/><path d="M 1025.25 626.05 L 1037.25 620.05 L 1025.25 614.05" fill="none" stroke="#7048e8" stroke-width="2" stroke-linejoin="round"/></g><g data-line="to-hermes-api"><polyline points="1129.625,374.925 1129.625,390.925 1025.25,390.925 1025.25,388.925 1013.25,388.925 1013.25,764.8 1025.25,764.8 1023.25,764.8 1037.25,764.8" fill="none" stroke="#7048e8" stroke-width="2" stroke-linejoin="round" stroke-linecap="round"/><path d="M 1025.25 770.8 L 1037.25 764.8 L 1025.25 758.8" fill="none" stroke="#7048e8" stroke-width="2" stroke-linejoin="round"/></g><g data-line="driver-conversation"><polyline points="170.75,290.425 330,290.425" fill="none" stroke="#1674c8" stroke-width="2" stroke-linejoin="round" stroke-linecap="round"/><path d="M 182.75 284.425 L 170.75 290.425 L 182.75 296.425" fill="none" stroke="#1674c8" stroke-width="2" stroke-linejoin="round"/><path d="M 318 296.425 L 330 290.425 L 318 284.425" fill="none" stroke="#1674c8" stroke-width="2" stroke-linejoin="round"/></g><g data-line="remote-delegation"><polyline points="787,627.925 943.25,627.925 943.25,484.29999999999995 943.25,340.675 1023.25,340.675 1037.25,340.675" fill="none" stroke="#7048e8" stroke-width="2" stroke-linejoin="round" stroke-linecap="round"/><path d="M 1025.25 346.675 L 1037.25 340.675 L 1025.25 334.675" fill="none" stroke="#7048e8" stroke-width="2" stroke-linejoin="round"/></g></g>
  <g id="objects"><ellipse cx="132" cy="300.55" rx="38.75" ry="24.125" fill="#fff4c7" stroke="#ea7600" stroke-width="2"/><g><rect x="84" y="436.925" width="96" height="96" rx="20" fill="#0ea5e9"/><path d="M 96 508.92499999999995 Q 132 466.925 168 508.92499999999995" fill="none" stroke="#fff" stroke-width="8"/><circle cx="146.4" cy="463.805" r="8" fill="#fde047"/></g><rect x="330" y="246.05" width="531.25" height="109" rx="14" fill="#e5f2ff" stroke="#1674c8" stroke-width="2"/><polygon points="595.625,435.05 631.625,469.3 595.625,503.55 559.625,469.3" fill="#fff4c7" stroke="#ea7600" stroke-width="2"/><rect x="404.25" y="583.55" width="382.75" height="88.75" rx="14" fill="#e3f8e7" stroke="#21a044" stroke-width="2"/><rect x="330" y="740.3" width="242.5" height="88.75" rx="14" fill="#f8fafc" stroke="#7d8794" stroke-width="2"/><rect x="604.5" y="740.3" width="184.75" height="88.75" rx="14" fill="#f8fafc" stroke="#7d8794" stroke-width="2"/><rect x="1037.25" y="306.425" width="184.75" height="68.5" rx="14" fill="#e2d7ff" stroke="#7048e8" stroke-width="2"/><rect x="1037.25" y="430.925" width="184.75" height="88.75" rx="14" fill="#ffffff" stroke="#7048e8" stroke-width="2"/><rect x="1037.25" y="575.675" width="184.75" height="88.75" rx="14" fill="#ffffff" stroke="#7048e8" stroke-width="2"/><rect x="1037.25" y="720.425" width="184.75" height="88.75" rx="14" fill="#ffffff" stroke="#7048e8" stroke-width="2"/></g>
  <g id="ports"></g>
  <g id="text"><text x="52" y="84" text-anchor="start" fill="#172033" font-family="ui-rounded, 'Comic Sans MS', sans-serif" font-size="32" font-weight="700">Vegvísir — one voice, multiple agents</text><text x="52" y="139.2" text-anchor="start" fill="#172033" font-family="ui-rounded, 'Comic Sans MS', sans-serif" font-size="18" font-weight="450">A voice-first road companion that stays responsive while deeper work</text><text x="52" y="163.5" text-anchor="start" fill="#172033" font-family="ui-rounded, 'Comic Sans MS', sans-serif" font-size="18" font-weight="450">happens in the background</text><text x="132" y="305.425" text-anchor="middle" fill="#ea7600" font-family="ui-rounded, 'Comic Sans MS', sans-serif" font-size="15" font-weight="700">Driver</text><text x="132" y="385.675" text-anchor="middle" fill="#172033" font-family="ui-rounded, 'Comic Sans MS', sans-serif" font-size="15" font-weight="450">speaks · listens</text><text x="132" y="593.925" text-anchor="middle" fill="#172033" font-family="ui-rounded, 'Comic Sans MS', sans-serif" font-size="15" font-weight="450">Vegvísir</text><text x="297" y="217.8" text-anchor="start" fill="#7d8794" font-family="ui-rounded, 'Comic Sans MS', sans-serif" font-size="15" font-weight="700">Vegvísir on iPhone</text><text x="595.625" y="275.05" text-anchor="middle" fill="#1674c8" font-family="ui-rounded, 'Comic Sans MS', sans-serif" font-size="15" font-weight="700">Realtime Voice Agent</text><text x="595.625" y="295.3" text-anchor="middle" fill="#1674c8" font-family="ui-rounded, 'Comic Sans MS', sans-serif" font-size="15" font-weight="700">GPT-Realtime-2 → GPT-Live</text><text x="595.625" y="315.55" text-anchor="middle" fill="#1674c8" font-family="ui-rounded, 'Comic Sans MS', sans-serif" font-size="15" font-weight="700">listens · speaks · delegates</text><text x="595.625" y="335.8" text-anchor="middle" fill="#1674c8" font-family="ui-rounded, 'Comic Sans MS', sans-serif" font-size="15" font-weight="450">Fast conversational loop — never blocked by long-running work</text><text x="595.625" y="464.05" text-anchor="middle" fill="#ea7600" font-family="ui-rounded, 'Comic Sans MS', sans-serif" font-size="15" font-weight="700">Speak</text><text x="595.625" y="484.3" text-anchor="middle" fill="#ea7600" font-family="ui-rounded, 'Comic Sans MS', sans-serif" font-size="15" font-weight="700">now?</text><text x="595.625" y="612.55" text-anchor="middle" fill="#21a044" font-family="ui-rounded, 'Comic Sans MS', sans-serif" font-size="15" font-weight="700">Road Agent Harness</text><text x="595.625" y="632.8" text-anchor="middle" fill="#21a044" font-family="ui-rounded, 'Comic Sans MS', sans-serif" font-size="15" font-weight="700">Drive context · async Road Tasks · ranking</text><text x="595.625" y="653.05" text-anchor="middle" fill="#21a044" font-family="ui-rounded, 'Comic Sans MS', sans-serif" font-size="15" font-weight="700">POI search · map state · navigation handoff</text><text x="451.25" y="769.3" text-anchor="middle" fill="#7d8794" font-family="ui-rounded, 'Comic Sans MS', sans-serif" font-size="15" font-weight="450">Local Markdown context</text><text x="451.25" y="789.55" text-anchor="middle" fill="#7d8794" font-family="ui-rounded, 'Comic Sans MS', sans-serif" font-size="15" font-weight="450">Soul · Preferences · Today</text><text x="451.25" y="809.8" text-anchor="middle" fill="#7d8794" font-family="ui-rounded, 'Comic Sans MS', sans-serif" font-size="15" font-weight="450">· Memory</text><text x="696.875" y="769.3" text-anchor="middle" fill="#7d8794" font-family="ui-rounded, 'Comic Sans MS', sans-serif" font-size="15" font-weight="450">Live road knowledge</text><text x="696.875" y="789.55" text-anchor="middle" fill="#7d8794" font-family="ui-rounded, 'Comic Sans MS', sans-serif" font-size="15" font-weight="450">MapKit · Overpass ·</text><text x="696.875" y="809.8" text-anchor="middle" fill="#7d8794" font-family="ui-rounded, 'Comic Sans MS', sans-serif" font-size="15" font-weight="450">Wikipedia</text><text x="992.25" y="237.675" text-anchor="start" fill="#7048e8" font-family="ui-rounded, 'Comic Sans MS', sans-serif" font-size="15" font-weight="700">User-owned agents</text><text x="992.25" y="257.925" text-anchor="start" fill="#7048e8" font-family="ui-rounded, 'Comic Sans MS', sans-serif" font-size="15" font-weight="450">private travel memory,</text><text x="992.25" y="278.175" text-anchor="start" fill="#7048e8" font-family="ui-rounded, 'Comic Sans MS', sans-serif" font-size="15" font-weight="450">wiki, bookings &amp; research</text><text x="1129.625" y="335.425" text-anchor="middle" fill="#7048e8" font-family="ui-rounded, 'Comic Sans MS', sans-serif" font-size="15" font-weight="700">Named travel agent</text><text x="1129.625" y="355.675" text-anchor="middle" fill="#7048e8" font-family="ui-rounded, 'Comic Sans MS', sans-serif" font-size="15" font-weight="700">situated delegation</text><text x="1129.625" y="459.925" text-anchor="middle" fill="#7048e8" font-family="ui-rounded, 'Comic Sans MS', sans-serif" font-size="15" font-weight="450">OpenClaw</text><text x="1129.625" y="480.175" text-anchor="middle" fill="#7048e8" font-family="ui-rounded, 'Comic Sans MS', sans-serif" font-size="15" font-weight="450">Gateway</text><text x="1129.625" y="500.425" text-anchor="middle" fill="#7048e8" font-family="ui-rounded, 'Comic Sans MS', sans-serif" font-size="15" font-weight="450">/v1/responses</text><text x="1129.625" y="614.8" text-anchor="middle" fill="#7048e8" font-family="ui-rounded, 'Comic Sans MS', sans-serif" font-size="15" font-weight="450">Hermes WebUI</text><text x="1129.625" y="635.05" text-anchor="middle" fill="#7048e8" font-family="ui-rounded, 'Comic Sans MS', sans-serif" font-size="15" font-weight="450">background task API</text><text x="1129.625" y="749.425" text-anchor="middle" fill="#7048e8" font-family="ui-rounded, 'Comic Sans MS', sans-serif" font-size="15" font-weight="450">Hermes Agent API</text><text x="1129.625" y="769.675" text-anchor="middle" fill="#7048e8" font-family="ui-rounded, 'Comic Sans MS', sans-serif" font-size="15" font-weight="450">stateful runs /</text><text x="1129.625" y="789.925" text-anchor="middle" fill="#7048e8" font-family="ui-rounded, 'Comic Sans MS', sans-serif" font-size="15" font-weight="450">responses</text><g><rect x="354.375" y="451.29999999999995" width="119" height="36" rx="4" fill="#ffffff" fill-opacity=".9"/><text x="413.875" y="466.29999999999995" text-anchor="middle" font-family="ui-rounded, sans-serif" font-size="13" fill="#1674c8">accept + refine</text><text x="413.875" y="482.29999999999995" text-anchor="middle" font-family="ui-rounded, sans-serif" font-size="13" fill="#1674c8">Road Task</text></g><g><rect x="717.875" y="451.29999999999995" width="133.8" height="36" rx="4" fill="#ffffff" fill-opacity=".9"/><text x="784.775" y="466.29999999999995" text-anchor="middle" font-family="ui-rounded, sans-serif" font-size="13" fill="#21a044">progress +</text><text x="784.775" y="482.29999999999995" text-anchor="middle" font-family="ui-rounded, sans-serif" font-size="13" fill="#21a044">structured result</text></g><g transform="rotate(90 925.25 556.1125)"><rect x="813.95" y="546.1125" width="222.60000000000002" height="20" rx="4" fill="#ffffff" fill-opacity=".9"/><text x="925.25" y="561.1125" text-anchor="middle" font-family="ui-rounded, sans-serif" font-size="13" fill="#7048e8">drive context + exact request</text></g></g>
</svg>