<?xml version="1.0" encoding="UTF-8"?>
<svg xmlns="http://www.w3.org/2000/svg" width="1296" height="808" viewBox="0 0 1296 808" role="img" aria-label="port-groups">
  <title>port-groups</title>
  <desc>Kvísl layouter prototype preview</desc>
  <rect width="100%" height="100%" fill="#ffffff"/>
  <g id="boundaries"><rect x="52" y="171.5" width="580" height="276.25" rx="14" fill="#f8fafc" stroke="#7b8794" stroke-width="2"/><rect x="664" y="171.5" width="580" height="276.25" rx="14" fill="#f8fafc" stroke="#7b8794" stroke-width="2"/><rect x="52" y="479.75" width="580" height="276.25" rx="14" fill="#f8fafc" stroke="#7b8794" stroke-width="2"/><rect x="664" y="479.75" width="580" height="276.25" rx="14" fill="#f8fafc" stroke="#7b8794" stroke-width="2"/></g>
  <g id="corridor-dividers"></g>
  <g id="lines"><g data-line="$line-1"><polyline points="294,308.75 366,308.75 366,251.75 390,251.75" fill="none" stroke="#334155" stroke-width="2" stroke-linejoin="round" stroke-linecap="round"/><path d="M 378 257.75 L 390 251.75 L 378 245.75" fill="none" stroke="#334155" stroke-width="2" stroke-linejoin="round"/></g><g data-line="$line-2"><polyline points="294,323.75 390,323.75" fill="none" stroke="#334155" stroke-width="2" stroke-linejoin="round" stroke-linecap="round"/><path d="M 378 329.75 L 390 323.75 L 378 317.75" fill="none" stroke="#334155" stroke-width="2" stroke-linejoin="round"/></g><g data-line="$line-3"><polyline points="294,338.75 366,338.75 366,395.75 390,395.75" fill="none" stroke="#334155" stroke-width="2" stroke-linejoin="round" stroke-linecap="round"/><path d="M 378 401.75 L 390 395.75 L 378 389.75" fill="none" stroke="#334155" stroke-width="2" stroke-linejoin="round"/></g><g data-line="$line-4"><polyline points="906,308.75 978,308.75 978,251.75 1002,251.75" fill="none" stroke="#334155" stroke-width="2" stroke-linejoin="round" stroke-linecap="round"/><path d="M 990 257.75 L 1002 251.75 L 990 245.75" fill="none" stroke="#334155" stroke-width="2" stroke-linejoin="round"/></g><g data-line="$line-5"><polyline points="906,323.75 1002,323.75" fill="none" stroke="#334155" stroke-width="2" stroke-linejoin="round" stroke-linecap="round"/><path d="M 990 329.75 L 1002 323.75 L 990 317.75" fill="none" stroke="#334155" stroke-width="2" stroke-linejoin="round"/></g><g data-line="$line-6"><polyline points="906,338.75 978,338.75 978,395.75 1002,395.75" fill="none" stroke="#334155" stroke-width="2" stroke-linejoin="round" stroke-linecap="round"/><path d="M 990 401.75 L 1002 395.75 L 990 389.75" fill="none" stroke="#334155" stroke-width="2" stroke-linejoin="round"/></g><g data-line="$line-7"><polyline points="294,617 366,617 366,560 390,560" fill="none" stroke="#334155" stroke-width="2" stroke-linejoin="round" stroke-linecap="round"/><path d="M 378 566 L 390 560 L 378 554" fill="none" stroke="#334155" stroke-width="2" stroke-linejoin="round"/></g><g data-line="$line-8"><polyline points="294,632 390,632" fill="none" stroke="#334155" stroke-width="2" stroke-linejoin="round" stroke-linecap="round"/><path d="M 378 638 L 390 632 L 378 626" fill="none" stroke="#334155" stroke-width="2" stroke-linejoin="round"/></g><g data-line="$line-9"><polyline points="294,647 366,647 366,704 390,704" fill="none" stroke="#334155" stroke-width="2" stroke-linejoin="round" stroke-linecap="round"/><path d="M 378 710 L 390 704 L 378 698" fill="none" stroke="#334155" stroke-width="2" stroke-linejoin="round"/></g><g data-line="$line-10"><polyline points="906,617 978,617 978,560 1002,560" fill="none" stroke="#334155" stroke-width="2" stroke-linejoin="round" stroke-linecap="round"/><path d="M 990 566 L 1002 560 L 990 554" fill="none" stroke="#334155" stroke-width="2" stroke-linejoin="round"/></g><g data-line="$line-11"><polyline points="906,632 1002,632" fill="none" stroke="#334155" stroke-width="2" stroke-linejoin="round" stroke-linecap="round"/><path d="M 990 638 L 1002 632 L 990 626" fill="none" stroke="#334155" stroke-width="2" stroke-linejoin="round"/></g><g data-line="$line-12"><polyline points="906,647 978,647 978,704 1002,704" fill="none" stroke="#334155" stroke-width="2" stroke-linejoin="round" stroke-linecap="round"/><path d="M 990 710 L 1002 704 L 990 698" fill="none" stroke="#334155" stroke-width="2" stroke-linejoin="round"/></g></g>
  <g id="objects"><rect x="74" y="293.75" width="220" height="60" rx="14" fill="#ffffff" stroke="#26364a" stroke-width="2"/><rect x="390" y="221.75" width="220" height="60" rx="14" fill="#ffffff" stroke="#26364a" stroke-width="2"/><rect x="390" y="293.75" width="220" height="60" rx="14" fill="#ffffff" stroke="#26364a" stroke-width="2"/><rect x="390" y="365.75" width="220" height="60" rx="14" fill="#ffffff" stroke="#26364a" stroke-width="2"/><rect x="686" y="293.75" width="220" height="60" rx="14" fill="#ffffff" stroke="#26364a" stroke-width="2"/><rect x="1002" y="221.75" width="220" height="60" rx="14" fill="#ffffff" stroke="#26364a" stroke-width="2"/><rect x="1002" y="293.75" width="220" height="60" rx="14" fill="#ffffff" stroke="#26364a" stroke-width="2"/><rect x="1002" y="365.75" width="220" height="60" rx="14" fill="#ffffff" stroke="#26364a" stroke-width="2"/><rect x="74" y="602" width="220" height="60" rx="14" fill="#ffffff" stroke="#26364a" stroke-width="2"/><rect x="390" y="530" width="220" height="60" rx="14" fill="#ffffff" stroke="#26364a" stroke-width="2"/><rect x="390" y="602" width="220" height="60" rx="14" fill="#ffffff" stroke="#26364a" stroke-width="2"/><rect x="390" y="674" width="220" height="60" rx="14" fill="#ffffff" stroke="#26364a" stroke-width="2"/><rect x="686" y="602" width="220" height="60" rx="14" fill="#ffffff" stroke="#26364a" stroke-width="2"/><rect x="1002" y="530" width="220" height="60" rx="14" fill="#ffffff" stroke="#26364a" stroke-width="2"/><rect x="1002" y="602" width="220" height="60" rx="14" fill="#ffffff" stroke="#26364a" stroke-width="2"/><rect x="1002" y="674" width="220" height="60" rx="14" fill="#ffffff" stroke="#26364a" stroke-width="2"/></g>
  <g id="ports"></g>
  <g id="text"><text x="52" y="84" text-anchor="start" fill="#172033" font-family="ui-rounded, 'Comic Sans MS', sans-serif" font-size="32" font-weight="700">PortGroups coordinate distinct attachment identities</text><text x="52" y="139.2" text-anchor="start" fill="#172033" font-family="ui-rounded, 'Comic Sans MS', sans-serif" font-size="18" font-weight="450">The port IDs stay canonical; affinity changes only their route relationship.</text><text x="65" y="193.5" text-anchor="start" fill="#172033" font-family="ui-rounded, 'Comic Sans MS', sans-serif" font-size="15" font-weight="700">merge affinity</text><text x="184" y="328.625" text-anchor="middle" fill="#172033" font-family="ui-rounded, 'Comic Sans MS', sans-serif" font-size="15" font-weight="450">service</text><text x="500" y="256.625" text-anchor="middle" fill="#172033" font-family="ui-rounded, 'Comic Sans MS', sans-serif" font-size="15" font-weight="450">read</text><text x="500" y="328.625" text-anchor="middle" fill="#172033" font-family="ui-rounded, 'Comic Sans MS', sans-serif" font-size="15" font-weight="450">write</text><text x="500" y="400.625" text-anchor="middle" fill="#172033" font-family="ui-rounded, 'Comic Sans MS', sans-serif" font-size="15" font-weight="450">watch</text><text x="677" y="193.5" text-anchor="start" fill="#172033" font-family="ui-rounded, 'Comic Sans MS', sans-serif" font-size="15" font-weight="700">bundle affinity</text><text x="796" y="328.625" text-anchor="middle" fill="#172033" font-family="ui-rounded, 'Comic Sans MS', sans-serif" font-size="15" font-weight="450">service</text><text x="1112" y="256.625" text-anchor="middle" fill="#172033" font-family="ui-rounded, 'Comic Sans MS', sans-serif" font-size="15" font-weight="450">read</text><text x="1112" y="328.625" text-anchor="middle" fill="#172033" font-family="ui-rounded, 'Comic Sans MS', sans-serif" font-size="15" font-weight="450">write</text><text x="1112" y="400.625" text-anchor="middle" fill="#172033" font-family="ui-rounded, 'Comic Sans MS', sans-serif" font-size="15" font-weight="450">watch</text><text x="65" y="501.75" text-anchor="start" fill="#172033" font-family="ui-rounded, 'Comic Sans MS', sans-serif" font-size="15" font-weight="700">free affinity</text><text x="184" y="636.875" text-anchor="middle" fill="#172033" font-family="ui-rounded, 'Comic Sans MS', sans-serif" font-size="15" font-weight="450">service</text><text x="500" y="564.875" text-anchor="middle" fill="#172033" font-family="ui-rounded, 'Comic Sans MS', sans-serif" font-size="15" font-weight="450">read</text><text x="500" y="636.875" text-anchor="middle" fill="#172033" font-family="ui-rounded, 'Comic Sans MS', sans-serif" font-size="15" font-weight="450">write</text><text x="500" y="708.875" text-anchor="middle" fill="#172033" font-family="ui-rounded, 'Comic Sans MS', sans-serif" font-size="15" font-weight="450">watch</text><text x="677" y="501.75" text-anchor="start" fill="#172033" font-family="ui-rounded, 'Comic Sans MS', sans-serif" font-size="15" font-weight="700">separate affinity</text><text x="796" y="636.875" text-anchor="middle" fill="#172033" font-family="ui-rounded, 'Comic Sans MS', sans-serif" font-size="15" font-weight="450">service</text><text x="1112" y="564.875" text-anchor="middle" fill="#172033" font-family="ui-rounded, 'Comic Sans MS', sans-serif" font-size="15" font-weight="450">read</text><text x="1112" y="636.875" text-anchor="middle" fill="#172033" font-family="ui-rounded, 'Comic Sans MS', sans-serif" font-size="15" font-weight="450">write</text><text x="1112" y="708.875" text-anchor="middle" fill="#172033" font-family="ui-rounded, 'Comic Sans MS', sans-serif" font-size="15" font-weight="450">watch</text></g>
</svg>