<?xml version="1.0" encoding="UTF-8"?>
<svg xmlns="http://www.w3.org/2000/svg" width="916" height="686" viewBox="0 0 916 686" role="img" aria-label="routing-corridors">
  <title>routing-corridors</title>
  <desc>Kvísl layouter prototype preview</desc>
  <rect width="100%" height="100%" fill="#ffffff"/>
  <g id="boundaries"><rect x="52" y="171.5" width="812" height="461.75" rx="14" fill="#f8fafc" stroke="#7b8794" stroke-width="2"/><rect x="74" y="221.75" width="768" height="148.25" rx="14" fill="#f8fafc" stroke="#7b8794" stroke-width="2"/><rect x="74" y="463" width="768" height="148.25" rx="14" fill="#f8fafc" stroke="#7b8794" stroke-width="2"/></g>
  <g id="corridor-dividers"><path d="M 74 416.5 L 842 416.5" fill="none" stroke="#64748b" stroke-width="2" stroke-dasharray="10 7"/><text x="834" y="408.5" text-anchor="end" font-family="ui-rounded, sans-serif" font-size="13" fill="#64748b">ordered corridor refinements</text></g>
  <g id="lines"><g data-line="placement-cluster-a"><polyline points="206,332 206,340 206,351 169.33333333333331,351 169.33333333333331,416.5 169.33333333333331,529.25" fill="none" stroke="#f97316" stroke-width="2" stroke-linejoin="round" stroke-linecap="round"/><path d="M 163.33333333333331 517.25 L 169.33333333333331 529.25 L 175.33333333333331 517.25" fill="none" stroke="#f97316" stroke-width="2" stroke-linejoin="round"/></g><g data-line="placement-cluster-b"><polyline points="206,332 206,340 206,406.6 421.3333333333333,406.6 421.3333333333333,529.25" fill="none" stroke="#f97316" stroke-width="2" stroke-linejoin="round" stroke-linecap="round"/><path d="M 415.3333333333333 517.25 L 421.3333333333333 529.25 L 427.3333333333333 517.25" fill="none" stroke="#f97316" stroke-width="2" stroke-linejoin="round"/></g><g data-line="request-cluster-a"><polyline points="474,332 474,340 474,413.2 242.66666666666666,413.2 242.66666666666666,529.25" fill="none" stroke="#7c3aed" stroke-width="2" stroke-linejoin="round" stroke-linecap="round"/><path d="M 236.66666666666666 517.25 L 242.66666666666666 529.25 L 248.66666666666666 517.25" fill="none" stroke="#7c3aed" stroke-width="2" stroke-linejoin="round"/></g><g data-line="request-cluster-b"><polyline points="474,332 474,340 474,351 608,351 608,419.8 474,419.8 474,529.25" fill="none" stroke="#7c3aed" stroke-width="2" stroke-linejoin="round" stroke-linecap="round"/><path d="M 468 517.25 L 474 529.25 L 480 517.25" fill="none" stroke="#7c3aed" stroke-width="2" stroke-linejoin="round"/></g><g data-line="request-external"><polyline points="474,332 474,340 474,351 340,351 340,426.4 474,426.4 673.3333333333334,426.4 673.3333333333334,529.25" fill="none" stroke="#7c3aed" stroke-width="2" stroke-linejoin="round" stroke-linecap="round"/><path d="M 667.3333333333334 517.25 L 673.3333333333334 529.25 L 679.3333333333334 517.25" fill="none" stroke="#7c3aed" stroke-width="2" stroke-linejoin="round"/></g></g>
  <g id="objects"><rect x="96" y="272" width="220" height="60" rx="14" fill="#ffffff" stroke="#26364a" stroke-width="2"/><rect x="364" y="272" width="220" height="60" rx="14" fill="#ffffff" stroke="#26364a" stroke-width="2"/><rect x="96" y="529.25" width="220" height="60" rx="14" fill="#ffffff" stroke="#26364a" stroke-width="2"/><rect x="348" y="529.25" width="220" height="60" rx="14" fill="#ffffff" stroke="#26364a" stroke-width="2"/><rect x="600" y="529.25" width="220" height="60" rx="14" fill="#ffffff" stroke="#26364a" stroke-width="2"/></g>
  <g id="ports"></g>
  <g id="text"><text x="52" y="84" text-anchor="start" fill="#172033" font-family="ui-rounded, 'Comic Sans MS', sans-serif" font-size="32" font-weight="700">Whitespace is the routing plane</text><text x="52" y="139.2" text-anchor="start" fill="#172033" font-family="ui-rounded, 'Comic Sans MS', sans-serif" font-size="18" font-weight="450">Two named buses refine one implicit gap; tracks reserve the room they need.</text><text x="65" y="193.5" text-anchor="start" fill="#172033" font-family="ui-rounded, 'Comic Sans MS', sans-serif" font-size="15" font-weight="700">system</text><text x="87" y="243.75" text-anchor="start" fill="#172033" font-family="ui-rounded, 'Comic Sans MS', sans-serif" font-size="15" font-weight="700">control plane</text><text x="206" y="306.875" text-anchor="middle" fill="#172033" font-family="ui-rounded, 'Comic Sans MS', sans-serif" font-size="15" font-weight="450">scheduler</text><text x="474" y="306.875" text-anchor="middle" fill="#172033" font-family="ui-rounded, 'Comic Sans MS', sans-serif" font-size="15" font-weight="450">gateway</text><text x="87" y="485" text-anchor="start" fill="#172033" font-family="ui-rounded, 'Comic Sans MS', sans-serif" font-size="15" font-weight="700">fleet</text><text x="206" y="564.125" text-anchor="middle" fill="#172033" font-family="ui-rounded, 'Comic Sans MS', sans-serif" font-size="15" font-weight="450">cluster A</text><text x="458" y="564.125" text-anchor="middle" fill="#172033" font-family="ui-rounded, 'Comic Sans MS', sans-serif" font-size="15" font-weight="450">cluster B</text><text x="710" y="564.125" text-anchor="middle" fill="#172033" font-family="ui-rounded, 'Comic Sans MS', sans-serif" font-size="15" font-weight="450">external endpoint</text><g data-line-label="placement-cluster-a"><text x="124.0333333333333" y="445" text-anchor="middle" font-family="ui-rounded, sans-serif" font-size="13" fill="#f97316" stroke="#ffffff" stroke-opacity=".92" stroke-width="3.5" stroke-linejoin="round" paint-order="stroke fill">placement</text></g><g data-line-label="request-external"><text x="573.5" y="449.4" text-anchor="middle" font-family="ui-rounded, sans-serif" font-size="13" fill="#7c3aed" stroke="#ffffff" stroke-opacity=".92" stroke-width="3.5" stroke-linejoin="round" paint-order="stroke fill">request routing</text></g></g>
</svg>